<svg width="476" height="250" viewBox="0 0 476 250" fill="none" xmlns="http://www.w3.org/2000/svg">
<path d="M0 250H476V0H0V250Z" fill="#CEF56B"/>
<path d="M15.6818 33.9091H24.4886L30.1705 45.7273H30.3977L36.0795 33.9091H44.8864L34.2045 53.8523V63H26.3636V53.8523L15.6818 33.9091Z" fill="#3E0D49"/>
<path d="M52.5391 63.3977C50.1716 63.3977 48.1451 62.929 46.4595 61.9915C44.7739 61.0445 43.4813 59.7282 42.5817 58.0426C41.6821 56.3475 41.2322 54.3826 41.2322 52.1477C41.2322 49.9129 41.6821 47.9526 42.5817 46.267C43.4813 44.572 44.7739 43.2557 46.4595 42.3182C48.1451 41.3712 50.1716 40.8977 52.5391 40.8977C54.9065 40.8977 56.933 41.3712 58.6186 42.3182C60.3042 43.2557 61.5968 44.572 62.4964 46.267C63.3961 47.9526 63.8459 49.9129 63.8459 52.1477C63.8459 54.3826 63.3961 56.3475 62.4964 58.0426C61.5968 59.7282 60.3042 61.0445 58.6186 61.9915C56.933 62.929 54.9065 63.3977 52.5391 63.3977ZM52.5959 57.6023C53.2588 57.6023 53.8317 57.3797 54.3146 56.9347C54.7976 56.4896 55.1716 55.8551 55.4368 55.0312C55.7019 54.2074 55.8345 53.2273 55.8345 52.0909C55.8345 50.9451 55.7019 49.965 55.4368 49.1506C55.1716 48.3267 54.7976 47.6922 54.3146 47.2472C53.8317 46.8021 53.2588 46.5795 52.5959 46.5795C51.8951 46.5795 51.2938 46.8021 50.7919 47.2472C50.29 47.6922 49.9065 48.3267 49.6413 49.1506C49.3762 49.965 49.2436 50.9451 49.2436 52.0909C49.2436 53.2273 49.3762 54.2074 49.6413 55.0312C49.9065 55.8551 50.29 56.4896 50.7919 56.9347C51.2938 57.3797 51.8951 57.6023 52.5959 57.6023Z" fill="#3E0D49"/>
<path d="M81.1754 53.4545V41.1818H89.0163V63H81.5732V58.8523H81.3459C80.8724 60.2443 80.0438 61.3333 78.8601 62.1193C77.6764 62.8958 76.2701 63.2841 74.6413 63.2841C73.1167 63.2841 71.7815 62.9337 70.6357 62.233C69.4993 61.5322 68.6139 60.5663 67.9794 59.3352C67.3544 58.1042 67.0372 56.6932 67.0277 55.1023V41.1818H74.8686V53.4545C74.8781 54.5341 75.1527 55.3816 75.6925 55.9972C76.2417 56.6127 77.0088 56.9205 77.9936 56.9205C78.647 56.9205 79.2105 56.7831 79.684 56.5085C80.1669 56.2244 80.5362 55.8267 80.7919 55.3153C81.0571 54.7945 81.1849 54.1742 81.1754 53.4545Z" fill="#3E0D49"/>
<path d="M120.916 48.2841H113.7C113.662 47.839 113.506 47.4555 113.232 47.1335C112.957 46.8116 112.602 46.5653 112.166 46.3949C111.74 46.215 111.267 46.125 110.746 46.125C110.073 46.125 109.496 46.2481 109.013 46.4943C108.53 46.7405 108.293 47.0909 108.303 47.5455C108.293 47.8674 108.43 48.1657 108.714 48.4403C109.008 48.715 109.571 48.928 110.405 49.0795L114.837 49.875C117.071 50.2822 118.733 50.9688 119.822 51.9347C120.921 52.8911 121.475 54.1742 121.484 55.7841C121.475 57.3371 121.011 58.6866 120.092 59.8324C119.183 60.9688 117.938 61.8494 116.357 62.4744C114.785 63.09 112.99 63.3977 110.973 63.3977C107.64 63.3977 105.031 62.7159 103.146 61.3523C101.271 59.9886 100.225 58.1894 100.007 55.9545H107.791C107.895 56.6458 108.236 57.1809 108.814 57.5597C109.401 57.929 110.14 58.1136 111.03 58.1136C111.75 58.1136 112.341 57.9905 112.805 57.7443C113.279 57.4981 113.52 57.1477 113.53 56.6932C113.52 56.2765 113.312 55.9451 112.905 55.6989C112.507 55.4527 111.882 55.2538 111.03 55.1023L107.166 54.4205C104.941 54.0322 103.274 53.2936 102.166 52.2045C101.058 51.1155 100.509 49.714 100.518 48C100.509 46.4848 100.907 45.2017 101.712 44.1506C102.526 43.09 103.686 42.285 105.192 41.7358C106.707 41.1771 108.501 40.8977 110.575 40.8977C113.729 40.8977 116.214 41.5511 118.033 42.858C119.86 44.1648 120.822 45.9735 120.916 48.2841Z" fill="#3E0D49"/>
<path d="M132.33 50.7273V63H124.489V33.9091H132.045V45.3295H132.273C132.765 43.9375 133.584 42.8532 134.73 42.0767C135.876 41.2907 137.254 40.8977 138.864 40.8977C140.407 40.8977 141.747 41.2481 142.884 41.9489C144.029 42.6496 144.915 43.6155 145.54 44.8466C146.174 46.0776 146.487 47.4886 146.477 49.0795V63H138.636V50.7273C138.646 49.6477 138.376 48.8002 137.827 48.1847C137.287 47.5691 136.515 47.2614 135.511 47.2614C134.877 47.2614 134.318 47.4034 133.835 47.6875C133.362 47.9621 132.992 48.3598 132.727 48.8807C132.472 49.392 132.339 50.0076 132.33 50.7273Z" fill="#3E0D49"/>
<path d="M160.859 63.3977C158.492 63.3977 156.465 62.929 154.78 61.9915C153.094 61.0445 151.802 59.7282 150.902 58.0426C150.002 56.3475 149.553 54.3826 149.553 52.1477C149.553 49.9129 150.002 47.9526 150.902 46.267C151.802 44.572 153.094 43.2557 154.78 42.3182C156.465 41.3712 158.492 40.8977 160.859 40.8977C163.227 40.8977 165.253 41.3712 166.939 42.3182C168.625 43.2557 169.917 44.572 170.817 46.267C171.716 47.9526 172.166 49.9129 172.166 52.1477C172.166 54.3826 171.716 56.3475 170.817 58.0426C169.917 59.7282 168.625 61.0445 166.939 61.9915C165.253 62.929 163.227 63.3977 160.859 63.3977ZM160.916 57.6023C161.579 57.6023 162.152 57.3797 162.635 56.9347C163.118 56.4896 163.492 55.8551 163.757 55.0312C164.022 54.2074 164.155 53.2273 164.155 52.0909C164.155 50.9451 164.022 49.965 163.757 49.1506C163.492 48.3267 163.118 47.6922 162.635 47.2472C162.152 46.8021 161.579 46.5795 160.916 46.5795C160.215 46.5795 159.614 46.8021 159.112 47.2472C158.61 47.6922 158.227 48.3267 157.962 49.1506C157.697 49.965 157.564 50.9451 157.564 52.0909C157.564 53.2273 157.697 54.2074 157.962 55.0312C158.227 55.8551 158.61 56.4896 159.112 56.9347C159.614 57.3797 160.215 57.6023 160.916 57.6023Z" fill="#3E0D49"/>
<path d="M189.496 53.4545V41.1818H197.337V63H189.893V58.8523H189.666C189.193 60.2443 188.364 61.3333 187.18 62.1193C185.997 62.8958 184.59 63.2841 182.962 63.2841C181.437 63.2841 180.102 62.9337 178.956 62.233C177.82 61.5322 176.934 60.5663 176.3 59.3352C175.675 58.1042 175.357 56.6932 175.348 55.1023V41.1818H183.189V53.4545C183.198 54.5341 183.473 55.3816 184.013 55.9972C184.562 56.6127 185.329 56.9205 186.314 56.9205C186.967 56.9205 187.531 56.7831 188.004 56.5085C188.487 56.2244 188.857 55.8267 189.112 55.3153C189.377 54.7945 189.505 54.1742 189.496 53.4545Z" fill="#3E0D49"/>
<path d="M209.165 33.9091V63H201.325V33.9091H209.165Z" fill="#3E0D49"/>
<path d="M221.058 63.2841C219.505 63.2841 218.075 62.8769 216.768 62.0625C215.471 61.2481 214.429 60.0123 213.643 58.3551C212.867 56.6979 212.479 54.6098 212.479 52.0909C212.479 49.4583 212.886 47.3182 213.7 45.6705C214.524 44.0227 215.585 42.8153 216.882 42.0483C218.189 41.2812 219.562 40.8977 221.001 40.8977C222.081 40.8977 223.028 41.0871 223.842 41.4659C224.657 41.8352 225.339 42.3324 225.888 42.9574C226.437 43.5729 226.854 44.25 227.138 44.9886H227.251V33.9091H235.092V63H227.308V59.4205H227.138C226.835 60.1591 226.399 60.822 225.831 61.4091C225.272 61.9867 224.59 62.446 223.786 62.7869C222.99 63.1184 222.081 63.2841 221.058 63.2841ZM223.956 57.2614C224.676 57.2614 225.291 57.053 225.803 56.6364C226.323 56.2102 226.721 55.6136 226.996 54.8466C227.28 54.0701 227.422 53.1515 227.422 52.0909C227.422 51.0114 227.28 50.0881 226.996 49.321C226.721 48.5445 226.323 47.9526 225.803 47.5455C225.291 47.1288 224.676 46.9205 223.956 46.9205C223.236 46.9205 222.621 47.1288 222.109 47.5455C221.607 47.9526 221.219 48.5445 220.945 49.321C220.679 50.0881 220.547 51.0114 220.547 52.0909C220.547 53.1705 220.679 54.0985 220.945 54.875C221.219 55.642 221.607 56.2339 222.109 56.6506C222.621 57.0578 223.236 57.2614 223.956 57.2614Z" fill="#3E0D49"/>
<path d="M246.797 63V33.9091H254.638V44.9886H254.751C255.036 44.25 255.452 43.5729 256.001 42.9574C256.551 42.3324 257.232 41.8352 258.047 41.4659C258.861 41.0871 259.808 40.8977 260.888 40.8977C262.327 40.8977 263.696 41.2812 264.993 42.0483C266.3 42.8153 267.36 44.0227 268.175 45.6705C268.999 47.3182 269.411 49.4583 269.411 52.0909C269.411 54.6098 269.018 56.6979 268.232 58.3551C267.455 60.0123 266.413 61.2481 265.107 62.0625C263.809 62.8769 262.384 63.2841 260.831 63.2841C259.808 63.2841 258.894 63.1184 258.089 62.7869C257.294 62.446 256.612 61.9867 256.044 61.4091C255.485 60.822 255.054 60.1591 254.751 59.4205H254.581V63H246.797ZM254.467 52.0909C254.467 53.1515 254.605 54.0701 254.879 54.8466C255.163 55.6136 255.561 56.2102 256.072 56.6364C256.593 57.053 257.214 57.2614 257.933 57.2614C258.653 57.2614 259.264 57.0578 259.766 56.6506C260.277 56.2339 260.665 55.642 260.93 54.875C261.205 54.0985 261.342 53.1705 261.342 52.0909C261.342 51.0114 261.205 50.0881 260.93 49.321C260.665 48.5445 260.277 47.9526 259.766 47.5455C259.264 47.1288 258.653 46.9205 257.933 46.9205C257.214 46.9205 256.593 47.1288 256.072 47.5455C255.561 47.9526 255.163 48.5445 254.879 49.321C254.605 50.0881 254.467 51.0114 254.467 52.0909Z" fill="#3E0D49"/>
<path d="M283.146 63.3977C280.817 63.3977 278.809 62.9527 277.124 62.0625C275.447 61.1629 274.155 59.875 273.246 58.1989C272.346 56.5133 271.896 54.4962 271.896 52.1477C271.896 49.8939 272.351 47.9242 273.26 46.2386C274.169 44.553 275.452 43.2415 277.109 42.304C278.767 41.3665 280.722 40.8977 282.976 40.8977C284.624 40.8977 286.115 41.1534 287.45 41.6648C288.786 42.1761 289.927 42.9195 290.874 43.8949C291.821 44.8608 292.55 46.035 293.061 47.4176C293.572 48.8002 293.828 50.358 293.828 52.0909V53.9091H274.339V49.5909H286.612C286.603 48.9659 286.442 48.4167 286.129 47.9432C285.826 47.4602 285.414 47.0862 284.893 46.821C284.382 46.5464 283.8 46.4091 283.146 46.4091C282.512 46.4091 281.929 46.5464 281.399 46.821C280.869 47.0862 280.443 47.4555 280.121 47.929C279.808 48.4025 279.643 48.9564 279.624 49.5909V54.25C279.624 54.9508 279.77 55.5758 280.064 56.125C280.357 56.6742 280.779 57.1051 281.328 57.4176C281.877 57.7301 282.54 57.8864 283.317 57.8864C283.857 57.8864 284.349 57.8106 284.794 57.6591C285.249 57.5076 285.637 57.2898 285.959 57.0057C286.281 56.7121 286.518 56.3617 286.669 55.9545H293.828C293.582 57.4697 293 58.786 292.081 59.9034C291.162 61.0114 289.946 61.8731 288.43 62.4886C286.925 63.0947 285.163 63.3977 283.146 63.3977Z" fill="#3E0D49"/>
<path d="M23.0682 111.341C21.6761 111.341 20.4451 111.114 19.375 110.659C18.3144 110.195 17.4811 109.494 16.875 108.557C16.2689 107.619 15.9659 106.426 15.9659 104.977C15.9659 103.784 16.1695 102.766 16.5767 101.923C16.9839 101.071 17.5521 100.375 18.2812 99.8352C19.0104 99.2955 19.858 98.8835 20.8239 98.5994C21.7992 98.3153 22.8504 98.1307 23.9773 98.0455C25.1989 97.9508 26.179 97.8371 26.9176 97.7045C27.6657 97.5625 28.2055 97.3684 28.5369 97.1222C28.8684 96.8665 29.0341 96.5303 29.0341 96.1136V96.0568C29.0341 95.4886 28.8163 95.053 28.3807 94.75C27.9451 94.447 27.3864 94.2955 26.7045 94.2955C25.9564 94.2955 25.3456 94.4612 24.8722 94.7926C24.4081 95.1146 24.1288 95.6117 24.0341 96.2841H16.8182C16.9129 94.9583 17.3343 93.7367 18.0824 92.6193C18.84 91.4924 19.9432 90.5928 21.392 89.9205C22.8409 89.2386 24.6496 88.8977 26.8182 88.8977C28.3807 88.8977 29.7822 89.0824 31.0227 89.4517C32.2633 89.8116 33.3191 90.3182 34.1903 90.9716C35.0616 91.6155 35.7244 92.3731 36.179 93.2443C36.643 94.1061 36.875 95.0436 36.875 96.0568V111H29.5455V107.932H29.375C28.9394 108.746 28.4091 109.404 27.7841 109.906C27.1686 110.408 26.4631 110.773 25.6676 111C24.8816 111.227 24.0152 111.341 23.0682 111.341ZM25.625 106.398C26.2216 106.398 26.7803 106.275 27.3011 106.028C27.8314 105.782 28.2623 105.427 28.5938 104.963C28.9252 104.499 29.0909 103.936 29.0909 103.273V101.455C28.8826 101.54 28.66 101.62 28.4233 101.696C28.196 101.772 27.9498 101.843 27.6847 101.909C27.429 101.975 27.1544 102.037 26.8608 102.094C26.5767 102.151 26.2784 102.203 25.9659 102.25C25.3598 102.345 24.8627 102.501 24.4744 102.719C24.0956 102.927 23.8116 103.188 23.6222 103.5C23.4422 103.803 23.3523 104.144 23.3523 104.523C23.3523 105.129 23.5653 105.593 23.9915 105.915C24.4176 106.237 24.9621 106.398 25.625 106.398Z" fill="#3E0D49"/>
<path d="M40.5078 111V81.9091H48.3487V92.9886H48.4624C48.7464 92.25 49.1631 91.5729 49.7124 90.9574C50.2616 90.3324 50.9434 89.8352 51.7578 89.4659C52.5722 89.0871 53.5192 88.8977 54.5987 88.8977C56.0381 88.8977 57.4065 89.2812 58.7038 90.0483C60.0107 90.8153 61.0713 92.0227 61.8857 93.6705C62.7095 95.3182 63.1214 97.4583 63.1214 100.091C63.1214 102.61 62.7285 104.698 61.9425 106.355C61.166 108.012 60.1243 109.248 58.8175 110.062C57.5201 110.877 56.0949 111.284 54.5419 111.284C53.5192 111.284 52.6054 111.118 51.8004 110.787C51.005 110.446 50.3232 109.987 49.755 109.409C49.1963 108.822 48.7654 108.159 48.4624 107.42H48.2919V111H40.5078ZM48.1783 100.091C48.1783 101.152 48.3156 102.07 48.5902 102.847C48.8743 103.614 49.272 104.21 49.7834 104.636C50.3042 105.053 50.9245 105.261 51.6442 105.261C52.3639 105.261 52.9747 105.058 53.4766 104.651C53.9879 104.234 54.3762 103.642 54.6413 102.875C54.916 102.098 55.0533 101.17 55.0533 100.091C55.0533 99.0114 54.916 98.0881 54.6413 97.321C54.3762 96.5445 53.9879 95.9527 53.4766 95.5455C52.9747 95.1288 52.3639 94.9205 51.6442 94.9205C50.9245 94.9205 50.3042 95.1288 49.7834 95.5455C49.272 95.9527 48.8743 96.5445 48.5902 97.321C48.3156 98.0881 48.1783 99.0114 48.1783 100.091Z" fill="#3E0D49"/>
<path d="M74.2436 81.9091V111H66.4027V81.9091H74.2436Z" fill="#3E0D49"/>
<path d="M88.6932 111.398C86.3636 111.398 84.3561 110.953 82.6705 110.062C80.9943 109.163 79.7017 107.875 78.7926 106.199C77.893 104.513 77.4432 102.496 77.4432 100.148C77.4432 97.8939 77.8977 95.9242 78.8068 94.2386C79.7159 92.553 80.9991 91.2415 82.6562 90.304C84.3134 89.3665 86.2689 88.8977 88.5227 88.8977C90.1705 88.8977 91.6619 89.1534 92.9972 89.6648C94.3324 90.1761 95.4735 90.9195 96.4205 91.8949C97.3674 92.8608 98.0966 94.035 98.608 95.4176C99.1193 96.8002 99.375 98.358 99.375 100.091V101.909H79.8864V97.5909H92.1591C92.1496 96.9659 91.9886 96.4167 91.6761 95.9432C91.3731 95.4602 90.9612 95.0862 90.4403 94.821C89.929 94.5464 89.3466 94.4091 88.6932 94.4091C88.0587 94.4091 87.4763 94.5464 86.946 94.821C86.4157 95.0862 85.9896 95.4555 85.6676 95.929C85.3551 96.4025 85.1894 96.9564 85.1705 97.5909V102.25C85.1705 102.951 85.3172 103.576 85.6108 104.125C85.9044 104.674 86.3258 105.105 86.875 105.418C87.4242 105.73 88.0871 105.886 88.8636 105.886C89.4034 105.886 89.8958 105.811 90.3409 105.659C90.7955 105.508 91.1837 105.29 91.5057 105.006C91.8277 104.712 92.0644 104.362 92.2159 103.955H99.375C99.1288 105.47 98.5464 106.786 97.6278 107.903C96.7093 109.011 95.4924 109.873 93.9773 110.489C92.4716 111.095 90.7102 111.398 88.6932 111.398Z" fill="#3E0D49"/>
<path d="M123.555 89.1818V94.8636H109.18V89.1818H123.555ZM111.964 83.9545H119.805V103.983C119.805 104.286 119.857 104.542 119.961 104.75C120.065 104.949 120.226 105.1 120.444 105.205C120.662 105.299 120.941 105.347 121.282 105.347C121.519 105.347 121.793 105.318 122.106 105.261C122.428 105.205 122.665 105.157 122.816 105.119L123.952 110.631C123.602 110.735 123.1 110.863 122.447 111.014C121.803 111.166 121.036 111.265 120.146 111.312C118.346 111.407 116.836 111.223 115.614 110.759C114.393 110.285 113.474 109.542 112.859 108.528C112.243 107.515 111.945 106.246 111.964 104.722V83.9545Z" fill="#3E0D49"/>
<path d="M137.031 111.398C134.664 111.398 132.637 110.929 130.952 109.991C129.266 109.045 127.973 107.728 127.074 106.043C126.174 104.348 125.724 102.383 125.724 100.148C125.724 97.9129 126.174 95.9527 127.074 94.267C127.973 92.572 129.266 91.2557 130.952 90.3182C132.637 89.3712 134.664 88.8977 137.031 88.8977C139.399 88.8977 141.425 89.3712 143.111 90.3182C144.796 91.2557 146.089 92.572 146.989 94.267C147.888 95.9527 148.338 97.9129 148.338 100.148C148.338 102.383 147.888 104.348 146.989 106.043C146.089 107.728 144.796 109.045 143.111 109.991C141.425 110.929 139.399 111.398 137.031 111.398ZM137.088 105.602C137.751 105.602 138.324 105.38 138.807 104.935C139.29 104.49 139.664 103.855 139.929 103.031C140.194 102.207 140.327 101.227 140.327 100.091C140.327 98.9451 140.194 97.965 139.929 97.1506C139.664 96.3267 139.29 95.6922 138.807 95.2472C138.324 94.8021 137.751 94.5795 137.088 94.5795C136.387 94.5795 135.786 94.8021 135.284 95.2472C134.782 95.6922 134.399 96.3267 134.134 97.1506C133.868 97.965 133.736 98.9451 133.736 100.091C133.736 101.227 133.868 102.207 134.134 103.031C134.399 103.855 134.782 104.49 135.284 104.935C135.786 105.38 136.387 105.602 137.088 105.602Z" fill="#3E0D49"/>
<path d="M159.489 111V89.1818H167.102V93.3295H167.33C167.727 91.7955 168.357 90.6733 169.219 89.9631C170.09 89.2528 171.108 88.8977 172.273 88.8977C172.614 88.8977 172.95 88.9261 173.281 88.983C173.622 89.0303 173.949 89.1013 174.261 89.196V95.8864C173.873 95.7538 173.395 95.6544 172.827 95.5881C172.259 95.5218 171.771 95.4886 171.364 95.4886C170.597 95.4886 169.905 95.6638 169.29 96.0142C168.684 96.3551 168.205 96.8381 167.855 97.4631C167.505 98.0786 167.33 98.803 167.33 99.6364V111H159.489Z" fill="#3E0D49"/>
<path d="M186.037 111.398C183.707 111.398 181.7 110.953 180.014 110.062C178.338 109.163 177.045 107.875 176.136 106.199C175.237 104.513 174.787 102.496 174.787 100.148C174.787 97.8939 175.241 95.9242 176.151 94.2386C177.06 92.553 178.343 91.2415 180 90.304C181.657 89.3665 183.613 88.8977 185.866 88.8977C187.514 88.8977 189.006 89.1534 190.341 89.6648C191.676 90.1761 192.817 90.9195 193.764 91.8949C194.711 92.8608 195.44 94.035 195.952 95.4176C196.463 96.8002 196.719 98.358 196.719 100.091V101.909H177.23V97.5909H189.503C189.493 96.9659 189.332 96.4167 189.02 95.9432C188.717 95.4602 188.305 95.0862 187.784 94.821C187.273 94.5464 186.69 94.4091 186.037 94.4091C185.402 94.4091 184.82 94.5464 184.29 94.821C183.759 95.0862 183.333 95.4555 183.011 95.929C182.699 96.4025 182.533 96.9564 182.514 97.5909V102.25C182.514 102.951 182.661 103.576 182.955 104.125C183.248 104.674 183.67 105.105 184.219 105.418C184.768 105.73 185.431 105.886 186.207 105.886C186.747 105.886 187.24 105.811 187.685 105.659C188.139 105.508 188.527 105.29 188.849 105.006C189.171 104.712 189.408 104.362 189.56 103.955H196.719C196.473 105.47 195.89 106.786 194.972 107.903C194.053 109.011 192.836 109.873 191.321 110.489C189.815 111.095 188.054 111.398 186.037 111.398Z" fill="#3E0D49"/>
<path d="M205.998 111.341C204.606 111.341 203.375 111.114 202.305 110.659C201.244 110.195 200.411 109.494 199.805 108.557C199.199 107.619 198.896 106.426 198.896 104.977C198.896 103.784 199.099 102.766 199.506 101.923C199.914 101.071 200.482 100.375 201.211 99.8352C201.94 99.2955 202.788 98.8835 203.754 98.5994C204.729 98.3153 205.78 98.1307 206.907 98.0455C208.129 97.9508 209.109 97.8371 209.847 97.7045C210.595 97.5625 211.135 97.3684 211.467 97.1222C211.798 96.8665 211.964 96.5303 211.964 96.1136V96.0568C211.964 95.4886 211.746 95.053 211.31 94.75C210.875 94.447 210.316 94.2955 209.634 94.2955C208.886 94.2955 208.275 94.4612 207.802 94.7926C207.338 95.1146 207.058 95.6117 206.964 96.2841H199.748C199.843 94.9583 200.264 93.7367 201.012 92.6193C201.77 91.4924 202.873 90.5928 204.322 89.9205C205.771 89.2386 207.579 88.8977 209.748 88.8977C211.31 88.8977 212.712 89.0824 213.952 89.4517C215.193 89.8116 216.249 90.3182 217.12 90.9716C217.991 91.6155 218.654 92.3731 219.109 93.2443C219.573 94.1061 219.805 95.0436 219.805 96.0568V111H212.475V107.932H212.305C211.869 108.746 211.339 109.404 210.714 109.906C210.098 110.408 209.393 110.773 208.597 111C207.811 111.227 206.945 111.341 205.998 111.341ZM208.555 106.398C209.151 106.398 209.71 106.275 210.231 106.028C210.761 105.782 211.192 105.427 211.523 104.963C211.855 104.499 212.021 103.936 212.021 103.273V101.455C211.812 101.54 211.59 101.62 211.353 101.696C211.126 101.772 210.88 101.843 210.614 101.909C210.359 101.975 210.084 102.037 209.79 102.094C209.506 102.151 209.208 102.203 208.896 102.25C208.29 102.345 207.792 102.501 207.404 102.719C207.025 102.927 206.741 103.188 206.552 103.5C206.372 103.803 206.282 104.144 206.282 104.523C206.282 105.129 206.495 105.593 206.921 105.915C207.347 106.237 207.892 106.398 208.555 106.398Z" fill="#3E0D49"/>
<path d="M231.449 111.284C229.896 111.284 228.466 110.877 227.159 110.062C225.862 109.248 224.82 108.012 224.034 106.355C223.258 104.698 222.869 102.61 222.869 100.091C222.869 97.4583 223.277 95.3182 224.091 93.6705C224.915 92.0227 225.975 90.8153 227.273 90.0483C228.58 89.2812 229.953 88.8977 231.392 88.8977C232.472 88.8977 233.419 89.0871 234.233 89.4659C235.047 89.8352 235.729 90.3324 236.278 90.9574C236.828 91.5729 237.244 92.25 237.528 92.9886H237.642V81.9091H245.483V111H237.699V107.42H237.528C237.225 108.159 236.79 108.822 236.222 109.409C235.663 109.987 234.981 110.446 234.176 110.787C233.381 111.118 232.472 111.284 231.449 111.284ZM234.347 105.261C235.066 105.261 235.682 105.053 236.193 104.636C236.714 104.21 237.112 103.614 237.386 102.847C237.67 102.07 237.812 101.152 237.812 100.091C237.812 99.0114 237.67 98.0881 237.386 97.321C237.112 96.5445 236.714 95.9527 236.193 95.5455C235.682 95.1288 235.066 94.9205 234.347 94.9205C233.627 94.9205 233.011 95.1288 232.5 95.5455C231.998 95.9527 231.61 96.5445 231.335 97.321C231.07 98.0881 230.938 99.0114 230.938 100.091C230.938 101.17 231.07 102.098 231.335 102.875C231.61 103.642 231.998 104.234 232.5 104.651C233.011 105.058 233.627 105.261 234.347 105.261Z" fill="#3E0D49"/>
<path d="M270.312 89.1818V94.8636H255.938V89.1818H270.312ZM258.722 83.9545H266.562V103.983C266.562 104.286 266.615 104.542 266.719 104.75C266.823 104.949 266.984 105.1 267.202 105.205C267.419 105.299 267.699 105.347 268.04 105.347C268.277 105.347 268.551 105.318 268.864 105.261C269.186 105.205 269.422 105.157 269.574 105.119L270.71 110.631C270.36 110.735 269.858 110.863 269.205 111.014C268.561 111.166 267.794 111.265 266.903 111.312C265.104 111.407 263.594 111.223 262.372 110.759C261.151 110.285 260.232 109.542 259.616 108.528C259.001 107.515 258.703 106.246 258.722 104.722V83.9545Z" fill="#3E0D49"/>
<path d="M281.822 98.7273V111H273.981V81.9091H281.538V93.3295H281.765C282.257 91.9375 283.076 90.8532 284.222 90.0767C285.368 89.2907 286.746 88.8977 288.356 88.8977C289.899 88.8977 291.239 89.2481 292.376 89.9489C293.522 90.6496 294.407 91.6155 295.032 92.8466C295.666 94.0777 295.979 95.4886 295.969 97.0795V111H288.129V98.7273C288.138 97.6477 287.868 96.8002 287.319 96.1847C286.779 95.5691 286.007 95.2614 285.004 95.2614C284.369 95.2614 283.81 95.4034 283.327 95.6875C282.854 95.9621 282.485 96.3598 282.219 96.8807C281.964 97.392 281.831 98.0076 281.822 98.7273Z" fill="#3E0D49"/>
<path d="M299.84 111V89.1818H307.681V111H299.84ZM303.761 86.9091C302.7 86.9091 301.791 86.5587 301.033 85.858C300.276 85.1572 299.897 84.3144 299.897 83.3295C299.897 82.3447 300.276 81.5019 301.033 80.8011C301.791 80.1004 302.7 79.75 303.761 79.75C304.831 79.75 305.74 80.1004 306.488 80.8011C307.245 81.5019 307.624 82.3447 307.624 83.3295C307.624 84.3144 307.245 85.1572 306.488 85.858C305.74 86.5587 304.831 86.9091 303.761 86.9091Z" fill="#3E0D49"/>
<path d="M331.619 96.2841H324.403C324.366 95.839 324.209 95.4555 323.935 95.1335C323.66 94.8116 323.305 94.5653 322.869 94.3949C322.443 94.215 321.97 94.125 321.449 94.125C320.776 94.125 320.199 94.2481 319.716 94.4943C319.233 94.7405 318.996 95.0909 319.006 95.5455C318.996 95.8674 319.134 96.1657 319.418 96.4403C319.711 96.715 320.275 96.928 321.108 97.0795L325.54 97.875C327.775 98.2822 329.437 98.9688 330.526 99.9347C331.624 100.891 332.178 102.174 332.188 103.784C332.178 105.337 331.714 106.687 330.795 107.832C329.886 108.969 328.641 109.849 327.06 110.474C325.488 111.09 323.693 111.398 321.676 111.398C318.343 111.398 315.734 110.716 313.849 109.352C311.974 107.989 310.928 106.189 310.71 103.955H318.494C318.598 104.646 318.939 105.181 319.517 105.56C320.104 105.929 320.843 106.114 321.733 106.114C322.453 106.114 323.044 105.991 323.509 105.744C323.982 105.498 324.223 105.148 324.233 104.693C324.223 104.277 324.015 103.945 323.608 103.699C323.21 103.453 322.585 103.254 321.733 103.102L317.869 102.42C315.644 102.032 313.977 101.294 312.869 100.205C311.761 99.1155 311.212 97.714 311.222 96C311.212 94.4848 311.61 93.2017 312.415 92.1506C313.229 91.09 314.389 90.285 315.895 89.7358C317.41 89.1771 319.205 88.8977 321.278 88.8977C324.432 88.8977 326.918 89.5511 328.736 90.858C330.563 92.1648 331.525 93.9735 331.619 96.2841Z" fill="#3E0D49"/>
<path d="M344.283 81.9091L343.544 101.909H337.067L336.328 81.9091H344.283ZM340.305 111.455C339.207 111.455 338.265 111.071 337.479 110.304C336.702 109.527 336.319 108.585 336.328 107.477C336.319 106.398 336.702 105.474 337.479 104.707C338.265 103.94 339.207 103.557 340.305 103.557C341.347 103.557 342.266 103.94 343.061 104.707C343.866 105.474 344.273 106.398 344.283 107.477C344.273 108.216 344.079 108.888 343.7 109.494C343.331 110.091 342.848 110.569 342.251 110.929C341.655 111.279 341.006 111.455 340.305 111.455Z" fill="#3E0D49"/>
<path d="M410.5 125C380.401 125 356 149.401 356 179.5C356 209.599 380.401 234 410.5 234C440.599 234 465 209.599 465 179.5C465 149.401 440.599 125 410.5 125ZM410.5 224.917C385.418 224.917 365.083 204.582 365.083 179.5C365.083 154.418 385.418 134.083 410.5 134.083C435.582 134.083 455.917 154.418 455.917 179.5C455.917 204.582 435.582 224.917 410.5 224.917Z" fill="#3E0D49"/>
<path d="M428.667 170.417C433.685 170.417 437.75 166.352 437.75 161.333C437.75 156.315 433.685 152.25 428.667 152.25C423.648 152.25 419.583 156.315 419.583 161.333C419.583 166.352 423.648 170.417 428.667 170.417Z" fill="#3E0D49"/>
<path d="M392.333 170.417C397.352 170.417 401.417 166.352 401.417 161.333C401.417 156.315 397.352 152.25 392.333 152.25C387.315 152.25 383.25 156.315 383.25 161.333C383.25 166.352 387.315 170.417 392.333 170.417Z" fill="#3E0D49"/>
<path d="M437.75 179.5C435.242 179.5 433.208 181.533 433.208 184.042C433.208 195.985 422.443 206.75 410.5 206.75C398.557 206.75 387.792 195.985 387.792 184.042C387.792 181.533 385.758 179.5 383.25 179.5C380.742 179.5 378.708 181.533 378.708 184.042C378.708 201.002 393.54 215.833 410.5 215.833C427.46 215.833 442.292 201.001 442.292 184.042C442.292 181.533 440.258 179.5 437.75 179.5Z" fill="#3E0D49"/>
</svg>
