<svg width="603" height="436" viewBox="0 0 603 436" fill="none" xmlns="http://www.w3.org/2000/svg">
<path d="M0 0H603V436H0V0Z" fill="white"/>
<path d="M0 0H603V85H0V0Z" fill="#3E0D49"/>
<path d="M24 133H218V163H24V133Z" fill="#69EC12"/>
<path d="M348 244H419V274H348V244Z" fill="#69EC12"/>
<path d="M31 390H171V420H31V390Z" fill="#69EC12"/>
<path d="M33.2092 153.925C38.7286 153.685 44.358 152.585 49.6031 150.877C52.1496 150.048 55.9435 147.149 58.7458 147.304C62.1658 147.494 56.2404 153.832 61.0578 153.925C73.8986 154.172 87.5731 152.194 99.2576 146.936C101.807 145.789 103.957 146.659 106.299 147.83C116.297 152.829 132.054 145.096 142.291 143.048C147.109 142.085 147.401 145.974 151.539 147.725C159.032 150.895 169.564 149.196 177.601 149.196C191.963 149.196 206.326 149.196 220.688 149.196C231.708 149.196 242.465 152.033 253.581 152.033C268.58 152.033 283.08 152.33 297.928 149.669C312.005 147.146 325.829 145.084 339.648 141.629" stroke="#1E1E1E" stroke-width="3" stroke-linecap="round"/>
<path d="M33 191.404C49.0594 191.85 65.8229 194.345 80.7629 187.2C85.2823 185.039 83.5464 186.282 85.9648 188.566C87.7835 190.284 90.8936 190.063 93.1108 191.877C97.0818 195.126 101.319 196.355 106.352 197.026C115.657 198.267 124.968 198.024 134.411 198.024C139.741 198.024 145.133 195.837 150.332 194.767C156.942 193.406 164.431 194.241 171.139 194.241C183.338 194.241 194.244 189.804 206.081 187.831C208.227 187.473 212.115 186.98 214.121 188.093C217.632 190.044 223.865 188.324 227.625 187.831C232.485 187.193 237.649 187.621 242.547 187.621C256.708 187.621 270.06 186.885 284.057 184.205C289.658 183.133 294.207 181.946 299.926 181.946C303.163 181.946 306.113 182.02 309.174 181" stroke="#1E1E1E" stroke-width="3" stroke-linecap="round"/>
<path d="M33 269.391C37.3696 270.223 41.7231 273.774 45.7158 275.696C57.9056 281.566 70.0445 284.751 83.6003 284.471C91.3853 284.311 99.1862 283.246 106.983 283.578C111.941 283.789 116.666 285.383 121.695 285.47C127.121 285.563 132.557 285.47 137.984 285.47C154.302 285.47 170.835 286.361 187.06 284.314C202.775 282.331 218.068 278.849 233.93 278.849C240.737 278.849 247.636 279.184 254.422 278.639C265.825 277.723 276.206 273.23 287.262 271.388C294.463 270.188 300.837 273.76 307.965 272.912C322.11 271.228 334.999 264.463 348.634 260.774C357.776 258.3 367.734 258.884 377.061 259.723C382.619 260.222 388.219 259.542 393.77 259.986C400.079 260.49 403.85 265.234 410.794 264.452C428.294 262.48 446.185 260.072 463.812 260.931C467.868 261.129 471.618 262.555 475.687 262.718C482.423 262.987 482.971 264.28 488.35 268.235C494.961 273.096 505.867 278.147 514.307 278.796C516.705 278.981 522.405 279.783 524.606 278.429C526.78 277.091 528.935 275.9 531.436 275.066" stroke="#1E1E1E" stroke-width="3" stroke-linecap="round"/>
<path d="M33 236.624C51.1048 237.766 69.367 236.954 87.436 235.574C101.634 234.489 119.048 234.245 132.572 228.638C134.158 227.98 138.342 225.901 139.98 227.744C143.678 231.905 153.47 232.545 158.581 232.789C163.566 233.026 167.017 234.931 171.77 235.626C194.704 238.982 218.457 233.787 241.601 233.787C248.455 233.787 254.297 231.895 260.938 231.895" stroke="#1E1E1E" stroke-width="3" stroke-linecap="round"/>
<path d="M33 320.555C49.8256 315.314 69.3384 310.201 86.4902 314.775C98.0713 317.863 111.152 318.328 123.166 319.399C152.068 321.974 181.065 317.717 209.865 317.717" stroke="#1E1E1E" stroke-width="3" stroke-linecap="round"/>
<path d="M31 359.995C56.5097 361.209 82.1515 361.453 107.61 359.049C117.829 358.084 127.473 358.362 137.665 358.839C159.223 359.847 180.68 358.103 202.19 358.103C216.446 358.103 230.768 358.531 244.961 356.947C255.155 355.809 265.843 353.259 276.172 354.53C299.406 357.389 322.772 352.428 346.056 352.428C357.548 352.428 368.795 350.438 379.842 347.331C382.619 346.55 385.35 347.199 388.092 346.701C408.958 342.907 427.065 325 448.623 325C456.242 325 463.736 328.907 470.271 332.566C477.217 336.456 482.935 339.534 490.659 341.079" stroke="#1E1E1E" stroke-width="3" stroke-linecap="round"/>
<path d="M33 395.85C79.049 399.261 124.649 405.303 170.456 409.827C191.742 411.929 213.026 408.32 234.245 408.146C251.397 408.005 268.442 408.221 285.529 406.254C303.116 404.23 320.41 400.579 338.178 400.579C357.522 400.579 376.455 396.674 395.084 391.699C402.388 389.748 410.034 386.392 417.73 386.392C447.98 386.392 477.867 378.714 507.686 374.307C511.208 373.787 517.689 371.182 521.453 372.258C523.38 372.808 526.647 375.013 528.599 375.988" stroke="#1E1E1E" stroke-width="3" stroke-linecap="round"/>
<path d="M449.692 151.71C439.965 149.698 426.883 149.698 422.188 158.419C415.815 169.487 425.877 174.854 431.915 169.152C437.952 163.45 426.548 149.027 405.081 156.406" stroke="#45413C" stroke-miterlimit="10" stroke-linecap="round" stroke-linejoin="round"/>
<path d="M517.903 235.314C525.753 230.056 527.854 219.43 522.597 211.58C517.339 203.73 506.714 201.629 498.864 206.886C491.014 212.144 488.912 222.77 494.17 230.62C499.427 238.47 510.053 240.571 517.903 235.314Z" fill="#9F5AE5"/>
<path d="M524.154 215.104C523.483 215.775 522.813 216.11 522.142 216.781C518.452 219.129 514.092 220.471 510.067 220.471C509.061 225.838 506.042 230.869 501.011 234.558C500.34 235.229 499.333 235.565 498.327 235.9C496.65 234.558 494.973 233.217 493.631 231.204C489.606 225.167 489.942 217.788 493.631 212.085C494.973 210.408 496.315 208.731 498.327 207.39C500.675 205.713 503.358 204.706 506.042 204.706C512.079 204.035 518.452 206.719 522.142 212.085C523.148 212.756 523.819 213.763 524.154 215.104Z" fill="#803EC2"/>
<path d="M517.903 235.314C525.753 230.056 527.854 219.43 522.597 211.58C517.339 203.73 506.714 201.629 498.864 206.886C491.014 212.144 488.912 222.77 494.17 230.62C499.427 238.47 510.053 240.571 517.903 235.314Z" stroke="#45413C" stroke-miterlimit="10" stroke-linecap="round" stroke-linejoin="round"/>
<path d="M493.939 168.962C502.713 163.086 505.061 151.21 499.185 142.437C493.309 133.663 481.433 131.314 472.66 137.19C463.886 143.067 461.538 154.942 467.414 163.716C473.29 172.489 485.166 174.838 493.939 168.962Z" fill="#803EC2" stroke="#45413C" stroke-miterlimit="10" stroke-linecap="round" stroke-linejoin="round"/>
<path opacity="0.15" d="M481.556 245.292C505.823 245.292 525.496 242.739 525.496 239.59C525.496 236.44 505.823 233.887 481.556 233.887C457.289 233.887 437.617 236.44 437.617 239.59C437.617 242.739 457.289 245.292 481.556 245.292Z" fill="#45413C"/>
<path d="M465.449 188.064C474.222 182.188 476.57 170.313 470.695 161.54C464.819 152.767 452.944 150.418 444.171 156.294C435.397 162.169 433.049 174.045 438.924 182.818C444.8 191.591 456.675 193.94 465.449 188.064Z" fill="#9F5AE5"/>
<path d="M444.325 166.133C453.046 160.431 464.785 162.779 470.823 171.5C472.165 173.177 472.835 175.19 473.506 177.202C474.848 172.171 474.177 166.469 470.823 161.438C465.121 152.717 453.046 150.369 444.325 156.071C437.281 160.767 434.598 169.152 436.61 176.867C437.617 172.842 440.3 168.817 444.325 166.133Z" fill="#BF8DF2"/>
<path d="M465.449 188.064C474.222 182.188 476.57 170.313 470.695 161.54C464.819 152.767 452.944 150.418 444.171 156.294C435.397 162.169 433.049 174.045 438.924 182.818C444.8 191.591 456.675 193.94 465.449 188.064Z" stroke="#45413C" stroke-miterlimit="10" stroke-linecap="round" stroke-linejoin="round"/>
<path d="M462.683 214.982C471.456 209.106 473.805 197.231 467.929 188.457C462.054 179.684 450.178 177.336 441.405 183.211C432.632 189.087 430.283 200.962 436.159 209.736C442.035 218.509 453.91 220.857 462.683 214.982Z" fill="#9F5AE5"/>
<path d="M441.642 194.308C450.363 188.606 462.102 190.954 468.14 199.675C469.146 201.352 470.152 203.029 470.488 204.706C472.165 199.34 471.494 193.637 468.14 188.606C462.438 179.885 450.363 177.537 441.642 183.24C434.598 187.935 431.579 196.656 433.927 204.706C435.269 200.346 437.617 196.656 441.642 194.308Z" fill="#BF8DF2"/>
<path d="M462.683 214.982C471.456 209.106 473.805 197.231 467.929 188.457C462.054 179.684 450.178 177.336 441.405 183.211C432.632 189.087 430.283 200.962 436.159 209.736C442.035 218.509 453.91 220.857 462.683 214.982Z" stroke="#45413C" stroke-miterlimit="10" stroke-linecap="round" stroke-linejoin="round"/>
<path d="M515.708 177.299C524.482 171.423 526.831 159.547 520.955 150.774C515.079 142 503.203 139.651 494.429 145.527C485.656 151.403 483.307 163.279 489.183 172.053C495.059 180.826 506.935 183.175 515.708 177.299Z" fill="#9F5AE5"/>
<path d="M494.302 156.071C503.023 150.369 514.763 152.717 520.8 161.437C521.806 163.115 522.813 164.792 523.148 166.804C524.825 161.437 523.819 155.735 520.8 150.704C515.098 141.983 503.023 139.635 494.302 145.337C487.258 150.033 484.24 158.754 486.588 166.469C487.929 162.444 490.613 158.754 494.302 156.071Z" fill="#BF8DF2"/>
<path d="M515.708 177.299C524.482 171.423 526.831 159.547 520.955 150.774C515.079 142 503.203 139.651 494.429 145.527C485.656 151.403 483.307 163.279 489.183 172.053C495.059 180.826 506.935 183.175 515.708 177.299Z" stroke="#45413C" stroke-miterlimit="10" stroke-linecap="round" stroke-linejoin="round"/>
<path d="M519.359 206.875C528.132 200.999 530.481 189.123 524.605 180.35C518.729 171.576 506.853 169.227 498.08 175.103C489.306 180.979 486.957 192.855 492.833 201.629C498.71 210.402 510.585 212.751 519.359 206.875Z" fill="#9F5AE5"/>
<path d="M497.992 183.239C506.713 177.537 518.452 179.885 524.49 188.606C525.831 190.619 526.838 192.967 527.173 195.314C528.179 190.283 527.508 185.252 524.49 180.556C518.788 171.835 506.713 169.487 497.992 175.189C491.283 179.55 488.265 187.6 489.942 194.979C491.283 190.283 493.967 185.923 497.992 183.239Z" fill="#BF8DF2"/>
<path d="M519.359 206.875C528.132 200.999 530.481 189.123 524.605 180.35C518.729 171.576 506.853 169.227 498.08 175.103C489.306 180.979 486.957 192.855 492.833 201.629C498.71 210.402 510.585 212.751 519.359 206.875Z" stroke="#45413C" stroke-miterlimit="10" stroke-linecap="round" stroke-linejoin="round"/>
<path d="M491.572 230.244C500.345 224.368 502.694 212.493 496.818 203.72C490.942 194.947 479.067 192.598 470.294 198.474C461.521 204.349 459.172 216.225 465.048 224.998C470.923 233.771 482.799 236.12 491.572 230.244Z" fill="#9F5AE5"/>
<path d="M498.998 209.402C497.992 210.408 496.65 211.75 495.308 212.421C485.246 219.129 472.165 217.452 466.127 208.396C465.456 207.39 464.785 206.048 464.45 205.042C465.792 202.694 467.804 200.346 470.487 198.669C479.208 192.967 490.948 195.315 496.985 204.035C497.992 205.377 498.662 207.39 498.998 209.402Z" fill="#803EC2"/>
<path d="M491.572 230.244C500.345 224.368 502.694 212.493 496.818 203.72C490.942 194.947 479.067 192.598 470.294 198.474C461.521 204.349 459.172 216.225 465.048 224.998C470.923 233.771 482.799 236.12 491.572 230.244Z" stroke="#45413C" stroke-miterlimit="10" stroke-linecap="round" stroke-linejoin="round"/>
<path d="M477.867 165.798C477.867 165.798 472.165 153.387 455.058 141.983C444.996 135.275 435.604 133.262 430.908 132.927C429.231 132.592 427.554 133.598 426.883 135.275L424.871 139.971C423.865 142.319 425.542 145.002 428.225 145.337C433.592 145.673 441.977 147.015 450.363 152.046C468.81 163.115 473.842 173.177 473.842 173.177L477.867 165.798Z" fill="#6DD627"/>
<path d="M452.71 147.015C466.127 155.065 473.171 164.456 475.854 168.817L477.531 165.798C477.531 165.798 471.829 153.387 454.723 141.983C444.66 135.275 435.269 133.262 430.573 132.927C428.896 132.592 427.219 133.598 426.548 135.275L425.542 138.294C430.908 138.629 441.642 140.306 452.71 147.015Z" fill="#9CEB60"/>
<path d="M477.867 165.798C477.867 165.798 472.165 153.387 455.058 141.983C444.996 135.275 435.604 133.262 430.908 132.927C429.231 132.592 427.554 133.598 426.883 135.275L424.871 139.971C423.865 142.319 425.542 145.002 428.225 145.337C433.592 145.673 441.977 147.015 450.363 152.046C468.81 163.115 473.842 173.177 473.842 173.177L477.867 165.798Z" stroke="#45413C" stroke-miterlimit="10" stroke-linecap="round" stroke-linejoin="round"/>
<path d="M497.162 200.792C507.629 193.782 510.431 179.615 503.421 169.148C496.411 158.681 482.243 155.879 471.777 162.889C461.31 169.899 458.508 184.067 465.518 194.534C472.528 205 486.696 207.802 497.162 200.792Z" fill="#9F5AE5"/>
<path d="M471.829 176.196C482.227 169.152 496.65 171.835 503.694 182.569C505.035 184.581 506.042 186.594 506.713 188.606C508.725 182.233 507.719 175.19 503.694 169.152C496.65 158.754 482.563 155.735 471.829 162.779C463.108 168.481 459.754 178.879 462.773 188.271C464.115 183.91 467.133 179.215 471.829 176.196Z" fill="#BF8DF2"/>
<path d="M497.162 200.792C507.629 193.782 510.431 179.615 503.421 169.148C496.411 158.681 482.243 155.879 471.777 162.889C461.31 169.899 458.508 184.067 465.518 194.534C472.528 205 486.696 207.802 497.162 200.792Z" stroke="#45413C" stroke-miterlimit="10" stroke-linecap="round" stroke-linejoin="round"/>
<path d="M447.008 108.777C447.344 107.1 449.356 106.429 450.698 107.435L457.742 113.473C458.748 114.479 460.425 114.144 461.096 112.802L461.431 112.131C464.115 107.771 468.14 104.752 472.5 103.075L475.854 102.069C476.86 101.733 478.202 102.404 478.537 103.41L479.879 106.429C481.892 110.119 482.562 114.479 482.227 118.84V119.846C482.227 121.523 483.233 122.865 484.575 122.529L491.954 122.194C493.631 122.194 494.973 124.206 494.302 125.883L493.296 128.231C489.271 136.952 481.556 142.99 472.5 143.996L460.425 145.673L452.71 135.61C446.673 128.231 444.66 118.169 447.008 108.777Z" fill="#6DD627"/>
<path d="M447.008 116.492C447.344 114.815 449.356 114.144 450.698 115.15L457.742 121.187C458.748 122.194 460.425 121.858 461.096 120.517L461.431 119.846C464.115 115.485 467.804 112.467 472.5 110.79L475.854 109.783C476.861 109.448 478.202 110.119 478.538 111.125L479.879 114.144C481.556 118.169 482.227 122.194 481.892 126.554V127.56C481.892 129.237 482.898 130.579 484.24 130.244L491.619 129.908H491.954C492.29 129.237 492.625 128.902 492.625 128.231L493.631 125.883C494.302 124.206 493.296 122.194 491.283 122.194L483.904 122.529C482.563 122.529 481.221 121.187 481.556 119.846V118.84C482.563 114.479 481.892 110.119 480.215 106.429L478.873 103.41C478.202 102.404 477.196 101.733 476.19 102.069L472.836 103.075C468.475 104.417 464.45 107.771 461.767 112.131L461.431 112.802C460.761 114.144 459.083 114.144 458.077 113.473L451.033 107.435C449.692 106.429 447.679 107.1 447.344 108.777C446.338 112.467 446.338 116.492 446.673 120.181C446.338 118.84 446.673 117.833 447.008 116.492Z" fill="#9CEB60"/>
<path d="M447.008 108.777C447.344 107.1 449.356 106.429 450.698 107.435L457.742 113.473C458.748 114.479 460.425 114.144 461.096 112.802L461.431 112.131C464.115 107.771 468.14 104.752 472.5 103.075L475.854 102.069C476.86 101.733 478.202 102.404 478.537 103.41L479.879 106.429C481.892 110.119 482.562 114.479 482.227 118.84V119.846C482.227 121.523 483.233 122.865 484.575 122.529L491.954 122.194C493.631 122.194 494.973 124.206 494.302 125.883L493.296 128.231C489.271 136.952 481.556 142.99 472.5 143.996L460.425 145.673L452.71 135.61C446.673 128.231 444.66 118.169 447.008 108.777Z" stroke="#45413C" stroke-miterlimit="10" stroke-linecap="round" stroke-linejoin="round"/>
<path d="M460.09 145.673C459.754 138.965 463.108 129.237 469.817 120.517" stroke="#45413C" stroke-miterlimit="10" stroke-linecap="round" stroke-linejoin="round"/>
</svg>
