<svg width="1443" height="625" viewBox="0 0 1443 625" fill="none" xmlns="http://www.w3.org/2000/svg">
<path d="M0 0H1443V625H0V0Z" fill="white"/>
<path d="M77 65H218V206H77V65Z" fill="#19E6DB"/>
<path d="M77 242H218V384H77V242Z" fill="#468FB4"/>
<path d="M77 420H218V561H77V420Z" fill="#19E6DB"/>
<path d="M256 65H397V206H256V65Z" fill="#468FB4"/>
<path d="M256 242H397V384H256V242Z" fill="#19E6DB"/>
<path d="M256 420H397V561H256V420Z" fill="#468FB4"/>
<path d="M434 65H575V206H434V65Z" fill="#19E6DB"/>
<path d="M434 242H575V384H434V242Z" fill="#468FB4"/>
<path d="M434 420H575V561H434V420Z" fill="#19E6DB"/>
<path d="M654 78H795V219H654V78Z" fill="#19E6DB"/>
<path d="M739 278H880V420H739V278Z" fill="#468FB4"/>
<path d="M847 442H988V583H847V442Z" fill="#19E6DB"/>
<path d="M988 65H1129V206H988V65Z" fill="#468FB4"/>
<path d="M918 246H1059V388H918V246Z" fill="#19E6DB"/>
<path d="M994 442H1135V583H994V442Z" fill="#19E6DB"/>
<path d="M1271 69H1412V210H1271V69Z" fill="#468FB4"/>
<path d="M1130 234H1271V376H1130V234Z" fill="#468FB4"/>
<path d="M1239 404H1380V545H1239V404Z" fill="#19E6DB"/>
<path d="M0 0H1443V625H0V0Z" fill="#3E0D49" fill-opacity="0.48"/>
</svg>
