<svg width="423" height="290" viewBox="0 0 423 290" fill="none" xmlns="http://www.w3.org/2000/svg">
<path d="M0 0H423V290H0V0Z" fill="#E2D2F3"/>
<path d="M29 182H110V265H29V182Z" fill="#935992"/>
<path d="M29 62H110V145H29V62Z" fill="#935992"/>
<path d="M327 182H408V265H327V182Z" fill="#935992"/>
<path d="M327 62H408V145H327V62Z" fill="#935992"/>
<path d="M327 62H408V81H327V62Z" fill="#A01351"/>
<path d="M327 182H408V201H327V182Z" fill="#A01351"/>
<path d="M29 182H110V201H29V182Z" fill="#A01351"/>
<path d="M29 62H110V81H29V62Z" fill="#A01351"/>
<path d="M0 0H423V44H0V0Z" fill="#3E0D49"/>
<path d="M133.673 20.25C133.514 19.697 133.291 19.2083 133.003 18.7841C132.715 18.3523 132.363 17.9886 131.946 17.6932C131.537 17.3902 131.067 17.1591 130.537 17C130.014 16.8409 129.435 16.7614 128.798 16.7614C127.609 16.7614 126.563 17.0568 125.662 17.6477C124.768 18.2386 124.071 19.0985 123.571 20.2273C123.071 21.3485 122.821 22.7197 122.821 24.3409C122.821 25.9621 123.067 27.3409 123.56 28.4773C124.052 29.6136 124.749 30.4811 125.651 31.0795C126.552 31.6705 127.616 31.9659 128.844 31.9659C129.957 31.9659 130.908 31.7689 131.696 31.375C132.491 30.9735 133.098 30.4091 133.514 29.6818C133.938 28.9545 134.151 28.0947 134.151 27.1023L135.151 27.25H129.151V23.5455H138.889V26.4773C138.889 28.5227 138.457 30.2803 137.594 31.75C136.73 33.2121 135.541 34.3409 134.026 35.1364C132.51 35.9242 130.776 36.3182 128.821 36.3182C126.639 36.3182 124.723 35.8371 123.071 34.875C121.42 33.9053 120.132 32.5303 119.207 30.75C118.291 28.9621 117.832 26.8409 117.832 24.3864C117.832 22.5 118.105 20.8182 118.651 19.3409C119.204 17.8561 119.976 16.5985 120.969 15.5682C121.961 14.5379 123.116 13.7538 124.435 13.2159C125.753 12.678 127.181 12.4091 128.719 12.4091C130.037 12.4091 131.264 12.6023 132.401 12.9886C133.537 13.3674 134.545 13.9053 135.423 14.6023C136.31 15.2992 137.033 16.1288 137.594 17.0909C138.154 18.0455 138.514 19.0985 138.673 20.25H133.673Z" fill="white"/>
<path d="M150.449 36.3409C148.653 36.3409 147.108 35.9773 145.812 35.25C144.525 34.5152 143.532 33.4773 142.835 32.1364C142.138 30.7879 141.79 29.1932 141.79 27.3523C141.79 25.5568 142.138 23.9811 142.835 22.625C143.532 21.2689 144.513 20.2121 145.778 19.4545C147.051 18.697 148.544 18.3182 150.256 18.3182C151.407 18.3182 152.479 18.5038 153.472 18.875C154.472 19.2386 155.343 19.7879 156.085 20.5227C156.835 21.2576 157.419 22.1818 157.835 23.2955C158.252 24.4015 158.46 25.697 158.46 27.1818V28.5114H143.722V25.5114H153.903C153.903 24.8144 153.752 24.197 153.449 23.6591C153.146 23.1212 152.725 22.7008 152.188 22.3977C151.657 22.0871 151.04 21.9318 150.335 21.9318C149.6 21.9318 148.949 22.1023 148.381 22.4432C147.82 22.7765 147.381 23.2273 147.062 23.7955C146.744 24.3561 146.581 24.9811 146.574 25.6705V28.5227C146.574 29.3864 146.733 30.1326 147.051 30.7614C147.377 31.3902 147.835 31.875 148.426 32.2159C149.017 32.5568 149.718 32.7273 150.528 32.7273C151.066 32.7273 151.559 32.6515 152.006 32.5C152.453 32.3485 152.835 32.1212 153.153 31.8182C153.472 31.5152 153.714 31.1439 153.881 30.7045L158.358 31C158.131 32.0758 157.665 33.0151 156.96 33.8182C156.263 34.6136 155.362 35.2349 154.256 35.6818C153.157 36.1212 151.888 36.3409 150.449 36.3409Z" fill="white"/>
<path d="M166.46 25.9091V36H161.619V18.5455H166.233V21.625H166.438C166.824 20.6098 167.472 19.8068 168.381 19.2159C169.29 18.6174 170.392 18.3182 171.688 18.3182C172.9 18.3182 173.956 18.5833 174.858 19.1136C175.759 19.6439 176.46 20.4015 176.96 21.3864C177.46 22.3636 177.71 23.5303 177.71 24.8864V36H172.869V25.75C172.877 24.6818 172.604 23.8485 172.051 23.25C171.498 22.6439 170.737 22.3409 169.767 22.3409C169.116 22.3409 168.54 22.4811 168.04 22.7614C167.547 23.0417 167.161 23.4508 166.881 23.9886C166.608 24.5189 166.468 25.1591 166.46 25.9091Z" fill="white"/>
<path d="M189.48 36.3409C187.685 36.3409 186.139 35.9773 184.844 35.25C183.556 34.5152 182.563 33.4773 181.866 32.1364C181.169 30.7879 180.821 29.1932 180.821 27.3523C180.821 25.5568 181.169 23.9811 181.866 22.625C182.563 21.2689 183.545 20.2121 184.81 19.4545C186.082 18.697 187.575 18.3182 189.287 18.3182C190.438 18.3182 191.51 18.5038 192.503 18.875C193.503 19.2386 194.374 19.7879 195.116 20.5227C195.866 21.2576 196.45 22.1818 196.866 23.2955C197.283 24.4015 197.491 25.697 197.491 27.1818V28.5114H182.753V25.5114H192.935C192.935 24.8144 192.783 24.197 192.48 23.6591C192.177 23.1212 191.757 22.7008 191.219 22.3977C190.688 22.0871 190.071 21.9318 189.366 21.9318C188.632 21.9318 187.98 22.1023 187.412 22.4432C186.851 22.7765 186.412 23.2273 186.094 23.7955C185.776 24.3561 185.613 24.9811 185.605 25.6705V28.5227C185.605 29.3864 185.764 30.1326 186.082 30.7614C186.408 31.3902 186.866 31.875 187.457 32.2159C188.048 32.5568 188.749 32.7273 189.56 32.7273C190.098 32.7273 190.59 32.6515 191.037 32.5C191.484 32.3485 191.866 32.1212 192.185 31.8182C192.503 31.5152 192.745 31.1439 192.912 30.7045L197.389 31C197.162 32.0758 196.696 33.0151 195.991 33.8182C195.295 34.6136 194.393 35.2349 193.287 35.6818C192.188 36.1212 190.92 36.3409 189.48 36.3409Z" fill="white"/>
<path d="M200.651 36V18.5455H205.344V21.5909H205.526C205.844 20.5076 206.378 19.6894 207.128 19.1364C207.878 18.5758 208.741 18.2955 209.719 18.2955C209.961 18.2955 210.223 18.3106 210.503 18.3409C210.783 18.3712 211.029 18.4129 211.241 18.4659V22.7614C211.014 22.6932 210.7 22.6326 210.298 22.5795C209.897 22.5265 209.529 22.5 209.196 22.5C208.484 22.5 207.848 22.6553 207.287 22.9659C206.734 23.2689 206.295 23.6932 205.969 24.2386C205.651 24.7841 205.491 25.4129 205.491 26.125V36H200.651Z" fill="white"/>
<path d="M213.744 36V18.5455H218.585V36H213.744ZM216.176 16.2955C215.456 16.2955 214.839 16.0568 214.324 15.5795C213.816 15.0947 213.562 14.5152 213.562 13.8409C213.562 13.1742 213.816 12.6023 214.324 12.125C214.839 11.6402 215.456 11.3977 216.176 11.3977C216.896 11.3977 217.509 11.6402 218.017 12.125C218.532 12.6023 218.79 13.1742 218.79 13.8409C218.79 14.5152 218.532 15.0947 218.017 15.5795C217.509 16.0568 216.896 16.2955 216.176 16.2955Z" fill="white"/>
<path d="M230.349 36.3409C228.562 36.3409 227.024 35.9621 225.736 35.2045C224.455 34.4394 223.471 33.3788 222.781 32.0227C222.099 30.6667 221.759 29.1061 221.759 27.3409C221.759 25.553 222.103 23.9848 222.793 22.6364C223.49 21.2803 224.478 20.2235 225.759 19.4659C227.039 18.7008 228.562 18.3182 230.327 18.3182C231.849 18.3182 233.183 18.5947 234.327 19.1477C235.471 19.7008 236.376 20.4773 237.043 21.4773C237.709 22.4773 238.077 23.6515 238.145 25H233.577C233.448 24.1288 233.107 23.428 232.554 22.8977C232.009 22.3598 231.293 22.0909 230.406 22.0909C229.656 22.0909 229.001 22.2955 228.44 22.7045C227.887 23.1061 227.455 23.6932 227.145 24.4659C226.834 25.2386 226.679 26.1742 226.679 27.2727C226.679 28.3864 226.831 29.3333 227.134 30.1136C227.444 30.8939 227.88 31.4886 228.44 31.8977C229.001 32.3068 229.656 32.5114 230.406 32.5114C230.959 32.5114 231.455 32.3977 231.895 32.1705C232.342 31.9432 232.709 31.6136 232.997 31.1818C233.293 30.7424 233.486 30.2159 233.577 29.6023H238.145C238.069 30.9356 237.706 32.1098 237.054 33.125C236.41 34.1326 235.52 34.9205 234.384 35.4886C233.247 36.0568 231.902 36.3409 230.349 36.3409Z" fill="white"/>
<path d="M261.366 19.4205C261.276 18.5038 260.885 17.7917 260.196 17.2841C259.507 16.7765 258.571 16.5227 257.389 16.5227C256.586 16.5227 255.908 16.6364 255.355 16.8636C254.802 17.0833 254.378 17.3902 254.082 17.7841C253.795 18.178 253.651 18.625 253.651 19.125C253.635 19.5417 253.723 19.9053 253.912 20.2159C254.109 20.5265 254.378 20.7955 254.719 21.0227C255.06 21.2424 255.454 21.4356 255.901 21.6023C256.348 21.7614 256.825 21.8977 257.332 22.0114L259.423 22.5114C260.438 22.7386 261.37 23.0417 262.219 23.4205C263.067 23.7992 263.802 24.2652 264.423 24.8182C265.045 25.3712 265.526 26.0227 265.866 26.7727C266.215 27.5227 266.393 28.3826 266.401 29.3523C266.393 30.7765 266.029 32.0114 265.31 33.0568C264.598 34.0947 263.567 34.9015 262.219 35.4773C260.878 36.0455 259.26 36.3295 257.366 36.3295C255.488 36.3295 253.851 36.0417 252.457 35.4659C251.071 34.8902 249.988 34.0379 249.207 32.9091C248.435 31.7727 248.029 30.3674 247.991 28.6932H252.753C252.806 29.4735 253.029 30.125 253.423 30.6477C253.825 31.1629 254.359 31.553 255.026 31.8182C255.7 32.0758 256.461 32.2045 257.31 32.2045C258.143 32.2045 258.866 32.0833 259.48 31.8409C260.101 31.5985 260.582 31.2614 260.923 30.8295C261.264 30.3977 261.435 29.9015 261.435 29.3409C261.435 28.8182 261.279 28.3788 260.969 28.0227C260.666 27.6667 260.219 27.3636 259.628 27.1136C259.044 26.8636 258.329 26.6364 257.48 26.4318L254.946 25.7955C252.984 25.3182 251.435 24.572 250.298 23.5568C249.162 22.5417 248.598 21.1742 248.605 19.4545C248.598 18.0455 248.973 16.8144 249.73 15.7614C250.495 14.7083 251.545 13.8864 252.878 13.2955C254.211 12.7045 255.726 12.4091 257.423 12.4091C259.151 12.4091 260.658 12.7045 261.946 13.2955C263.241 13.8864 264.249 14.7083 264.969 15.7614C265.688 16.8144 266.06 18.0341 266.082 19.4205H261.366Z" fill="white"/>
<path d="M269.619 36V18.5455H274.46V36H269.619ZM272.051 16.2955C271.331 16.2955 270.714 16.0568 270.199 15.5795C269.691 15.0947 269.438 14.5152 269.438 13.8409C269.438 13.1742 269.691 12.6023 270.199 12.125C270.714 11.6402 271.331 11.3977 272.051 11.3977C272.771 11.3977 273.384 11.6402 273.892 12.125C274.407 12.6023 274.665 13.1742 274.665 13.8409C274.665 14.5152 274.407 15.0947 273.892 15.5795C273.384 16.0568 272.771 16.2955 272.051 16.2955Z" fill="white"/>
<path d="M287.622 18.5455V22.1818H277.111V18.5455H287.622ZM279.497 14.3636H284.338V30.6364C284.338 31.0833 284.406 31.4318 284.543 31.6818C284.679 31.9242 284.868 32.0947 285.111 32.1932C285.361 32.2917 285.649 32.3409 285.974 32.3409C286.202 32.3409 286.429 32.322 286.656 32.2841C286.884 32.2386 287.058 32.2045 287.179 32.1818L287.94 35.7841C287.698 35.8598 287.357 35.947 286.918 36.0455C286.478 36.1515 285.944 36.2159 285.315 36.2386C284.149 36.2841 283.126 36.1288 282.247 35.7727C281.376 35.4167 280.698 34.8636 280.213 34.1136C279.728 33.3636 279.49 32.4167 279.497 31.2727V14.3636Z" fill="white"/>
<path d="M298.543 36.3409C296.747 36.3409 295.202 35.9773 293.906 35.25C292.618 34.5152 291.626 33.4773 290.929 32.1364C290.232 30.7879 289.884 29.1932 289.884 27.3523C289.884 25.5568 290.232 23.9811 290.929 22.625C291.626 21.2689 292.607 20.2121 293.872 19.4545C295.145 18.697 296.637 18.3182 298.349 18.3182C299.501 18.3182 300.573 18.5038 301.565 18.875C302.565 19.2386 303.437 19.7879 304.179 20.5227C304.929 21.2576 305.512 22.1818 305.929 23.2955C306.346 24.4015 306.554 25.697 306.554 27.1818V28.5114H291.815V25.5114H301.997C301.997 24.8144 301.846 24.197 301.543 23.6591C301.24 23.1212 300.819 22.7008 300.281 22.3977C299.751 22.0871 299.134 21.9318 298.429 21.9318C297.694 21.9318 297.043 22.1023 296.474 22.4432C295.914 22.7765 295.474 23.2273 295.156 23.7955C294.838 24.3561 294.675 24.9811 294.668 25.6705V28.5227C294.668 29.3864 294.827 30.1326 295.145 30.7614C295.471 31.3902 295.929 31.875 296.52 32.2159C297.111 32.5568 297.812 32.7273 298.622 32.7273C299.16 32.7273 299.652 32.6515 300.099 32.5C300.546 32.3485 300.929 32.1212 301.247 31.8182C301.565 31.5152 301.808 31.1439 301.974 30.7045L306.452 31C306.224 32.0758 305.759 33.0151 305.054 33.8182C304.357 34.6136 303.455 35.2349 302.349 35.6818C301.251 36.1212 299.982 36.3409 298.543 36.3409Z" fill="white"/>
</svg>
