<svg width="420" height="624" viewBox="0 0 420 624" fill="none" xmlns="http://www.w3.org/2000/svg">
<path d="M0 0H420V624H0V0Z" fill="white"/>
<path d="M0 0H420V69H0V0Z" fill="#16581D"/>
<path d="M283 292H397V323H283V292Z" fill="#4BA70D"/>
<path d="M23 461H397V499H23V461Z" fill="#4BA70D"/>
<path d="M283 336H397V418H283V336Z" fill="#ADE8E4"/>
<path d="M197 119H397V245H197V119Z" fill="#D6E3F8"/>
<path d="M23 292H223V418H23V292Z" fill="#D6E3F8"/>
<path d="M23 512H397V576H23V512Z" fill="#D6E3F8"/>
<path d="M23 119H137V150H23V119Z" fill="#4BA70D"/>
<path d="M23 163H137V245H23V163Z" fill="#ADE8E4"/>
</svg>
