<svg width="476" height="250" viewBox="0 0 476 250" fill="none" xmlns="http://www.w3.org/2000/svg">
<path d="M0 250H476V0H0V250Z" fill="#CEF56B"/>
<path d="M16.875 67V37.9091H29.4318C31.5909 37.9091 33.4801 38.3352 35.0994 39.1875C36.7188 40.0398 37.9782 41.2377 38.8778 42.7812C39.7775 44.3248 40.2273 46.1288 40.2273 48.1932C40.2273 50.2765 39.7633 52.0805 38.8352 53.6051C37.9167 55.1297 36.6241 56.304 34.9574 57.1278C33.3002 57.9517 31.3636 58.3636 29.1477 58.3636H21.6477V52.2273H27.5568C28.4848 52.2273 29.2756 52.0663 29.929 51.7443C30.5919 51.4129 31.0985 50.9441 31.4489 50.3381C31.8087 49.732 31.9886 49.017 31.9886 48.1932C31.9886 47.3598 31.8087 46.6496 31.4489 46.0625C31.0985 45.4659 30.5919 45.0114 29.929 44.6989C29.2756 44.3769 28.4848 44.2159 27.5568 44.2159H24.7727V67H16.875Z" fill="#D6E3F8"/>
<path d="M43.2386 67V45.1818H50.8523V49.3295H51.0795C51.4773 47.7955 52.107 46.6733 52.9688 45.9631C53.84 45.2528 54.858 44.8977 56.0227 44.8977C56.3636 44.8977 56.6998 44.9261 57.0312 44.983C57.3722 45.0303 57.6989 45.1013 58.0114 45.196V51.8864C57.6231 51.7538 57.1449 51.6544 56.5767 51.5881C56.0085 51.5218 55.5208 51.4886 55.1136 51.4886C54.3466 51.4886 53.6553 51.6638 53.0398 52.0142C52.4337 52.3551 51.9555 52.8381 51.6051 53.4631C51.2547 54.0786 51.0795 54.803 51.0795 55.6364V67H43.2386Z" fill="#D6E3F8"/>
<path d="M69.8438 67.3977C67.4763 67.3977 65.4498 66.929 63.7642 65.9915C62.0786 65.0445 60.786 63.7282 59.8864 62.0426C58.9867 60.3475 58.5369 58.3826 58.5369 56.1477C58.5369 53.9129 58.9867 51.9526 59.8864 50.267C60.786 48.572 62.0786 47.2557 63.7642 46.3182C65.4498 45.3712 67.4763 44.8977 69.8438 44.8977C72.2112 44.8977 74.2377 45.3712 75.9233 46.3182C77.6089 47.2557 78.9015 48.572 79.8011 50.267C80.7008 51.9526 81.1506 53.9129 81.1506 56.1477C81.1506 58.3826 80.7008 60.3475 79.8011 62.0426C78.9015 63.7282 77.6089 65.0445 75.9233 65.9915C74.2377 66.929 72.2112 67.3977 69.8438 67.3977ZM69.9006 61.6023C70.5634 61.6023 71.1364 61.3797 71.6193 60.9347C72.1023 60.4896 72.4763 59.8551 72.7415 59.0312C73.0066 58.2074 73.1392 57.2273 73.1392 56.0909C73.1392 54.9451 73.0066 53.965 72.7415 53.1506C72.4763 52.3267 72.1023 51.6922 71.6193 51.2472C71.1364 50.8021 70.5634 50.5795 69.9006 50.5795C69.1998 50.5795 68.5985 50.8021 68.0966 51.2472C67.5947 51.6922 67.2112 52.3267 66.946 53.1506C66.6809 53.965 66.5483 54.9451 66.5483 56.0909C66.5483 57.2273 66.6809 58.2074 66.946 59.0312C67.2112 59.8551 67.5947 60.4896 68.0966 60.9347C68.5985 61.3797 69.1998 61.6023 69.9006 61.6023Z" fill="#D6E3F8"/>
<path d="M84.2188 67V37.9091H92.0597V48.9886H92.1733C92.4574 48.25 92.8741 47.5729 93.4233 46.9574C93.9725 46.3324 94.6544 45.8352 95.4688 45.4659C96.2831 45.0871 97.2301 44.8977 98.3097 44.8977C99.7491 44.8977 101.117 45.2812 102.415 46.0483C103.722 46.8153 104.782 48.0227 105.597 49.6705C106.42 51.3182 106.832 53.4583 106.832 56.0909C106.832 58.6098 106.439 60.6979 105.653 62.3551C104.877 64.0123 103.835 65.2481 102.528 66.0625C101.231 66.8769 99.8059 67.2841 98.2528 67.2841C97.2301 67.2841 96.3163 67.1184 95.5114 66.7869C94.7159 66.446 94.0341 65.9867 93.4659 65.4091C92.9072 64.822 92.4763 64.1591 92.1733 63.4205H92.0028V67H84.2188ZM91.8892 56.0909C91.8892 57.1515 92.0265 58.0701 92.3011 58.8466C92.5852 59.6136 92.9829 60.2102 93.4943 60.6364C94.0152 61.053 94.6354 61.2614 95.3551 61.2614C96.0748 61.2614 96.6856 61.0578 97.1875 60.6506C97.6989 60.2339 98.0871 59.642 98.3523 58.875C98.6269 58.0985 98.7642 57.1705 98.7642 56.0909C98.7642 55.0114 98.6269 54.0881 98.3523 53.321C98.0871 52.5445 97.6989 51.9526 97.1875 51.5455C96.6856 51.1288 96.0748 50.9205 95.3551 50.9205C94.6354 50.9205 94.0152 51.1288 93.4943 51.5455C92.9829 51.9526 92.5852 52.5445 92.3011 53.321C92.0265 54.0881 91.8892 55.0114 91.8892 56.0909Z" fill="#D6E3F8"/>
<path d="M116.193 67.3409C114.801 67.3409 113.57 67.1136 112.5 66.6591C111.439 66.1951 110.606 65.4943 110 64.5568C109.394 63.6193 109.091 62.4261 109.091 60.9773C109.091 59.7841 109.295 58.7661 109.702 57.9233C110.109 57.071 110.677 56.375 111.406 55.8352C112.135 55.2955 112.983 54.8835 113.949 54.5994C114.924 54.3153 115.975 54.1307 117.102 54.0455C118.324 53.9508 119.304 53.8371 120.043 53.7045C120.791 53.5625 121.33 53.3684 121.662 53.1222C121.993 52.8665 122.159 52.5303 122.159 52.1136V52.0568C122.159 51.4886 121.941 51.053 121.506 50.75C121.07 50.447 120.511 50.2955 119.83 50.2955C119.081 50.2955 118.471 50.4612 117.997 50.7926C117.533 51.1146 117.254 51.6117 117.159 52.2841H109.943C110.038 50.9583 110.459 49.7367 111.207 48.6193C111.965 47.4924 113.068 46.5928 114.517 45.9205C115.966 45.2386 117.775 44.8977 119.943 44.8977C121.506 44.8977 122.907 45.0824 124.148 45.4517C125.388 45.8116 126.444 46.3182 127.315 46.9716C128.187 47.6155 128.849 48.3731 129.304 49.2443C129.768 50.1061 130 51.0436 130 52.0568V67H122.67V63.9318H122.5C122.064 64.7462 121.534 65.4044 120.909 65.9062C120.294 66.4081 119.588 66.7727 118.793 67C118.007 67.2273 117.14 67.3409 116.193 67.3409ZM118.75 62.3977C119.347 62.3977 119.905 62.2746 120.426 62.0284C120.956 61.7822 121.387 61.4271 121.719 60.9631C122.05 60.4991 122.216 59.9356 122.216 59.2727V57.4545C122.008 57.5398 121.785 57.6203 121.548 57.696C121.321 57.7718 121.075 57.8428 120.81 57.9091C120.554 57.9754 120.279 58.0369 119.986 58.0938C119.702 58.1506 119.403 58.2027 119.091 58.25C118.485 58.3447 117.988 58.5009 117.599 58.7188C117.221 58.9271 116.937 59.1875 116.747 59.5C116.567 59.803 116.477 60.1439 116.477 60.5227C116.477 61.1288 116.69 61.5928 117.116 61.9148C117.543 62.2367 118.087 62.3977 118.75 62.3977Z" fill="#D6E3F8"/>
<path d="M133.633 67V37.9091H141.474V48.9886H141.587C141.871 48.25 142.288 47.5729 142.837 46.9574C143.387 46.3324 144.068 45.8352 144.883 45.4659C145.697 45.0871 146.644 44.8977 147.724 44.8977C149.163 44.8977 150.531 45.2812 151.829 46.0483C153.136 46.8153 154.196 48.0227 155.011 49.6705C155.835 51.3182 156.246 53.4583 156.246 56.0909C156.246 58.6098 155.853 60.6979 155.067 62.3551C154.291 64.0123 153.249 65.2481 151.942 66.0625C150.645 66.8769 149.22 67.2841 147.667 67.2841C146.644 67.2841 145.73 67.1184 144.925 66.7869C144.13 66.446 143.448 65.9867 142.88 65.4091C142.321 64.822 141.89 64.1591 141.587 63.4205H141.417V67H133.633ZM141.303 56.0909C141.303 57.1515 141.441 58.0701 141.715 58.8466C141.999 59.6136 142.397 60.2102 142.908 60.6364C143.429 61.053 144.049 61.2614 144.769 61.2614C145.489 61.2614 146.1 61.0578 146.602 60.6506C147.113 60.2339 147.501 59.642 147.766 58.875C148.041 58.0985 148.178 57.1705 148.178 56.0909C148.178 55.0114 148.041 54.0881 147.766 53.321C147.501 52.5445 147.113 51.9526 146.602 51.5455C146.1 51.1288 145.489 50.9205 144.769 50.9205C144.049 50.9205 143.429 51.1288 142.908 51.5455C142.397 51.9526 141.999 52.5445 141.715 53.321C141.441 54.0881 141.303 55.0114 141.303 56.0909Z" fill="#D6E3F8"/>
<path d="M167.369 37.9091V67H159.528V37.9091H167.369Z" fill="#D6E3F8"/>
<path d="M176.136 75.1818C175.237 75.1818 174.38 75.1108 173.565 74.9688C172.751 74.8362 172.036 74.6515 171.42 74.4148L173.125 68.8466C173.769 69.0739 174.356 69.2206 174.886 69.2869C175.426 69.3532 175.885 69.3153 176.264 69.1733C176.652 69.0312 176.932 68.7614 177.102 68.3636L177.273 67.9659L169.602 45.1818H177.784L181.307 60.2955H181.534L185.114 45.1818H193.352L185.398 68.8182C185 70.0208 184.422 71.1004 183.665 72.0568C182.917 73.0227 181.932 73.785 180.71 74.3438C179.489 74.9025 177.964 75.1818 176.136 75.1818Z" fill="#D6E3F8"/>
<path d="M211.392 54.7273V67H203.551V45.1818H210.994V49.3295H211.222C211.695 47.947 212.528 46.8627 213.722 46.0767C214.924 45.2907 216.326 44.8977 217.926 44.8977C219.47 44.8977 220.81 45.2528 221.946 45.9631C223.092 46.6638 223.977 47.6297 224.602 48.8608C225.237 50.0919 225.549 51.4981 225.54 53.0795V67H217.699V54.7273C217.708 53.6477 217.434 52.8002 216.875 52.1847C216.326 51.5691 215.559 51.2614 214.574 51.2614C213.93 51.2614 213.366 51.4034 212.884 51.6875C212.41 51.9621 212.045 52.3598 211.79 52.8807C211.534 53.392 211.402 54.0076 211.392 54.7273Z" fill="#D6E3F8"/>
<path d="M239.922 67.3977C237.554 67.3977 235.528 66.929 233.842 65.9915C232.157 65.0445 230.864 63.7282 229.964 62.0426C229.065 60.3475 228.615 58.3826 228.615 56.1477C228.615 53.9129 229.065 51.9526 229.964 50.267C230.864 48.572 232.157 47.2557 233.842 46.3182C235.528 45.3712 237.554 44.8977 239.922 44.8977C242.289 44.8977 244.316 45.3712 246.001 46.3182C247.687 47.2557 248.98 48.572 249.879 50.267C250.779 51.9526 251.229 53.9129 251.229 56.1477C251.229 58.3826 250.779 60.3475 249.879 62.0426C248.98 63.7282 247.687 65.0445 246.001 65.9915C244.316 66.929 242.289 67.3977 239.922 67.3977ZM239.979 61.6023C240.642 61.6023 241.214 61.3797 241.697 60.9347C242.18 60.4896 242.554 59.8551 242.82 59.0312C243.085 58.2074 243.217 57.2273 243.217 56.0909C243.217 54.9451 243.085 53.965 242.82 53.1506C242.554 52.3267 242.18 51.6922 241.697 51.2472C241.214 50.8021 240.642 50.5795 239.979 50.5795C239.278 50.5795 238.677 50.8021 238.175 51.2472C237.673 51.6922 237.289 52.3267 237.024 53.1506C236.759 53.965 236.626 54.9451 236.626 56.0909C236.626 57.2273 236.759 58.2074 237.024 59.0312C237.289 59.8551 237.673 60.4896 238.175 60.9347C238.677 61.3797 239.278 61.6023 239.979 61.6023Z" fill="#D6E3F8"/>
<path d="M267.422 45.1818V50.8636H253.047V45.1818H267.422ZM255.831 39.9545H263.672V59.983C263.672 60.286 263.724 60.5417 263.828 60.75C263.932 60.9489 264.093 61.1004 264.311 61.2045C264.529 61.2992 264.808 61.3466 265.149 61.3466C265.386 61.3466 265.661 61.3182 265.973 61.2614C266.295 61.2045 266.532 61.1572 266.683 61.1193L267.82 66.6307C267.469 66.7348 266.967 66.8627 266.314 67.0142C265.67 67.1657 264.903 67.2652 264.013 67.3125C262.214 67.4072 260.703 67.2225 259.482 66.7585C258.26 66.285 257.341 65.5417 256.726 64.5284C256.11 63.5152 255.812 62.2462 255.831 60.7216V39.9545Z" fill="#D6E3F8"/>
<path d="M30 93.1818V98.8636H15.625V93.1818H30ZM18.4091 87.9545H26.25V107.983C26.25 108.286 26.3021 108.542 26.4062 108.75C26.5104 108.949 26.6714 109.1 26.8892 109.205C27.107 109.299 27.3864 109.347 27.7273 109.347C27.964 109.347 28.2386 109.318 28.5511 109.261C28.8731 109.205 29.1098 109.157 29.2614 109.119L30.3977 114.631C30.0473 114.735 29.5455 114.863 28.892 115.014C28.2481 115.166 27.4811 115.265 26.5909 115.312C24.7917 115.407 23.2812 115.223 22.0597 114.759C20.8381 114.285 19.9195 113.542 19.304 112.528C18.6884 111.515 18.3902 110.246 18.4091 108.722V87.9545Z" fill="#D6E3F8"/>
<path d="M41.5092 102.727V115H33.6683V85.9091H41.2251V97.3295H41.4524C41.9448 95.9375 42.764 94.8532 43.9098 94.0767C45.0556 93.2907 46.4335 92.8977 48.0433 92.8977C49.5869 92.8977 50.9268 93.2481 52.0632 93.9489C53.209 94.6496 54.0945 95.6155 54.7195 96.8466C55.3539 98.0777 55.6664 99.4886 55.657 101.08V115H47.8161V102.727C47.8255 101.648 47.5556 100.8 47.0064 100.185C46.4666 99.5691 45.6948 99.2614 44.6911 99.2614C44.0566 99.2614 43.4979 99.4034 43.0149 99.6875C42.5414 99.9621 42.1721 100.36 41.907 100.881C41.6513 101.392 41.5187 102.008 41.5092 102.727Z" fill="#D6E3F8"/>
<path d="M59.5277 115V93.1818H67.3686V115H59.5277ZM63.4482 90.9091C62.3875 90.9091 61.4785 90.5587 60.7209 89.858C59.9633 89.1572 59.5845 88.3144 59.5845 87.3295C59.5845 86.3447 59.9633 85.5019 60.7209 84.8011C61.4785 84.1004 62.3875 83.75 63.4482 83.75C64.5182 83.75 65.4273 84.1004 66.1754 84.8011C66.933 85.5019 67.3118 86.3447 67.3118 87.3295C67.3118 88.3144 66.933 89.1572 66.1754 89.858C65.4273 90.5587 64.5182 90.9091 63.4482 90.9091Z" fill="#D6E3F8"/>
<path d="M91.3068 100.284H84.0909C84.053 99.839 83.8968 99.4555 83.6222 99.1335C83.3475 98.8116 82.9924 98.5653 82.5568 98.3949C82.1307 98.215 81.6572 98.125 81.1364 98.125C80.464 98.125 79.8864 98.2481 79.4034 98.4943C78.9205 98.7405 78.6837 99.0909 78.6932 99.5455C78.6837 99.8674 78.821 100.166 79.1051 100.44C79.3987 100.715 79.9621 100.928 80.7955 101.08L85.2273 101.875C87.4621 102.282 89.1241 102.969 90.2131 103.935C91.3116 104.891 91.8655 106.174 91.875 107.784C91.8655 109.337 91.4015 110.687 90.483 111.832C89.5739 112.969 88.3286 113.849 86.7472 114.474C85.1752 115.09 83.3807 115.398 81.3636 115.398C78.0303 115.398 75.4214 114.716 73.5369 113.352C71.6619 111.989 70.6155 110.189 70.3977 107.955H78.1818C78.286 108.646 78.6269 109.181 79.2045 109.56C79.7917 109.929 80.5303 110.114 81.4205 110.114C82.1402 110.114 82.732 109.991 83.196 109.744C83.6695 109.498 83.911 109.148 83.9205 108.693C83.911 108.277 83.7027 107.945 83.2955 107.699C82.8977 107.453 82.2727 107.254 81.4205 107.102L77.5568 106.42C75.3314 106.032 73.6648 105.294 72.5568 104.205C71.4489 103.116 70.8996 101.714 70.9091 100C70.8996 98.4848 71.2973 97.2017 72.1023 96.1506C72.9167 95.09 74.0767 94.285 75.5824 93.7358C77.0975 93.1771 78.892 92.8977 80.9659 92.8977C84.1193 92.8977 86.6051 93.5511 88.4233 94.858C90.2509 96.1648 91.2121 97.9735 91.3068 100.284Z" fill="#D6E3F8"/>
<path d="M115.859 93.1818V98.8636H101.484V93.1818H115.859ZM104.268 87.9545H112.109V107.983C112.109 108.286 112.161 108.542 112.266 108.75C112.37 108.949 112.531 109.1 112.749 109.205C112.966 109.299 113.246 109.347 113.587 109.347C113.823 109.347 114.098 109.318 114.411 109.261C114.732 109.205 114.969 109.157 115.121 109.119L116.257 114.631C115.907 114.735 115.405 114.863 114.751 115.014C114.107 115.166 113.34 115.265 112.45 115.312C110.651 115.407 109.141 115.223 107.919 114.759C106.697 114.285 105.779 113.542 105.163 112.528C104.548 111.515 104.25 110.246 104.268 108.722V87.9545Z" fill="#D6E3F8"/>
<path d="M127.369 102.727V115H119.528V85.9091H127.085V97.3295H127.312C127.804 95.9375 128.623 94.8532 129.769 94.0767C130.915 93.2907 132.293 92.8977 133.903 92.8977C135.446 92.8977 136.786 93.2481 137.923 93.9489C139.068 94.6496 139.954 95.6155 140.579 96.8466C141.213 98.0777 141.526 99.4886 141.516 101.08V115H133.675V102.727C133.685 101.648 133.415 100.8 132.866 100.185C132.326 99.5691 131.554 99.2614 130.55 99.2614C129.916 99.2614 129.357 99.4034 128.874 99.6875C128.401 99.9621 128.031 100.36 127.766 100.881C127.511 101.392 127.378 102.008 127.369 102.727Z" fill="#D6E3F8"/>
<path d="M155.898 115.398C153.531 115.398 151.505 114.929 149.819 113.991C148.133 113.045 146.841 111.728 145.941 110.043C145.041 108.348 144.592 106.383 144.592 104.148C144.592 101.913 145.041 99.9527 145.941 98.267C146.841 96.572 148.133 95.2557 149.819 94.3182C151.505 93.3712 153.531 92.8977 155.898 92.8977C158.266 92.8977 160.292 93.3712 161.978 94.3182C163.664 95.2557 164.956 96.572 165.856 98.267C166.755 99.9527 167.205 101.913 167.205 104.148C167.205 106.383 166.755 108.348 165.856 110.043C164.956 111.728 163.664 113.045 161.978 113.991C160.292 114.929 158.266 115.398 155.898 115.398ZM155.955 109.602C156.618 109.602 157.191 109.38 157.674 108.935C158.157 108.49 158.531 107.855 158.796 107.031C159.061 106.207 159.194 105.227 159.194 104.091C159.194 102.945 159.061 101.965 158.796 101.151C158.531 100.327 158.157 99.6922 157.674 99.2472C157.191 98.8021 156.618 98.5795 155.955 98.5795C155.255 98.5795 154.653 98.8021 154.151 99.2472C153.649 99.6922 153.266 100.327 153.001 101.151C152.736 101.965 152.603 102.945 152.603 104.091C152.603 105.227 152.736 106.207 153.001 107.031C153.266 107.855 153.649 108.49 154.151 108.935C154.653 109.38 155.255 109.602 155.955 109.602Z" fill="#D6E3F8"/>
<path d="M184.535 105.455V93.1818H192.376V115H184.933V110.852H184.705C184.232 112.244 183.403 113.333 182.219 114.119C181.036 114.896 179.63 115.284 178.001 115.284C176.476 115.284 175.141 114.934 173.995 114.233C172.859 113.532 171.973 112.566 171.339 111.335C170.714 110.104 170.397 108.693 170.387 107.102V93.1818H178.228V105.455C178.237 106.534 178.512 107.382 179.052 107.997C179.601 108.613 180.368 108.92 181.353 108.92C182.006 108.92 182.57 108.783 183.043 108.509C183.526 108.224 183.896 107.827 184.151 107.315C184.416 106.795 184.544 106.174 184.535 105.455Z" fill="#D6E3F8"/>
<path d="M206.875 123.636C204.688 123.636 202.812 123.324 201.25 122.699C199.697 122.083 198.49 121.231 197.628 120.142C196.776 119.062 196.297 117.822 196.193 116.42H203.75C203.826 116.884 204.015 117.259 204.318 117.543C204.621 117.827 205.009 118.03 205.483 118.153C205.966 118.286 206.506 118.352 207.102 118.352C208.116 118.352 208.954 118.106 209.616 117.614C210.289 117.121 210.625 116.231 210.625 114.943V111.25H210.398C210.114 111.989 209.678 112.618 209.091 113.139C208.504 113.651 207.798 114.044 206.974 114.318C206.151 114.583 205.246 114.716 204.261 114.716C202.708 114.716 201.278 114.356 199.972 113.636C198.674 112.917 197.633 111.776 196.847 110.213C196.07 108.651 195.682 106.61 195.682 104.091C195.682 101.458 196.089 99.3182 196.903 97.6705C197.727 96.0227 198.788 94.8153 200.085 94.0483C201.392 93.2812 202.765 92.8977 204.205 92.8977C205.284 92.8977 206.231 93.0871 207.045 93.4659C207.86 93.8352 208.542 94.3324 209.091 94.9574C209.64 95.5729 210.057 96.25 210.341 96.9886H210.511V93.1818H218.352V114.943C218.352 116.79 217.874 118.357 216.918 119.645C215.971 120.942 214.635 121.932 212.912 122.614C211.188 123.295 209.176 123.636 206.875 123.636ZM207.159 109.148C207.879 109.148 208.494 108.949 209.006 108.551C209.527 108.144 209.924 107.566 210.199 106.818C210.483 106.061 210.625 105.152 210.625 104.091C210.625 103.011 210.483 102.088 210.199 101.321C209.924 100.545 209.527 99.9527 209.006 99.5455C208.494 99.1288 207.879 98.9205 207.159 98.9205C206.439 98.9205 205.824 99.1288 205.312 99.5455C204.811 99.9527 204.422 100.545 204.148 101.321C203.883 102.088 203.75 103.011 203.75 104.091C203.75 105.17 203.883 106.089 204.148 106.847C204.422 107.595 204.811 108.168 205.312 108.565C205.824 108.954 206.439 109.148 207.159 109.148Z" fill="#D6E3F8"/>
<path d="M230.181 102.727V115H222.34V85.9091H229.897V97.3295H230.124C230.617 95.9375 231.436 94.8532 232.582 94.0767C233.728 93.2907 235.105 92.8977 236.715 92.8977C238.259 92.8977 239.599 93.2481 240.735 93.9489C241.881 94.6496 242.766 95.6155 243.391 96.8466C244.026 98.0777 244.338 99.4886 244.329 101.08V115H236.488V102.727C236.497 101.648 236.228 100.8 235.678 100.185C235.138 99.5691 234.367 99.2614 233.363 99.2614C232.728 99.2614 232.17 99.4034 231.687 99.6875C231.213 99.9621 230.844 100.36 230.579 100.881C230.323 101.392 230.191 102.008 230.181 102.727Z" fill="#D6E3F8"/>
<path d="M252.461 115.455C251.362 115.455 250.42 115.071 249.634 114.304C248.858 113.527 248.474 112.585 248.484 111.477C248.474 110.398 248.858 109.474 249.634 108.707C250.42 107.94 251.362 107.557 252.461 107.557C253.503 107.557 254.421 107.94 255.217 108.707C256.022 109.474 256.429 110.398 256.438 111.477C256.429 112.216 256.235 112.888 255.856 113.494C255.486 114.091 255.004 114.569 254.407 114.929C253.81 115.279 253.162 115.455 252.461 115.455Z" fill="#D6E3F8"/>
<path d="M264.961 115.455C263.862 115.455 262.92 115.071 262.134 114.304C261.358 113.527 260.974 112.585 260.984 111.477C260.974 110.398 261.358 109.474 262.134 108.707C262.92 107.94 263.862 107.557 264.961 107.557C266.003 107.557 266.921 107.94 267.717 108.707C268.522 109.474 268.929 110.398 268.938 111.477C268.929 112.216 268.735 112.888 268.356 113.494C267.987 114.091 267.504 114.569 266.907 114.929C266.31 115.279 265.662 115.455 264.961 115.455Z" fill="#D6E3F8"/>
<path d="M277.461 115.455C276.362 115.455 275.42 115.071 274.634 114.304C273.858 113.527 273.474 112.585 273.484 111.477C273.474 110.398 273.858 109.474 274.634 108.707C275.42 107.94 276.362 107.557 277.461 107.557C278.503 107.557 279.421 107.94 280.217 108.707C281.022 109.474 281.429 110.398 281.438 111.477C281.429 112.216 281.235 112.888 280.856 113.494C280.487 114.091 280.004 114.569 279.407 114.929C278.81 115.279 278.162 115.455 277.461 115.455Z" fill="#D6E3F8"/>
<path d="M410.5 125C380.401 125 356 149.401 356 179.5C356 209.599 380.401 234 410.5 234C440.599 234 465 209.599 465 179.5C465 149.401 440.599 125 410.5 125ZM410.5 224.917C385.418 224.917 365.083 204.582 365.083 179.5C365.083 154.418 385.418 134.083 410.5 134.083C435.582 134.083 455.917 154.418 455.917 179.5C455.917 204.582 435.582 224.917 410.5 224.917Z" fill="#D6E3F8"/>
<path d="M428.667 170.417C433.685 170.417 437.75 166.352 437.75 161.333C437.75 156.315 433.685 152.25 428.667 152.25C423.648 152.25 419.583 156.315 419.583 161.333C419.583 166.352 423.648 170.417 428.667 170.417Z" fill="#D6E3F8"/>
<path d="M392.333 170.417C397.352 170.417 401.417 166.352 401.417 161.333C401.417 156.315 397.352 152.25 392.333 152.25C387.315 152.25 383.25 156.315 383.25 161.333C383.25 166.352 387.315 170.417 392.333 170.417Z" fill="#D6E3F8"/>
<path d="M410.499 179.501C397.513 179.501 385.404 188.285 380.709 200.591C379.815 202.934 380.99 205.559 383.333 206.453C385.677 207.347 388.301 206.172 389.196 203.829C392.578 194.964 401.372 188.585 410.499 188.585C419.623 188.585 428.417 194.961 431.804 203.822C432.699 206.165 435.324 207.338 437.667 206.443C440.01 205.548 441.184 202.923 440.289 200.58C435.588 188.28 423.48 179.501 410.499 179.501Z" fill="#D6E3F8"/>
</svg>
