<svg width="607" height="341" viewBox="0 0 607 341" fill="none" xmlns="http://www.w3.org/2000/svg">
<path d="M0 0H607V341H0V0Z" fill="#F8CAFC"/>
<path d="M193.114 48.75H183.159C182.977 47.4621 182.606 46.3182 182.045 45.3182C181.485 44.303 180.765 43.4394 179.886 42.7273C179.008 42.0151 177.992 41.4697 176.841 41.0909C175.705 40.7121 174.47 40.5227 173.136 40.5227C170.727 40.5227 168.629 41.1212 166.841 42.3182C165.053 43.5 163.667 45.2273 162.682 47.5C161.697 49.7576 161.205 52.5 161.205 55.7273C161.205 59.0455 161.697 61.8333 162.682 64.0909C163.682 66.3485 165.076 68.053 166.864 69.2045C168.652 70.3561 170.72 70.9318 173.068 70.9318C174.386 70.9318 175.606 70.7576 176.727 70.4091C177.864 70.0606 178.871 69.553 179.75 68.8864C180.629 68.2045 181.356 67.3788 181.932 66.4091C182.523 65.4394 182.932 64.3333 183.159 63.0909L193.114 63.1364C192.856 65.2727 192.212 67.3333 191.182 69.3182C190.167 71.2879 188.795 73.053 187.068 74.6136C185.356 76.1591 183.311 77.3864 180.932 78.2955C178.568 79.1894 175.894 79.6364 172.909 79.6364C168.758 79.6364 165.045 78.697 161.773 76.8182C158.515 74.9394 155.939 72.2197 154.045 68.6591C152.167 65.0985 151.227 60.7879 151.227 55.7273C151.227 50.6515 152.182 46.3333 154.091 42.7727C156 39.2121 158.591 36.5 161.864 34.6364C165.136 32.7576 168.818 31.8182 172.909 31.8182C175.606 31.8182 178.106 32.197 180.409 32.9545C182.727 33.7121 184.78 34.8182 186.568 36.2727C188.356 37.7121 189.811 39.4773 190.932 41.5682C192.068 43.6591 192.795 46.053 193.114 48.75Z" fill="#791D8F"/>
<path d="M232.702 60.8182C232.702 64.7836 231.95 68.1572 230.447 70.9389C228.955 73.7206 226.919 75.8454 224.339 77.3132C221.77 78.7692 218.882 79.4972 215.674 79.4972C212.442 79.4972 209.542 78.7633 206.974 77.2955C204.405 75.8277 202.375 73.7029 200.884 70.9212C199.392 68.1394 198.646 64.7718 198.646 60.8182C198.646 56.8527 199.392 53.4792 200.884 50.6974C202.375 47.9157 204.405 45.7969 206.974 44.3409C209.542 42.8731 212.442 42.1392 215.674 42.1392C218.882 42.1392 221.77 42.8731 224.339 44.3409C226.919 45.7969 228.955 47.9157 230.447 50.6974C231.95 53.4792 232.702 56.8527 232.702 60.8182ZM224.907 60.8182C224.907 58.2495 224.522 56.0833 223.753 54.3196C222.995 52.5559 221.924 51.2183 220.539 50.3068C219.154 49.3954 217.532 48.9396 215.674 48.9396C213.816 48.9396 212.194 49.3954 210.809 50.3068C209.424 51.2183 208.347 52.5559 207.577 54.3196C206.82 56.0833 206.441 58.2495 206.441 60.8182C206.441 63.3868 206.82 65.553 207.577 67.3168C208.347 69.0805 209.424 70.4181 210.809 71.3295C212.194 72.241 213.816 72.6967 215.674 72.6967C217.532 72.6967 219.154 72.241 220.539 71.3295C221.924 70.4181 222.995 69.0805 223.753 67.3168C224.522 65.553 224.907 63.3868 224.907 60.8182Z" fill="#240D2F"/>
<path d="M268.812 42.6364V79H262.172L246.351 56.1129H246.085V79H238.397V42.6364H245.144L260.84 65.5057H261.16V42.6364H268.812Z" fill="#240D2F"/>
<path d="M273.779 48.9751V42.6364H303.645V48.9751H292.512V79H284.912V48.9751H273.779Z" fill="#240D2F"/>
<path d="M308.563 79V42.6364H322.909C325.656 42.6364 327.999 43.1276 329.941 44.1101C331.894 45.0807 333.379 46.4598 334.397 48.2472C335.427 50.0227 335.942 52.112 335.942 54.5149C335.942 56.9297 335.421 59.0071 334.38 60.7472C333.338 62.4754 331.829 63.8011 329.852 64.7244C327.887 65.6477 325.508 66.1094 322.714 66.1094H313.108V59.9304H321.471C322.939 59.9304 324.158 59.7292 325.129 59.3267C326.1 58.9242 326.822 58.3205 327.295 57.5156C327.78 56.7107 328.023 55.7105 328.023 54.5149C328.023 53.3075 327.78 52.2895 327.295 51.4609C326.822 50.6323 326.094 50.005 325.111 49.5788C324.141 49.1409 322.915 48.9219 321.436 48.9219H316.251V79H308.563ZM328.201 62.4517L337.238 79H328.751L319.909 62.4517H328.201Z" fill="#240D2F"/>
<path d="M347.643 79H339.404L351.958 42.6364H361.865L374.401 79H366.162L357.054 50.946H356.77L347.643 79ZM347.128 64.7067H366.588V70.7081H347.128V64.7067Z" fill="#240D2F"/>
<path d="M397.674 53.0945C397.532 51.6622 396.923 50.5495 395.845 49.7564C394.768 48.9633 393.306 48.5668 391.46 48.5668C390.205 48.5668 389.146 48.7443 388.281 49.0994C387.417 49.4427 386.754 49.9221 386.293 50.5376C385.843 51.1532 385.618 51.8516 385.618 52.6328C385.594 53.2839 385.731 53.852 386.026 54.3374C386.334 54.8227 386.754 55.2429 387.287 55.598C387.82 55.9413 388.435 56.2431 389.134 56.5036C389.832 56.7521 390.578 56.9652 391.371 57.1428L394.638 57.924C396.224 58.2791 397.68 58.7526 399.006 59.3445C400.332 59.9363 401.48 60.6643 402.45 61.5284C403.421 62.3925 404.173 63.4105 404.705 64.5824C405.25 65.7543 405.528 67.0978 405.54 68.6129C405.528 70.8383 404.96 72.7678 403.835 74.4013C402.723 76.023 401.113 77.2836 399.006 78.1832C396.911 79.071 394.383 79.5149 391.424 79.5149C388.489 79.5149 385.932 79.0651 383.754 78.1655C381.588 77.2659 379.895 75.9342 378.676 74.1705C377.468 72.3949 376.835 70.1991 376.776 67.5831H384.215C384.298 68.8023 384.647 69.8203 385.263 70.6371C385.89 71.442 386.725 72.0516 387.767 72.4659C388.82 72.8684 390.01 73.0696 391.335 73.0696C392.638 73.0696 393.768 72.8802 394.727 72.5014C395.697 72.1226 396.449 71.5959 396.982 70.9212C397.514 70.2465 397.781 69.4711 397.781 68.5952C397.781 67.7784 397.538 67.0919 397.053 66.5355C396.579 65.9792 395.881 65.5057 394.958 65.1151C394.046 64.7244 392.927 64.3693 391.602 64.0497L387.642 63.0554C384.576 62.3097 382.156 61.1437 380.38 59.5575C378.605 57.9714 377.723 55.8348 377.735 53.1477C377.723 50.946 378.309 49.0225 379.492 47.3771C380.688 45.7318 382.327 44.4474 384.411 43.5241C386.494 42.6009 388.861 42.1392 391.513 42.1392C394.212 42.1392 396.567 42.6009 398.58 43.5241C400.604 44.4474 402.178 45.7318 403.303 47.3771C404.427 49.0225 405.007 50.9283 405.043 53.0945H397.674Z" fill="#240D2F"/>
<path d="M409.326 48.9751V42.6364H439.191V48.9751H428.059V79H420.459V48.9751H409.326Z" fill="#240D2F"/>
<path d="M152.045 310V263.455H170.409C173.939 263.455 176.947 264.129 179.432 265.477C181.917 266.811 183.811 268.667 185.114 271.045C186.432 273.409 187.091 276.136 187.091 279.227C187.091 282.318 186.424 285.045 185.091 287.409C183.758 289.773 181.826 291.614 179.295 292.932C176.78 294.25 173.735 294.909 170.159 294.909H158.455V287.023H168.568C170.462 287.023 172.023 286.697 173.25 286.045C174.492 285.379 175.417 284.462 176.023 283.295C176.644 282.114 176.955 280.758 176.955 279.227C176.955 277.682 176.644 276.333 176.023 275.182C175.417 274.015 174.492 273.114 173.25 272.477C172.008 271.826 170.432 271.5 168.523 271.5H161.886V310H152.045Z" fill="#791D8F"/>
<path d="M192.598 310V273.636H206.945C209.691 273.636 212.035 274.128 213.976 275.11C215.929 276.081 217.415 277.46 218.433 279.247C219.462 281.023 219.977 283.112 219.977 285.515C219.977 287.93 219.456 290.007 218.415 291.747C217.373 293.475 215.864 294.801 213.887 295.724C211.922 296.648 209.543 297.109 206.749 297.109H197.143V290.93H205.506C206.974 290.93 208.193 290.729 209.164 290.327C210.135 289.924 210.857 289.321 211.33 288.516C211.816 287.711 212.058 286.71 212.058 285.515C212.058 284.308 211.816 283.29 211.33 282.461C210.857 281.632 210.129 281.005 209.146 280.579C208.176 280.141 206.951 279.922 205.471 279.922H200.286V310H192.598ZM212.236 293.452L221.273 310H212.786L203.944 293.452H212.236Z" fill="#240D2F"/>
<path d="M258.827 291.818C258.827 295.784 258.075 299.157 256.572 301.939C255.08 304.721 253.044 306.845 250.464 308.313C247.895 309.769 245.007 310.497 241.799 310.497C238.567 310.497 235.667 309.763 233.099 308.295C230.53 306.828 228.5 304.703 227.009 301.921C225.517 299.139 224.771 295.772 224.771 291.818C224.771 287.853 225.517 284.479 227.009 281.697C228.5 278.916 230.53 276.797 233.099 275.341C235.667 273.873 238.567 273.139 241.799 273.139C245.007 273.139 247.895 273.873 250.464 275.341C253.044 276.797 255.08 278.916 256.572 281.697C258.075 284.479 258.827 287.853 258.827 291.818ZM251.032 291.818C251.032 289.25 250.647 287.083 249.878 285.32C249.12 283.556 248.049 282.218 246.664 281.307C245.279 280.395 243.657 279.94 241.799 279.94C239.941 279.94 238.319 280.395 236.934 281.307C235.549 282.218 234.472 283.556 233.702 285.32C232.945 287.083 232.566 289.25 232.566 291.818C232.566 294.387 232.945 296.553 233.702 298.317C234.472 300.081 235.549 301.418 236.934 302.33C238.319 303.241 239.941 303.697 241.799 303.697C243.657 303.697 245.279 303.241 246.664 302.33C248.049 301.418 249.12 300.081 249.878 298.317C250.647 296.553 251.032 294.387 251.032 291.818Z" fill="#240D2F"/>
<path d="M270.022 273.636L277.355 286.03H277.639L285.007 273.636H293.69L282.593 291.818L293.939 310H285.096L277.639 297.589H277.355L269.897 310H261.091L272.472 291.818L261.304 273.636H270.022Z" fill="#240D2F"/>
<path d="M306.243 273.636V310H298.555V273.636H306.243Z" fill="#240D2F"/>
<path d="M312.569 273.636H322.05L332.064 298.068H332.491L342.505 273.636H351.986V310H344.529V286.332H344.227L334.817 309.822H329.738L320.328 286.243H320.026V310H312.569V273.636Z" fill="#240D2F"/>
<path d="M366.009 273.636V310H358.321V273.636H366.009Z" fill="#240D2F"/>
<path d="M370.949 279.975V273.636H400.814V279.975H389.682V310H382.082V279.975H370.949Z" fill="#240D2F"/>
<path d="M403.602 273.636H412.214L420.505 289.297H420.861L429.153 273.636H437.764L424.501 297.145V310H416.866V297.145L403.602 273.636Z" fill="#240D2F"/>
<path d="M160.068 233H149.523L165.591 186.455H178.273L194.318 233H183.773L172.114 197.091H171.75L160.068 233ZM159.409 214.705H184.318V222.386H159.409V214.705Z" fill="#791D8F"/>
<path d="M199.036 233V196.636H206.724V226.661H222.313V233H199.036Z" fill="#240D2F"/>
<path d="M235.093 196.636V233H227.405V196.636H235.093Z" fill="#240D2F"/>
<path d="M265.531 208.391C265.282 207.527 264.933 206.763 264.483 206.1C264.033 205.425 263.483 204.857 262.832 204.396C262.192 203.922 261.459 203.561 260.63 203.312C259.813 203.064 258.908 202.94 257.913 202.94C256.055 202.94 254.421 203.401 253.013 204.325C251.616 205.248 250.527 206.591 249.746 208.355C248.964 210.107 248.574 212.25 248.574 214.783C248.574 217.316 248.959 219.47 249.728 221.246C250.497 223.021 251.586 224.377 252.995 225.312C254.404 226.235 256.067 226.697 257.984 226.697C259.724 226.697 261.21 226.389 262.441 225.773C263.684 225.146 264.631 224.264 265.282 223.128C265.945 221.991 266.276 220.648 266.276 219.097L267.839 219.328H258.464V213.54H273.68V218.121C273.68 221.317 273.006 224.063 271.656 226.359C270.307 228.644 268.448 230.408 266.081 231.651C263.714 232.882 261.003 233.497 257.949 233.497C254.54 233.497 251.545 232.745 248.964 231.242C246.384 229.727 244.372 227.579 242.928 224.797C241.495 222.003 240.779 218.689 240.779 214.854C240.779 211.906 241.205 209.278 242.058 206.97C242.922 204.65 244.129 202.685 245.68 201.075C247.23 199.465 249.036 198.24 251.095 197.4C253.155 196.559 255.386 196.139 257.789 196.139C259.849 196.139 261.766 196.441 263.542 197.045C265.317 197.637 266.892 198.477 268.265 199.566C269.65 200.655 270.78 201.951 271.656 203.455C272.532 204.946 273.094 206.591 273.343 208.391H265.531Z" fill="#240D2F"/>
<path d="M309.871 196.636V233H303.23L287.41 210.113H287.144V233H279.455V196.636H286.203L301.899 219.506H302.218V196.636H309.871Z" fill="#240D2F"/>
<path d="M316.223 196.636H325.705L335.719 221.068H336.145L346.159 196.636H355.641V233H348.183V209.332H347.881L338.471 232.822H333.393L323.982 209.243H323.68V233H316.223V196.636Z" fill="#240D2F"/>
<path d="M361.975 233V196.636H386.478V202.975H369.663V211.64H385.217V217.979H369.663V226.661H386.549V233H361.975Z" fill="#240D2F"/>
<path d="M423.006 196.636V233H416.365L400.545 210.113H400.278V233H392.59V196.636H399.337L415.033 219.506H415.353V196.636H423.006Z" fill="#240D2F"/>
<path d="M427.973 202.975V196.636H457.838V202.975H446.705V233H439.106V202.975H427.973Z" fill="#240D2F"/>
<path d="M152.045 156V109.455H170.409C173.924 109.455 176.924 110.083 179.409 111.341C181.909 112.583 183.811 114.348 185.114 116.636C186.432 118.909 187.091 121.583 187.091 124.659C187.091 127.75 186.424 130.409 185.091 132.636C183.758 134.848 181.826 136.545 179.295 137.727C176.78 138.909 173.735 139.5 170.159 139.5H157.864V131.591H168.568C170.447 131.591 172.008 131.333 173.25 130.818C174.492 130.303 175.417 129.53 176.023 128.5C176.644 127.47 176.955 126.189 176.955 124.659C176.955 123.114 176.644 121.811 176.023 120.75C175.417 119.689 174.485 118.886 173.227 118.341C171.985 117.78 170.417 117.5 168.523 117.5H161.886V156H152.045ZM177.182 134.818L188.75 156H177.886L166.568 134.818H177.182Z" fill="#791D8F"/>
<path d="M193.161 156V119.636H217.663V125.975H200.849V134.64H216.403V140.979H200.849V149.661H217.734V156H193.161Z" fill="#240D2F"/>
<path d="M223.776 156V119.636H238.122C240.88 119.636 243.23 120.163 245.171 121.217C247.113 122.258 248.592 123.708 249.61 125.567C250.64 127.413 251.155 129.544 251.155 131.959C251.155 134.374 250.634 136.504 249.593 138.351C248.551 140.197 247.042 141.636 245.065 142.665C243.1 143.695 240.721 144.21 237.927 144.21H228.783V138.049H236.684C238.164 138.049 239.383 137.795 240.342 137.286C241.312 136.765 242.035 136.049 242.508 135.137C242.993 134.214 243.236 133.154 243.236 131.959C243.236 130.751 242.993 129.698 242.508 128.798C242.035 127.887 241.312 127.183 240.342 126.685C239.371 126.176 238.14 125.922 236.649 125.922H231.464V156H223.776Z" fill="#240D2F"/>
<path d="M256.149 156V119.636H280.652V125.975H263.837V134.64H279.391V140.979H263.837V149.661H280.723V156H256.149Z" fill="#240D2F"/>
<path d="M285.379 125.975V119.636H315.244V125.975H304.111V156H296.512V125.975H285.379Z" fill="#240D2F"/>
<path d="M327.851 119.636V156H320.162V119.636H327.851Z" fill="#240D2F"/>
<path d="M332.791 125.975V119.636H362.656V125.975H351.523V156H343.924V125.975H332.791Z" fill="#240D2F"/>
<path d="M375.263 119.636V156H367.575V119.636H375.263Z" fill="#240D2F"/>
<path d="M415.004 137.818C415.004 141.784 414.253 145.157 412.749 147.939C411.258 150.721 409.222 152.845 406.642 154.313C404.073 155.769 401.185 156.497 397.977 156.497C394.745 156.497 391.845 155.763 389.276 154.295C386.708 152.828 384.678 150.703 383.186 147.921C381.695 145.139 380.949 141.772 380.949 137.818C380.949 133.853 381.695 130.479 383.186 127.697C384.678 124.916 386.708 122.797 389.276 121.341C391.845 119.873 394.745 119.139 397.977 119.139C401.185 119.139 404.073 119.873 406.642 121.341C409.222 122.797 411.258 124.916 412.749 127.697C414.253 130.479 415.004 133.853 415.004 137.818ZM407.21 137.818C407.21 135.25 406.825 133.083 406.056 131.32C405.298 129.556 404.227 128.218 402.842 127.307C401.457 126.395 399.835 125.94 397.977 125.94C396.118 125.94 394.497 126.395 393.112 127.307C391.727 128.218 390.65 129.556 389.88 131.32C389.123 133.083 388.744 135.25 388.744 137.818C388.744 140.387 389.123 142.553 389.88 144.317C390.65 146.08 391.727 147.418 393.112 148.33C394.497 149.241 396.118 149.697 397.977 149.697C399.835 149.697 401.457 149.241 402.842 148.33C404.227 147.418 405.298 146.08 406.056 144.317C406.825 142.553 407.21 140.387 407.21 137.818Z" fill="#240D2F"/>
<path d="M451.115 119.636V156H444.474L428.654 133.113H428.388V156H420.7V119.636H427.447L443.143 142.506H443.462V119.636H451.115Z" fill="#240D2F"/>
</svg>
