<svg width="523" height="812" viewBox="0 0 523 812" fill="none" xmlns="http://www.w3.org/2000/svg">
<path d="M0 0H523V812H0V0Z" fill="white"/>
<path d="M163.503 71H158.23L166.264 47.7273H172.605L180.628 71H175.355L169.526 53.0455H169.344L163.503 71ZM163.173 61.8523H175.628V65.6932H163.173V61.8523Z" fill="#4BA70D"/>
<path d="M188.957 71.2841C187.632 71.2841 186.431 70.9432 185.355 70.2614C184.287 69.572 183.438 68.5606 182.81 67.2273C182.188 65.8864 181.878 64.2424 181.878 62.2955C181.878 60.2955 182.2 58.6326 182.844 57.3068C183.488 55.9735 184.344 54.9773 185.412 54.3182C186.488 53.6515 187.666 53.3182 188.946 53.3182C189.923 53.3182 190.738 53.4849 191.389 53.8182C192.048 54.1439 192.579 54.553 192.98 55.0455C193.389 55.5303 193.7 56.0076 193.912 56.4773H194.06V47.7273H198.889V71H194.116V68.2045H193.912C193.685 68.6894 193.363 69.1705 192.946 69.6477C192.537 70.1174 192.003 70.5076 191.344 70.8182C190.692 71.1288 189.897 71.2841 188.957 71.2841ZM190.491 67.4318C191.272 67.4318 191.931 67.2197 192.469 66.7955C193.014 66.3636 193.431 65.7614 193.719 64.9886C194.014 64.2159 194.162 63.3106 194.162 62.2727C194.162 61.2348 194.018 60.3333 193.73 59.5682C193.442 58.803 193.026 58.2121 192.48 57.7955C191.935 57.3788 191.272 57.1705 190.491 57.1705C189.696 57.1705 189.026 57.3864 188.48 57.8182C187.935 58.25 187.522 58.8485 187.241 59.6136C186.961 60.3788 186.821 61.2652 186.821 62.2727C186.821 63.2879 186.961 64.1856 187.241 64.9659C187.529 65.7386 187.942 66.3447 188.48 66.7841C189.026 67.2159 189.696 67.4318 190.491 67.4318Z" fill="#4BA70D"/>
<path d="M210.756 71.3409C208.991 71.3409 207.464 70.9659 206.176 70.2159C204.896 69.4583 203.907 68.4053 203.21 67.0568C202.513 65.7008 202.165 64.1288 202.165 62.3409C202.165 60.5379 202.513 58.9621 203.21 57.6136C203.907 56.2576 204.896 55.2045 206.176 54.4545C207.464 53.697 208.991 53.3182 210.756 53.3182C212.521 53.3182 214.044 53.697 215.324 54.4545C216.612 55.2045 217.604 56.2576 218.301 57.6136C218.998 58.9621 219.347 60.5379 219.347 62.3409C219.347 64.1288 218.998 65.7008 218.301 67.0568C217.604 68.4053 216.612 69.4583 215.324 70.2159C214.044 70.9659 212.521 71.3409 210.756 71.3409ZM210.778 67.5909C211.581 67.5909 212.252 67.3636 212.79 66.9091C213.328 66.447 213.733 65.8182 214.006 65.0227C214.286 64.2273 214.426 63.322 214.426 62.3068C214.426 61.2917 214.286 60.3864 214.006 59.5909C213.733 58.7955 213.328 58.1667 212.79 57.7045C212.252 57.2424 211.581 57.0114 210.778 57.0114C209.968 57.0114 209.286 57.2424 208.733 57.7045C208.188 58.1667 207.775 58.7955 207.494 59.5909C207.222 60.3864 207.085 61.2917 207.085 62.3068C207.085 63.322 207.222 64.2273 207.494 65.0227C207.775 65.8182 208.188 66.447 208.733 66.9091C209.286 67.3636 209.968 67.5909 210.778 67.5909Z" fill="#4BA70D"/>
<path d="M222.494 77.5455V53.5455H227.267V56.4773H227.483C227.695 56.0076 228.002 55.5303 228.403 55.0455C228.813 54.553 229.343 54.1439 229.994 53.8182C230.653 53.4849 231.472 53.3182 232.449 53.3182C233.722 53.3182 234.896 53.6515 235.972 54.3182C237.047 54.9773 237.907 55.9735 238.551 57.3068C239.195 58.6326 239.517 60.2955 239.517 62.2955C239.517 64.2424 239.203 65.8864 238.574 67.2273C237.953 68.5606 237.104 69.572 236.028 70.2614C234.96 70.9432 233.763 71.2841 232.438 71.2841C231.498 71.2841 230.699 71.1288 230.04 70.8182C229.388 70.5076 228.854 70.1174 228.438 69.6477C228.021 69.1705 227.703 68.6894 227.483 68.2045H227.335V77.5455H222.494ZM227.233 62.2727C227.233 63.3106 227.377 64.2159 227.665 64.9886C227.953 65.7614 228.369 66.3636 228.915 66.7955C229.46 67.2197 230.123 67.4318 230.903 67.4318C231.691 67.4318 232.358 67.2159 232.903 66.7841C233.449 66.3447 233.862 65.7386 234.142 64.9659C234.43 64.1856 234.574 63.2879 234.574 62.2727C234.574 61.2652 234.434 60.3788 234.153 59.6136C233.873 58.8485 233.46 58.25 232.915 57.8182C232.369 57.3864 231.699 57.1705 230.903 57.1705C230.116 57.1705 229.449 57.3788 228.903 57.7955C228.366 58.2121 227.953 58.803 227.665 59.5682C227.377 60.3333 227.233 61.2348 227.233 62.2727Z" fill="#4BA70D"/>
<path d="M252.028 53.5455V57.1818H241.517V53.5455H252.028ZM243.903 49.3636H248.744V65.6364C248.744 66.0833 248.813 66.4318 248.949 66.6818C249.085 66.9242 249.275 67.0947 249.517 67.1932C249.767 67.2917 250.055 67.3409 250.381 67.3409C250.608 67.3409 250.835 67.322 251.062 67.2841C251.29 67.2386 251.464 67.2045 251.585 67.1818L252.347 70.7841C252.104 70.8598 251.763 70.947 251.324 71.0455C250.884 71.1515 250.35 71.2159 249.722 71.2386C248.555 71.2841 247.532 71.1288 246.653 70.7727C245.782 70.4167 245.104 69.8636 244.619 69.1136C244.134 68.3636 243.896 67.4167 243.903 66.2727V49.3636Z" fill="#4BA70D"/>
<path d="M266.69 71H261.418L269.452 47.7273H275.793L283.815 71H278.543L272.713 53.0455H272.531L266.69 71ZM266.361 61.8523H278.815V65.6932H266.361V61.8523Z" fill="#4BA70D"/>
<path d="M302.273 71H294.023V47.7273H302.341C304.682 47.7273 306.697 48.1932 308.386 49.125C310.076 50.0492 311.375 51.3788 312.284 53.1136C313.201 54.8485 313.659 56.9242 313.659 59.3409C313.659 61.7652 313.201 63.8485 312.284 65.5909C311.375 67.3333 310.068 68.6705 308.364 69.6023C306.667 70.5341 304.636 71 302.273 71ZM298.943 66.7841H302.068C303.523 66.7841 304.746 66.5265 305.739 66.0114C306.739 65.4886 307.489 64.6818 307.989 63.5909C308.496 62.4924 308.75 61.0758 308.75 59.3409C308.75 57.6212 308.496 56.2159 307.989 55.125C307.489 54.0341 306.742 53.2311 305.75 52.7159C304.758 52.2008 303.534 51.9432 302.08 51.9432H298.943V66.7841Z" fill="#4BA70D"/>
<path d="M325.099 71.3409C323.334 71.3409 321.808 70.9659 320.52 70.2159C319.24 69.4583 318.251 68.4053 317.554 67.0568C316.857 65.7008 316.509 64.1288 316.509 62.3409C316.509 60.5379 316.857 58.9621 317.554 57.6136C318.251 56.2576 319.24 55.2045 320.52 54.4545C321.808 53.697 323.334 53.3182 325.099 53.3182C326.865 53.3182 328.387 53.697 329.668 54.4545C330.955 55.2045 331.948 56.2576 332.645 57.6136C333.342 58.9621 333.69 60.5379 333.69 62.3409C333.69 64.1288 333.342 65.7008 332.645 67.0568C331.948 68.4053 330.955 69.4583 329.668 70.2159C328.387 70.9659 326.865 71.3409 325.099 71.3409ZM325.122 67.5909C325.925 67.5909 326.596 67.3636 327.134 66.9091C327.671 66.447 328.077 65.8182 328.349 65.0227C328.63 64.2273 328.77 63.322 328.77 62.3068C328.77 61.2917 328.63 60.3864 328.349 59.5909C328.077 58.7955 327.671 58.1667 327.134 57.7045C326.596 57.2424 325.925 57.0114 325.122 57.0114C324.312 57.0114 323.63 57.2424 323.077 57.7045C322.531 58.1667 322.118 58.7955 321.838 59.5909C321.565 60.3864 321.429 61.2917 321.429 62.3068C321.429 63.322 321.565 64.2273 321.838 65.0227C322.118 65.8182 322.531 66.447 323.077 66.9091C323.63 67.3636 324.312 67.5909 325.122 67.5909Z" fill="#4BA70D"/>
<path d="M344.702 77.9091C343.134 77.9091 341.789 77.6932 340.668 77.2614C339.554 76.8371 338.668 76.2576 338.009 75.5227C337.349 74.7879 336.921 73.9621 336.724 73.0455L341.202 72.4432C341.338 72.7917 341.554 73.1174 341.849 73.4205C342.145 73.7235 342.535 73.9659 343.02 74.1477C343.512 74.3371 344.111 74.4318 344.815 74.4318C345.868 74.4318 346.736 74.1742 347.418 73.6591C348.107 73.1515 348.452 72.2992 348.452 71.1023V67.9091H348.247C348.035 68.3939 347.717 68.8523 347.293 69.2841C346.868 69.7159 346.323 70.0682 345.656 70.3409C344.99 70.6136 344.194 70.75 343.27 70.75C341.959 70.75 340.766 70.447 339.69 69.8409C338.622 69.2273 337.77 68.2917 337.134 67.0341C336.505 65.7689 336.19 64.1705 336.19 62.2386C336.19 60.2614 336.512 58.6098 337.156 57.2841C337.8 55.9583 338.656 54.9659 339.724 54.3068C340.8 53.6477 341.978 53.3182 343.259 53.3182C344.236 53.3182 345.054 53.4849 345.713 53.8182C346.372 54.1439 346.902 54.553 347.304 55.0455C347.713 55.5303 348.027 56.0076 348.247 56.4773H348.429V53.5455H353.236V71.1705C353.236 72.6553 352.872 73.8977 352.145 74.8977C351.418 75.8977 350.41 76.6477 349.122 77.1477C347.842 77.6553 346.368 77.9091 344.702 77.9091ZM344.804 67.1136C345.584 67.1136 346.243 66.9205 346.781 66.5341C347.327 66.1401 347.743 65.5795 348.031 64.8523C348.327 64.1174 348.474 63.2386 348.474 62.2159C348.474 61.1932 348.33 60.3068 348.043 59.5568C347.755 58.7992 347.338 58.2121 346.793 57.7955C346.247 57.3788 345.584 57.1705 344.804 57.1705C344.009 57.1705 343.338 57.3864 342.793 57.8182C342.247 58.2424 341.834 58.8333 341.554 59.5909C341.274 60.3485 341.134 61.2235 341.134 62.2159C341.134 63.2235 341.274 64.0947 341.554 64.8295C341.842 65.5568 342.255 66.1212 342.793 66.5227C343.338 66.9167 344.009 67.1136 344.804 67.1136Z" fill="#4BA70D"/>
<path d="M362.872 47.7273L362.429 64.0227H358.27L357.815 47.7273H362.872ZM360.349 71.2955C359.599 71.2955 358.955 71.0303 358.418 70.5C357.88 69.9621 357.615 69.3182 357.622 68.5682C357.615 67.8258 357.88 67.1894 358.418 66.6591C358.955 66.1288 359.599 65.8636 360.349 65.8636C361.069 65.8636 361.702 66.1288 362.247 66.6591C362.793 67.1894 363.069 67.8258 363.077 68.5682C363.069 69.0682 362.937 69.5265 362.679 69.9432C362.429 70.3523 362.099 70.6818 361.69 70.9318C361.281 71.1742 360.834 71.2955 360.349 71.2955Z" fill="#4BA70D"/>
<path d="M223.614 86.7273V110H219.364L209.239 95.3523H209.068V110H204.148V86.7273H208.466L218.511 101.364H218.716V86.7273H223.614Z" fill="#4BA70D"/>
<path d="M232.565 110.33C231.452 110.33 230.459 110.136 229.588 109.75C228.717 109.356 228.027 108.777 227.52 108.011C227.02 107.239 226.77 106.277 226.77 105.125C226.77 104.155 226.948 103.341 227.304 102.682C227.66 102.023 228.145 101.492 228.759 101.091C229.372 100.689 230.069 100.386 230.849 100.182C231.637 99.9773 232.463 99.8333 233.327 99.75C234.342 99.6439 235.16 99.5455 235.781 99.4545C236.402 99.3561 236.853 99.2121 237.134 99.0227C237.414 98.8333 237.554 98.553 237.554 98.1818V98.1136C237.554 97.3939 237.327 96.8371 236.872 96.4432C236.425 96.0492 235.789 95.8523 234.963 95.8523C234.092 95.8523 233.399 96.0455 232.884 96.4318C232.368 96.8106 232.027 97.2879 231.861 97.8636L227.384 97.5C227.611 96.4394 228.058 95.5227 228.724 94.75C229.391 93.9697 230.251 93.3712 231.304 92.9545C232.365 92.5303 233.592 92.3182 234.986 92.3182C235.955 92.3182 236.884 92.4318 237.77 92.6591C238.664 92.8864 239.455 93.2386 240.145 93.7159C240.842 94.1932 241.391 94.8068 241.793 95.5568C242.194 96.2992 242.395 97.1894 242.395 98.2273V110H237.804V107.58H237.668C237.387 108.125 237.012 108.606 236.543 109.023C236.073 109.432 235.509 109.754 234.849 109.989C234.19 110.216 233.429 110.33 232.565 110.33ZM233.952 106.989C234.664 106.989 235.293 106.848 235.838 106.568C236.384 106.28 236.812 105.894 237.122 105.409C237.433 104.924 237.588 104.375 237.588 103.761V101.909C237.437 102.008 237.228 102.098 236.963 102.182C236.705 102.258 236.414 102.33 236.088 102.398C235.762 102.458 235.437 102.515 235.111 102.568C234.785 102.614 234.49 102.655 234.224 102.693C233.656 102.777 233.16 102.909 232.736 103.091C232.312 103.273 231.982 103.519 231.747 103.83C231.512 104.133 231.395 104.511 231.395 104.966C231.395 105.625 231.634 106.129 232.111 106.477C232.596 106.818 233.209 106.989 233.952 106.989Z" fill="#4BA70D"/>
<path d="M246.151 110V92.5455H250.764V95.625H250.969C251.332 94.6023 251.938 93.7955 252.787 93.2045C253.635 92.6136 254.651 92.3182 255.832 92.3182C257.029 92.3182 258.048 92.6174 258.889 93.2159C259.73 93.8068 260.291 94.6098 260.571 95.625H260.753C261.109 94.625 261.753 93.8258 262.685 93.2273C263.624 92.6212 264.734 92.3182 266.014 92.3182C267.643 92.3182 268.965 92.8371 269.98 93.875C271.003 94.9053 271.514 96.3674 271.514 98.2614V110H266.685V99.2159C266.685 98.2462 266.427 97.5189 265.912 97.0341C265.397 96.5492 264.753 96.3068 263.98 96.3068C263.101 96.3068 262.416 96.5871 261.923 97.1477C261.431 97.7008 261.185 98.4318 261.185 99.3409V110H256.491V99.1136C256.491 98.2576 256.245 97.5758 255.753 97.0682C255.268 96.5606 254.628 96.3068 253.832 96.3068C253.295 96.3068 252.81 96.4432 252.378 96.7159C251.954 96.9811 251.616 97.3561 251.366 97.8409C251.116 98.3182 250.991 98.8788 250.991 99.5227V110H246.151Z" fill="#4BA70D"/>
<path d="M283.293 110.341C281.497 110.341 279.952 109.977 278.656 109.25C277.368 108.515 276.376 107.477 275.679 106.136C274.982 104.788 274.634 103.193 274.634 101.352C274.634 99.5568 274.982 97.9811 275.679 96.625C276.376 95.2689 277.357 94.2121 278.622 93.4545C279.895 92.697 281.387 92.3182 283.099 92.3182C284.251 92.3182 285.323 92.5038 286.315 92.875C287.315 93.2386 288.187 93.7879 288.929 94.5227C289.679 95.2576 290.262 96.1818 290.679 97.2955C291.096 98.4015 291.304 99.697 291.304 101.182V102.511H276.565V99.5114H286.747C286.747 98.8144 286.596 98.197 286.293 97.6591C285.99 97.1212 285.569 96.7008 285.031 96.3977C284.501 96.0871 283.884 95.9318 283.179 95.9318C282.444 95.9318 281.793 96.1023 281.224 96.4432C280.664 96.7765 280.224 97.2273 279.906 97.7955C279.588 98.3561 279.425 98.9811 279.418 99.6705V102.523C279.418 103.386 279.577 104.133 279.895 104.761C280.221 105.39 280.679 105.875 281.27 106.216C281.861 106.557 282.562 106.727 283.372 106.727C283.91 106.727 284.402 106.652 284.849 106.5C285.296 106.348 285.679 106.121 285.997 105.818C286.315 105.515 286.558 105.144 286.724 104.705L291.202 105C290.974 106.076 290.509 107.015 289.804 107.818C289.107 108.614 288.205 109.235 287.099 109.682C286.001 110.121 284.732 110.341 283.293 110.341Z" fill="#4BA70D"/>
<path d="M308.986 97.5227L304.554 97.7955C304.478 97.4167 304.315 97.0758 304.065 96.7727C303.815 96.4621 303.486 96.2159 303.077 96.0341C302.675 95.8447 302.194 95.75 301.634 95.75C300.884 95.75 300.251 95.9091 299.736 96.2273C299.221 96.5379 298.963 96.9545 298.963 97.4773C298.963 97.8939 299.13 98.2462 299.463 98.5341C299.796 98.822 300.368 99.053 301.179 99.2273L304.338 99.8636C306.035 100.212 307.3 100.773 308.134 101.545C308.967 102.318 309.384 103.333 309.384 104.591C309.384 105.735 309.046 106.739 308.372 107.602C307.705 108.466 306.789 109.14 305.622 109.625C304.463 110.102 303.126 110.341 301.611 110.341C299.3 110.341 297.459 109.86 296.088 108.898C294.724 107.928 293.925 106.61 293.69 104.943L298.452 104.693C298.596 105.398 298.944 105.936 299.497 106.307C300.05 106.67 300.759 106.852 301.622 106.852C302.471 106.852 303.152 106.689 303.668 106.364C304.19 106.03 304.455 105.602 304.463 105.08C304.455 104.64 304.27 104.28 303.906 104C303.543 103.712 302.982 103.492 302.224 103.341L299.202 102.739C297.497 102.398 296.228 101.807 295.395 100.966C294.569 100.125 294.156 99.053 294.156 97.75C294.156 96.6288 294.459 95.6629 295.065 94.8523C295.679 94.0417 296.539 93.4167 297.645 92.9773C298.759 92.5379 300.062 92.3182 301.554 92.3182C303.759 92.3182 305.493 92.7841 306.759 93.7159C308.031 94.6477 308.774 95.9167 308.986 97.5227Z" fill="#4BA70D"/>
<path d="M318.216 86.7273L317.773 103.023H313.614L313.159 86.7273H318.216ZM315.693 110.295C314.943 110.295 314.299 110.03 313.761 109.5C313.223 108.962 312.958 108.318 312.966 107.568C312.958 106.826 313.223 106.189 313.761 105.659C314.299 105.129 314.943 104.864 315.693 104.864C316.413 104.864 317.045 105.129 317.591 105.659C318.136 106.189 318.413 106.826 318.42 107.568C318.413 108.068 318.28 108.527 318.023 108.943C317.773 109.352 317.443 109.682 317.034 109.932C316.625 110.174 316.178 110.295 315.693 110.295Z" fill="#4BA70D"/>
<path d="M212.241 331V307.727H221.56C223.272 307.727 224.7 307.981 225.844 308.489C226.988 308.996 227.848 309.701 228.423 310.602C228.999 311.496 229.287 312.527 229.287 313.693C229.287 314.602 229.105 315.402 228.741 316.091C228.378 316.773 227.878 317.333 227.241 317.773C226.613 318.205 225.893 318.511 225.082 318.693V318.92C225.969 318.958 226.798 319.208 227.571 319.67C228.351 320.133 228.984 320.78 229.469 321.614C229.954 322.439 230.196 323.424 230.196 324.568C230.196 325.803 229.889 326.905 229.276 327.875C228.67 328.837 227.772 329.598 226.582 330.159C225.393 330.72 223.927 331 222.185 331H212.241ZM217.162 326.977H221.173C222.545 326.977 223.545 326.716 224.173 326.193C224.802 325.663 225.116 324.958 225.116 324.08C225.116 323.436 224.961 322.867 224.651 322.375C224.34 321.883 223.897 321.496 223.321 321.216C222.753 320.936 222.075 320.795 221.287 320.795H217.162V326.977ZM217.162 317.466H220.81C221.484 317.466 222.082 317.348 222.605 317.114C223.135 316.871 223.552 316.53 223.855 316.091C224.166 315.652 224.321 315.125 224.321 314.511C224.321 313.67 224.022 312.992 223.423 312.477C222.832 311.962 221.991 311.705 220.901 311.705H217.162V317.466Z" fill="#4BA70D"/>
<path d="M238.284 331.33C237.17 331.33 236.178 331.136 235.307 330.75C234.436 330.356 233.746 329.777 233.239 329.011C232.739 328.239 232.489 327.277 232.489 326.125C232.489 325.155 232.667 324.341 233.023 323.682C233.379 323.023 233.864 322.492 234.477 322.091C235.091 321.689 235.788 321.386 236.568 321.182C237.356 320.977 238.182 320.833 239.045 320.75C240.061 320.644 240.879 320.545 241.5 320.455C242.121 320.356 242.572 320.212 242.852 320.023C243.133 319.833 243.273 319.553 243.273 319.182V319.114C243.273 318.394 243.045 317.837 242.591 317.443C242.144 317.049 241.508 316.852 240.682 316.852C239.811 316.852 239.117 317.045 238.602 317.432C238.087 317.811 237.746 318.288 237.58 318.864L233.102 318.5C233.33 317.439 233.777 316.523 234.443 315.75C235.11 314.97 235.97 314.371 237.023 313.955C238.083 313.53 239.311 313.318 240.705 313.318C241.674 313.318 242.602 313.432 243.489 313.659C244.383 313.886 245.174 314.239 245.864 314.716C246.561 315.193 247.11 315.807 247.511 316.557C247.913 317.299 248.114 318.189 248.114 319.227V331H243.523V328.58H243.386C243.106 329.125 242.731 329.606 242.261 330.023C241.792 330.432 241.227 330.754 240.568 330.989C239.909 331.216 239.148 331.33 238.284 331.33ZM239.67 327.989C240.383 327.989 241.011 327.848 241.557 327.568C242.102 327.28 242.53 326.894 242.841 326.409C243.152 325.924 243.307 325.375 243.307 324.761V322.909C243.155 323.008 242.947 323.098 242.682 323.182C242.424 323.258 242.133 323.33 241.807 323.398C241.481 323.458 241.155 323.515 240.83 323.568C240.504 323.614 240.208 323.655 239.943 323.693C239.375 323.777 238.879 323.909 238.455 324.091C238.03 324.273 237.701 324.519 237.466 324.83C237.231 325.133 237.114 325.511 237.114 325.966C237.114 326.625 237.352 327.129 237.83 327.477C238.314 327.818 238.928 327.989 239.67 327.989Z" fill="#4BA70D"/>
<path d="M255.915 313.545L259.119 319.648L262.403 313.545H267.369L262.312 322.273L267.506 331H262.562L259.119 324.966L255.733 331H250.733L255.915 322.273L250.915 313.545H255.915Z" fill="#4BA70D"/>
<path d="M279.528 313.545V317.182H269.017V313.545H279.528ZM271.403 309.364H276.244V325.636C276.244 326.083 276.312 326.432 276.449 326.682C276.585 326.924 276.775 327.095 277.017 327.193C277.267 327.292 277.555 327.341 277.881 327.341C278.108 327.341 278.335 327.322 278.562 327.284C278.79 327.239 278.964 327.205 279.085 327.182L279.847 330.784C279.604 330.86 279.263 330.947 278.824 331.045C278.384 331.152 277.85 331.216 277.222 331.239C276.055 331.284 275.032 331.129 274.153 330.773C273.282 330.417 272.604 329.864 272.119 329.114C271.634 328.364 271.396 327.417 271.403 326.273V309.364Z" fill="#4BA70D"/>
<path d="M290.449 331.341C288.653 331.341 287.108 330.977 285.812 330.25C284.525 329.515 283.532 328.477 282.835 327.136C282.138 325.788 281.79 324.193 281.79 322.352C281.79 320.557 282.138 318.981 282.835 317.625C283.532 316.269 284.513 315.212 285.778 314.455C287.051 313.697 288.544 313.318 290.256 313.318C291.407 313.318 292.479 313.504 293.472 313.875C294.472 314.239 295.343 314.788 296.085 315.523C296.835 316.258 297.419 317.182 297.835 318.295C298.252 319.402 298.46 320.697 298.46 322.182V323.511H283.722V320.511H293.903C293.903 319.814 293.752 319.197 293.449 318.659C293.146 318.121 292.725 317.701 292.188 317.398C291.657 317.087 291.04 316.932 290.335 316.932C289.6 316.932 288.949 317.102 288.381 317.443C287.82 317.777 287.381 318.227 287.062 318.795C286.744 319.356 286.581 319.981 286.574 320.67V323.523C286.574 324.386 286.733 325.133 287.051 325.761C287.377 326.39 287.835 326.875 288.426 327.216C289.017 327.557 289.718 327.727 290.528 327.727C291.066 327.727 291.559 327.652 292.006 327.5C292.453 327.348 292.835 327.121 293.153 326.818C293.472 326.515 293.714 326.144 293.881 325.705L298.358 326C298.131 327.076 297.665 328.015 296.96 328.818C296.263 329.614 295.362 330.235 294.256 330.682C293.157 331.121 291.888 331.341 290.449 331.341Z" fill="#4BA70D"/>
<path d="M301.619 331V313.545H306.312V316.591H306.494C306.813 315.508 307.347 314.689 308.097 314.136C308.847 313.576 309.71 313.295 310.688 313.295C310.93 313.295 311.191 313.311 311.472 313.341C311.752 313.371 311.998 313.413 312.21 313.466V317.761C311.983 317.693 311.669 317.633 311.267 317.58C310.866 317.527 310.498 317.5 310.165 317.5C309.453 317.5 308.816 317.655 308.256 317.966C307.703 318.269 307.263 318.693 306.938 319.239C306.619 319.784 306.46 320.413 306.46 321.125V331H301.619Z" fill="#4BA70D"/>
<path d="M218.726 542H210.476V518.727H218.794C221.135 518.727 223.15 519.193 224.839 520.125C226.529 521.049 227.828 522.379 228.737 524.114C229.654 525.848 230.112 527.924 230.112 530.341C230.112 532.765 229.654 534.848 228.737 536.591C227.828 538.333 226.521 539.67 224.817 540.602C223.12 541.534 221.089 542 218.726 542ZM215.396 537.784H218.521C219.976 537.784 221.199 537.527 222.192 537.011C223.192 536.489 223.942 535.682 224.442 534.591C224.949 533.492 225.203 532.076 225.203 530.341C225.203 528.621 224.949 527.216 224.442 526.125C223.942 525.034 223.196 524.231 222.203 523.716C221.211 523.201 219.987 522.943 218.533 522.943H215.396V537.784Z" fill="#4BA70D"/>
<path d="M241.621 542.341C239.825 542.341 238.28 541.977 236.984 541.25C235.696 540.515 234.704 539.477 234.007 538.136C233.31 536.788 232.962 535.193 232.962 533.352C232.962 531.557 233.31 529.981 234.007 528.625C234.704 527.269 235.685 526.212 236.95 525.455C238.223 524.697 239.715 524.318 241.428 524.318C242.579 524.318 243.651 524.504 244.643 524.875C245.643 525.239 246.515 525.788 247.257 526.523C248.007 527.258 248.59 528.182 249.007 529.295C249.424 530.402 249.632 531.697 249.632 533.182V534.511H234.893V531.511H245.075C245.075 530.814 244.924 530.197 244.621 529.659C244.318 529.121 243.897 528.701 243.359 528.398C242.829 528.087 242.212 527.932 241.507 527.932C240.772 527.932 240.121 528.102 239.553 528.443C238.992 528.777 238.553 529.227 238.234 529.795C237.916 530.356 237.753 530.981 237.746 531.67V534.523C237.746 535.386 237.905 536.133 238.223 536.761C238.549 537.39 239.007 537.875 239.598 538.216C240.189 538.557 240.89 538.727 241.7 538.727C242.238 538.727 242.731 538.652 243.178 538.5C243.625 538.348 244.007 538.121 244.325 537.818C244.643 537.515 244.886 537.144 245.053 536.705L249.53 537C249.303 538.076 248.837 539.015 248.132 539.818C247.435 540.614 246.534 541.235 245.428 541.682C244.329 542.121 243.06 542.341 241.621 542.341Z" fill="#4BA70D"/>
<path d="M257.632 518.727V542H252.791V518.727H257.632Z" fill="#4BA70D"/>
<path d="M261.51 542V524.545H266.351V542H261.51ZM263.942 522.295C263.222 522.295 262.605 522.057 262.089 521.58C261.582 521.095 261.328 520.515 261.328 519.841C261.328 519.174 261.582 518.602 262.089 518.125C262.605 517.64 263.222 517.398 263.942 517.398C264.661 517.398 265.275 517.64 265.783 518.125C266.298 518.602 266.555 519.174 266.555 519.841C266.555 520.515 266.298 521.095 265.783 521.58C265.275 522.057 264.661 522.295 263.942 522.295Z" fill="#4BA70D"/>
<path d="M275.07 518.727V542H270.229V518.727H275.07Z" fill="#4BA70D"/>
<path d="M283.925 542.33C282.811 542.33 281.819 542.136 280.947 541.75C280.076 541.356 279.387 540.777 278.879 540.011C278.379 539.239 278.129 538.277 278.129 537.125C278.129 536.155 278.307 535.341 278.663 534.682C279.019 534.023 279.504 533.492 280.118 533.091C280.732 532.689 281.428 532.386 282.209 532.182C282.997 531.977 283.822 531.833 284.686 531.75C285.701 531.644 286.519 531.545 287.141 531.455C287.762 531.356 288.213 531.212 288.493 531.023C288.773 530.833 288.913 530.553 288.913 530.182V530.114C288.913 529.394 288.686 528.837 288.232 528.443C287.785 528.049 287.148 527.852 286.322 527.852C285.451 527.852 284.758 528.045 284.243 528.432C283.728 528.811 283.387 529.288 283.22 529.864L278.743 529.5C278.97 528.439 279.417 527.523 280.084 526.75C280.75 525.97 281.61 525.371 282.663 524.955C283.724 524.53 284.951 524.318 286.345 524.318C287.315 524.318 288.243 524.432 289.129 524.659C290.023 524.886 290.815 525.239 291.504 525.716C292.201 526.193 292.75 526.807 293.152 527.557C293.553 528.299 293.754 529.189 293.754 530.227V542H289.163V539.58H289.027C288.747 540.125 288.372 540.606 287.902 541.023C287.432 541.432 286.868 541.754 286.209 541.989C285.55 542.216 284.788 542.33 283.925 542.33ZM285.311 538.989C286.023 538.989 286.652 538.848 287.197 538.568C287.743 538.28 288.171 537.894 288.482 537.409C288.792 536.924 288.947 536.375 288.947 535.761V533.909C288.796 534.008 288.588 534.098 288.322 534.182C288.065 534.258 287.773 534.33 287.447 534.398C287.122 534.458 286.796 534.515 286.47 534.568C286.144 534.614 285.849 534.655 285.584 534.693C285.016 534.777 284.519 534.909 284.095 535.091C283.671 535.273 283.341 535.519 283.107 535.83C282.872 536.133 282.754 536.511 282.754 536.966C282.754 537.625 282.993 538.129 283.47 538.477C283.955 538.818 284.569 538.989 285.311 538.989Z" fill="#4BA70D"/>
<path d="M302.351 531.909V542H297.51V518.727H302.214V527.625H302.419C302.813 526.595 303.449 525.788 304.328 525.205C305.207 524.614 306.309 524.318 307.635 524.318C308.847 524.318 309.904 524.583 310.805 525.114C311.714 525.636 312.419 526.39 312.919 527.375C313.427 528.352 313.677 529.523 313.669 530.886V542H308.828V531.75C308.836 530.674 308.563 529.837 308.01 529.239C307.464 528.64 306.699 528.341 305.714 528.341C305.055 528.341 304.472 528.481 303.964 528.761C303.464 529.042 303.071 529.451 302.783 529.989C302.502 530.519 302.358 531.159 302.351 531.909Z" fill="#4BA70D"/>
<path d="M241.455 747.25C241.295 746.697 241.072 746.208 240.784 745.784C240.496 745.352 240.144 744.989 239.727 744.693C239.318 744.39 238.848 744.159 238.318 744C237.795 743.841 237.216 743.761 236.58 743.761C235.39 743.761 234.345 744.057 233.443 744.648C232.549 745.239 231.852 746.099 231.352 747.227C230.852 748.349 230.602 749.72 230.602 751.341C230.602 752.962 230.848 754.341 231.341 755.477C231.833 756.614 232.53 757.481 233.432 758.08C234.333 758.67 235.398 758.966 236.625 758.966C237.739 758.966 238.689 758.769 239.477 758.375C240.273 757.973 240.879 757.409 241.295 756.682C241.72 755.955 241.932 755.095 241.932 754.102L242.932 754.25H236.932V750.545H246.67V753.477C246.67 755.523 246.239 757.28 245.375 758.75C244.511 760.212 243.322 761.341 241.807 762.136C240.292 762.924 238.557 763.318 236.602 763.318C234.42 763.318 232.504 762.837 230.852 761.875C229.201 760.905 227.913 759.53 226.989 757.75C226.072 755.962 225.614 753.841 225.614 751.386C225.614 749.5 225.886 747.818 226.432 746.341C226.985 744.856 227.758 743.598 228.75 742.568C229.742 741.538 230.898 740.754 232.216 740.216C233.534 739.678 234.962 739.409 236.5 739.409C237.818 739.409 239.045 739.602 240.182 739.989C241.318 740.367 242.326 740.905 243.205 741.602C244.091 742.299 244.814 743.129 245.375 744.091C245.936 745.045 246.295 746.098 246.455 747.25H241.455Z" fill="#4BA70D"/>
<path d="M250.276 763V745.545H254.969V748.591H255.151C255.469 747.508 256.003 746.689 256.753 746.136C257.503 745.576 258.366 745.295 259.344 745.295C259.586 745.295 259.848 745.311 260.128 745.341C260.408 745.371 260.654 745.413 260.866 745.466V749.761C260.639 749.693 260.325 749.633 259.923 749.58C259.522 749.526 259.154 749.5 258.821 749.5C258.109 749.5 257.473 749.655 256.912 749.966C256.359 750.269 255.92 750.693 255.594 751.239C255.276 751.784 255.116 752.413 255.116 753.125V763H250.276Z" fill="#4BA70D"/>
<path d="M270.511 763.341C268.716 763.341 267.17 762.977 265.875 762.25C264.587 761.515 263.595 760.477 262.898 759.136C262.201 757.788 261.852 756.193 261.852 754.352C261.852 752.557 262.201 750.981 262.898 749.625C263.595 748.269 264.576 747.212 265.841 746.455C267.114 745.697 268.606 745.318 270.318 745.318C271.47 745.318 272.542 745.504 273.534 745.875C274.534 746.239 275.405 746.788 276.148 747.523C276.898 748.258 277.481 749.182 277.898 750.295C278.314 751.402 278.523 752.697 278.523 754.182V755.511H263.784V752.511H273.966C273.966 751.814 273.814 751.197 273.511 750.659C273.208 750.121 272.788 749.701 272.25 749.398C271.72 749.087 271.102 748.932 270.398 748.932C269.663 748.932 269.011 749.102 268.443 749.443C267.883 749.777 267.443 750.227 267.125 750.795C266.807 751.356 266.644 751.981 266.636 752.67V755.523C266.636 756.386 266.795 757.133 267.114 757.761C267.439 758.39 267.898 758.875 268.489 759.216C269.08 759.557 269.78 759.727 270.591 759.727C271.129 759.727 271.621 759.652 272.068 759.5C272.515 759.348 272.898 759.121 273.216 758.818C273.534 758.515 273.777 758.144 273.943 757.705L278.42 758C278.193 759.076 277.727 760.015 277.023 760.818C276.326 761.614 275.424 762.235 274.318 762.682C273.22 763.121 271.951 763.341 270.511 763.341Z" fill="#4BA70D"/>
<path d="M289.545 769.909C287.977 769.909 286.633 769.693 285.511 769.261C284.398 768.837 283.511 768.258 282.852 767.523C282.193 766.788 281.765 765.962 281.568 765.045L286.045 764.443C286.182 764.792 286.398 765.117 286.693 765.42C286.989 765.724 287.379 765.966 287.864 766.148C288.356 766.337 288.955 766.432 289.659 766.432C290.712 766.432 291.58 766.174 292.261 765.659C292.951 765.152 293.295 764.299 293.295 763.102V759.909H293.091C292.879 760.394 292.561 760.852 292.136 761.284C291.712 761.716 291.167 762.068 290.5 762.341C289.833 762.614 289.038 762.75 288.114 762.75C286.803 762.75 285.61 762.447 284.534 761.841C283.466 761.227 282.614 760.292 281.977 759.034C281.348 757.769 281.034 756.17 281.034 754.239C281.034 752.261 281.356 750.61 282 749.284C282.644 747.958 283.5 746.966 284.568 746.307C285.644 745.648 286.822 745.318 288.102 745.318C289.08 745.318 289.898 745.485 290.557 745.818C291.216 746.144 291.746 746.553 292.148 747.045C292.557 747.53 292.871 748.008 293.091 748.477H293.273V745.545H298.08V763.17C298.08 764.655 297.716 765.898 296.989 766.898C296.261 767.898 295.254 768.648 293.966 769.148C292.686 769.655 291.212 769.909 289.545 769.909ZM289.648 759.114C290.428 759.114 291.087 758.92 291.625 758.534C292.17 758.14 292.587 757.58 292.875 756.852C293.17 756.117 293.318 755.239 293.318 754.216C293.318 753.193 293.174 752.307 292.886 751.557C292.598 750.799 292.182 750.212 291.636 749.795C291.091 749.379 290.428 749.17 289.648 749.17C288.852 749.17 288.182 749.386 287.636 749.818C287.091 750.242 286.678 750.833 286.398 751.591C286.117 752.348 285.977 753.223 285.977 754.216C285.977 755.223 286.117 756.095 286.398 756.83C286.686 757.557 287.098 758.121 287.636 758.523C288.182 758.917 288.852 759.114 289.648 759.114Z" fill="#4BA70D"/>
<path d="M239.267 258.768C241.573 259.629 244.132 260.326 246.932 260.871C251.594 261.77 256.915 262.226 262.831 262.226C266.48 262.226 275.26 261.58 282.088 259.667C283.064 259.388 284.001 259.097 284.875 258.768C288.233 257.513 292.983 254.232 296.48 248.721C292.325 249.101 288.98 246.365 285.978 241.753C281.721 235.241 279.098 229.135 273.372 223.396C271.32 221.344 268.862 219.152 268.95 216.403C269.064 212.906 275.792 202.758 273.245 187.872C273.157 187.872 273.068 187.847 272.967 187.834C269.837 187.416 266.797 187.251 264.732 187.175C264.276 187.163 263.858 187.15 263.503 187.15C263.148 187.15 262.857 187.15 262.629 187.15C262.287 187.15 262.097 187.15 262.084 187.15C262.008 187.15 256.801 187.099 251.189 187.746C251.1 187.746 251.011 187.771 250.923 187.784C248.325 202.72 255.091 212.893 255.205 216.403C255.293 219.152 252.823 221.344 250.783 223.396C245.057 229.148 242.434 235.254 238.178 241.753C235.162 246.352 231.818 249.101 227.675 248.708C231.172 254.207 235.91 257.501 239.28 258.755L239.267 258.768ZM258.524 224.98C259.702 224.878 260.893 224.929 262.071 224.929C263.249 224.929 264.44 224.891 265.619 224.98C269.242 225.284 271.725 227.716 269.736 230.871C268.368 233.037 265.606 235.317 262.071 235.317C258.537 235.317 255.775 233.05 254.407 230.871C252.418 227.703 254.888 225.284 258.524 224.98ZM238.874 249.165C239.977 250.52 242.244 250.951 243.917 250.14C245.652 249.291 247.451 247.581 249.352 245.769C252.772 242.513 256.624 238.852 261.742 238.599C261.78 238.599 261.818 238.573 261.869 238.573C261.945 238.573 262.008 238.573 262.084 238.573C262.16 238.573 262.223 238.573 262.299 238.573C262.299 238.573 262.375 238.586 262.426 238.599C266.873 238.814 270.382 241.627 273.461 244.49C273.917 244.92 274.373 245.351 274.816 245.769C276.717 247.581 278.503 249.291 280.239 250.14C281.911 250.951 284.179 250.52 285.281 249.165C285.597 248.784 286.155 248.734 286.522 249.038C286.902 249.342 286.953 249.912 286.649 250.279C285.572 251.584 283.836 252.306 282.075 252.306C281.176 252.306 280.277 252.116 279.453 251.724C277.464 250.761 275.576 248.949 273.575 247.049C270.167 243.806 266.645 240.448 262.071 240.347C257.498 240.448 253.976 243.806 250.568 247.049C248.566 248.962 246.679 250.761 244.69 251.724C243.879 252.116 242.967 252.306 242.067 252.306C241.624 252.306 241.193 252.256 240.762 252.167C239.483 251.901 238.304 251.255 237.493 250.267C237.189 249.887 237.24 249.329 237.62 249.025C238 248.708 238.558 248.772 238.862 249.152L238.874 249.165Z" fill="white"/>
<path d="M279.973 227.412C282.988 228.578 286.611 227.906 288.752 225.094C295.986 215.567 282.329 206.141 276.337 214.997C274.905 217.1 274.386 220.153 275.26 222.674C276.071 225.03 277.958 226.639 279.973 227.425V227.412ZM287.485 223.941C285.8 226.158 282.95 226.677 280.581 225.765C278.997 225.157 277.515 223.878 276.869 222.028C276.185 220.052 276.59 217.644 277.718 215.985C282.43 209.017 293.174 216.441 287.485 223.928V223.941Z" fill="white"/>
<path d="M248.123 222.674C248.997 220.166 248.477 217.112 247.046 214.997C241.053 206.141 227.396 215.567 234.63 225.094C236.771 227.919 240.395 228.578 243.41 227.412C245.424 226.639 247.312 225.018 248.123 222.661V222.674ZM235.897 223.954C230.209 216.454 240.952 209.042 245.665 216.01C246.792 217.67 247.198 220.064 246.514 222.053C245.868 223.903 244.385 225.182 242.802 225.791C240.433 226.703 237.582 226.183 235.897 223.966V223.954Z" fill="white"/>
<path d="M235.746 219.355C236.012 220.089 236.797 220.368 237.798 219.823C241.168 217.974 240.851 213.413 237.849 215.225C237.139 215.655 236.366 216.491 235.974 217.34C235.593 218.138 235.568 218.861 235.758 219.355H235.746Z" fill="white"/>
<path d="M280.644 215.149C279.935 215.579 279.162 216.415 278.769 217.264C278.389 218.062 278.364 218.785 278.554 219.279C278.82 220.013 279.605 220.292 280.606 219.747C283.976 217.898 283.659 213.337 280.657 215.149H280.644Z" fill="white"/>
<path d="M259.271 226.183C258.461 226.234 257.397 226.589 256.611 227.095C255.876 227.564 255.471 228.122 255.357 228.578C255.179 229.262 255.674 229.781 256.776 229.743C260.5 229.629 262.679 225.942 259.271 226.183Z" fill="white"/>
<path d="M305.501 161.42C298.013 158.379 288.423 175.457 283.875 185.909C283.305 187.226 282.798 188.43 282.405 189.481C289.183 193.662 294.732 198.375 298.748 203.734C299.685 203.43 301.028 202.872 302.321 201.986C304.829 200.263 307.046 197.298 305.272 192.573C304.398 190.241 312.304 164.194 305.513 161.432L305.501 161.42Z" fill="white"/>
<path d="M241.75 189.481C241.358 188.43 240.851 187.214 240.281 185.909C235.72 175.47 226.13 158.379 218.655 161.42C211.864 164.182 219.757 190.241 218.896 192.56C217.135 197.285 219.352 200.25 221.847 201.973C223.127 202.86 224.483 203.417 225.42 203.721C229.436 198.362 234.985 193.649 241.763 189.469L241.75 189.481Z" fill="white"/>
<path d="M310.872 184.515C310.986 183.844 311.113 183.159 311.24 182.45C313.14 171.719 315.294 157.15 308.427 154.54C308.351 154.515 308.262 154.49 308.186 154.464C298.533 151.132 287.422 167.285 280.758 180.41C280.087 181.728 279.466 183.007 278.896 184.236C278.478 185.149 278.085 186.023 277.717 186.871C276.337 186.555 274.829 186.289 273.207 186.086C267.506 185.326 262.122 185.377 262.084 185.377C262.084 185.377 262.059 185.377 262.008 185.377C261.97 185.377 261.907 185.377 261.818 185.377C260.69 185.377 255.99 185.402 250.973 185.985C249.326 186.175 247.781 186.415 246.349 186.694C240.522 173.303 227.029 150.22 215.703 154.528C215.475 154.616 215.26 154.718 215.044 154.832C214.626 155.06 214.246 155.339 213.904 155.655C213.727 155.82 213.575 155.985 213.41 156.175C211.56 158.379 210.952 162.154 211.003 166.5C211.066 172.29 212.282 179.093 213.245 184.502C213.739 187.264 214.297 190.343 214.284 191.508C214.284 191.673 214.284 191.8 214.246 191.888C213.891 192.965 213.625 193.966 213.448 194.916C212.675 199.034 213.613 202.036 216.273 204.253C217.755 205.469 219.466 206.458 221.657 207.345C221.581 208.016 221.531 208.662 221.505 209.283C221.467 210.524 221.581 211.766 221.746 212.995C221.847 213.755 221.962 214.502 222.076 215.237C222.506 217.936 222.912 220.495 222.342 222.953C219.719 234.38 222.266 242.741 225.141 247.986C225.331 248.341 225.521 248.671 225.724 249C228.917 254.334 233.744 258.603 238.621 260.427C239.419 260.719 240.243 260.997 241.092 261.264C247.046 263.088 254.331 264 262.806 264C265.885 264 275.576 263.455 283.19 261.187C283.976 260.947 284.749 260.693 285.471 260.427C286.066 260.212 286.649 259.946 287.232 259.655C287.257 259.655 287.27 259.642 287.295 259.629C287.764 259.401 288.233 259.135 288.689 258.856C292.401 256.652 295.885 253.143 298.368 249L298.495 248.785C298.571 248.645 298.659 248.493 298.735 248.354C298.837 248.189 298.925 248.024 299.027 247.847C299.115 247.67 299.217 247.492 299.305 247.302C299.394 247.125 299.495 246.935 299.584 246.745C299.673 246.555 299.761 246.365 299.85 246.175C299.939 245.972 300.04 245.782 300.129 245.579C300.218 245.377 300.294 245.174 300.382 244.959C300.471 244.743 300.56 244.541 300.648 244.325C300.737 244.11 300.813 243.894 300.889 243.666C300.965 243.438 301.054 243.223 301.13 242.982C301.206 242.754 301.269 242.513 301.345 242.285C301.421 242.045 301.497 241.817 301.573 241.563C301.636 241.323 301.7 241.069 301.763 240.816C301.827 240.562 301.89 240.322 301.953 240.068C302.017 239.815 302.067 239.536 302.118 239.283C302.169 239.017 302.232 238.763 302.283 238.497C302.333 238.219 302.371 237.94 302.409 237.661C302.447 237.383 302.498 237.117 302.536 236.838C302.574 236.546 302.599 236.242 302.637 235.938C302.663 235.66 302.701 235.381 302.726 235.102C302.751 234.785 302.764 234.456 302.777 234.127C302.789 233.848 302.815 233.569 302.815 233.278C302.815 232.923 302.815 232.568 302.815 232.201C302.815 231.922 302.815 231.656 302.815 231.377C302.815 230.985 302.777 230.592 302.751 230.187C302.739 229.921 302.726 229.667 302.713 229.401C302.675 228.932 302.625 228.464 302.574 227.982C302.549 227.767 302.536 227.551 302.511 227.336C302.435 226.69 302.321 226.019 302.207 225.347C302.207 225.296 302.194 225.246 302.181 225.195C302.055 224.46 301.903 223.725 301.725 222.965C301.155 220.495 301.56 217.936 301.991 215.225C302.295 213.286 302.612 211.297 302.549 209.283C302.523 208.624 302.473 207.965 302.397 207.357C304.588 206.47 306.299 205.482 307.768 204.266C309.403 202.91 310.391 201.251 310.72 199.211C311.05 197.171 310.745 194.764 309.795 191.914C309.605 191.293 310.15 188.138 310.682 185.149C310.72 184.946 310.758 184.73 310.796 184.528L310.872 184.515ZM305.26 192.56C307.033 197.285 304.804 200.25 302.308 201.973C301.028 202.86 299.673 203.417 298.735 203.721C294.719 198.362 289.17 193.649 282.392 189.469C282.785 188.417 283.292 187.201 283.862 185.896C288.423 175.457 298.013 158.366 305.488 161.407C312.278 164.169 304.386 190.229 305.247 192.547L305.26 192.56ZM276.337 214.997C282.329 206.141 295.986 215.567 288.752 225.094C286.611 227.919 282.988 228.578 279.973 227.412C277.958 226.639 276.071 225.018 275.26 222.661C274.386 220.153 274.905 217.1 276.337 214.984V214.997ZM234.63 225.094C227.397 215.567 241.054 206.141 247.046 214.997C248.478 217.1 248.997 220.153 248.123 222.674C247.312 225.03 245.424 226.639 243.41 227.425C240.395 228.59 236.772 227.919 234.63 225.106V225.094ZM221.848 201.973C219.339 200.25 217.122 197.285 218.896 192.56C219.77 190.229 211.864 164.181 218.655 161.42C226.142 158.379 235.733 175.457 240.281 185.909C240.851 187.226 241.345 188.43 241.75 189.481C234.973 193.662 229.424 198.375 225.407 203.734C224.47 203.43 223.127 202.872 221.835 201.986L221.848 201.973ZM238.178 241.753C242.435 235.242 245.057 229.135 250.783 223.396C252.823 221.344 255.294 219.152 255.205 216.403C255.091 212.893 248.338 202.72 250.923 187.784C251.011 187.784 251.1 187.758 251.189 187.746C256.801 187.087 262.008 187.15 262.084 187.15C262.084 187.15 262.287 187.15 262.629 187.15C262.857 187.15 263.161 187.15 263.503 187.15C263.858 187.15 264.263 187.163 264.732 187.176C266.797 187.239 269.837 187.404 272.967 187.834C273.055 187.834 273.144 187.86 273.245 187.872C275.792 202.758 269.065 212.893 268.951 216.403C268.862 219.152 271.32 221.344 273.372 223.396C279.098 229.148 281.721 235.254 285.978 241.753C288.993 246.352 292.337 249.101 296.48 248.721C292.984 254.22 288.245 257.513 284.875 258.768C284.001 259.097 283.064 259.388 282.088 259.667C275.247 261.58 266.467 262.226 262.831 262.226C256.902 262.226 251.594 261.77 246.932 260.871C244.132 260.326 241.573 259.629 239.267 258.768C235.91 257.513 231.159 254.232 227.663 248.721C231.818 249.114 235.163 246.365 238.165 241.766L238.178 241.753Z" fill="#231F20"/>
<path d="M246.514 222.04C247.198 220.064 246.793 217.657 245.665 215.997C240.952 209.029 230.209 216.453 235.897 223.941C237.582 226.158 240.433 226.677 242.802 225.765C244.385 225.157 245.868 223.877 246.514 222.028V222.04ZM237.848 215.224C240.851 213.413 241.168 217.974 237.798 219.823C236.797 220.368 236.024 220.089 235.745 219.355C235.568 218.86 235.593 218.138 235.961 217.34C236.366 216.491 237.126 215.655 237.836 215.224H237.848Z" fill="#231F20"/>
<path d="M277.717 215.997C276.59 217.657 276.184 220.051 276.868 222.04C277.515 223.89 278.997 225.17 280.58 225.778C282.95 226.69 285.8 226.17 287.485 223.953C293.173 216.453 282.43 209.042 277.717 216.01V215.997ZM280.593 219.747C279.592 220.292 278.82 220.013 278.541 219.279C278.363 218.784 278.389 218.062 278.756 217.264C279.162 216.415 279.922 215.579 280.631 215.148C283.634 213.337 283.95 217.898 280.58 219.747H280.593Z" fill="#231F20"/>
<path d="M254.419 230.883C255.788 233.05 258.55 235.33 262.084 235.33C265.619 235.33 268.381 233.062 269.749 230.883C271.738 227.716 269.267 225.296 265.631 224.992C264.453 224.891 263.262 224.942 262.084 224.942C260.906 224.942 259.715 224.904 258.537 224.992C254.914 225.296 252.43 227.729 254.419 230.883ZM256.776 229.756C255.674 229.794 255.192 229.262 255.357 228.59C255.471 228.134 255.876 227.589 256.611 227.108C257.397 226.601 258.461 226.259 259.272 226.196C262.68 225.968 260.501 229.642 256.776 229.756Z" fill="#231F20"/>
<path d="M237.633 249.038C237.253 249.342 237.202 249.912 237.506 250.28C238.317 251.268 239.495 251.914 240.775 252.18C241.206 252.269 241.636 252.319 242.08 252.319C242.979 252.319 243.879 252.129 244.702 251.737C246.691 250.774 248.579 248.962 250.581 247.062C253.989 243.818 257.511 240.461 262.084 240.36C266.658 240.461 270.18 243.818 273.588 247.062C275.589 248.975 277.477 250.774 279.466 251.737C280.277 252.129 281.189 252.319 282.088 252.319C283.849 252.319 285.585 251.597 286.662 250.292C286.966 249.912 286.915 249.355 286.535 249.051C286.155 248.747 285.598 248.797 285.294 249.177C284.179 250.533 281.924 250.964 280.251 250.153C278.516 249.304 276.717 247.594 274.829 245.782C274.386 245.364 273.942 244.933 273.473 244.503C270.395 241.627 266.886 238.827 262.439 238.612C262.401 238.612 262.363 238.586 262.312 238.586C262.236 238.586 262.173 238.586 262.097 238.586C262.021 238.586 261.957 238.586 261.881 238.586C261.881 238.586 261.805 238.599 261.755 238.612C256.636 238.865 252.785 242.526 249.365 245.782C247.464 247.594 245.678 249.304 243.929 250.153C242.257 250.964 239.989 250.533 238.887 249.177C238.583 248.797 238.013 248.747 237.646 249.051L237.633 249.038Z" fill="#231F20"/>
<path d="M248.829 651.965C251.728 648.267 249.75 642.429 245.876 641.305C243.059 640.492 240.336 639.856 237.871 640.628C236.368 641.088 234.959 642.077 233.686 643.838C235.934 648.768 243.939 658.196 248.829 651.965ZM238.982 642.104C240.865 641.535 242.951 642.009 245.104 642.619C248.057 643.459 249.574 647.834 247.366 650.597C243.628 655.27 237.506 648.199 235.799 644.515C236.774 643.188 237.844 642.456 238.995 642.104H238.982Z" fill="white"/>
<path d="M277.965 641.494C274.118 642.592 272.14 648.267 275.025 651.856C279.888 657.925 287.853 648.741 290.074 643.96C288.814 642.239 287.406 641.291 285.916 640.831C283.464 640.086 280.755 640.695 277.951 641.494H277.965ZM287.947 644.502C286.241 648.186 280.118 655.256 276.38 650.583C274.158 647.82 275.676 643.445 278.642 642.605C280.796 641.996 282.868 641.522 284.764 642.09C285.916 642.443 286.986 643.174 287.961 644.502H287.947Z" fill="white"/>
<path d="M292.498 683.227C292.593 683.159 298.323 679.109 302.766 673.556C304.486 667.135 305.258 658.67 297.51 654.064C297.51 654.064 287.568 650.312 273.562 658.25C273.332 656.841 272.465 655.5 270.731 654.349C269.133 653.292 267.128 653.509 265.286 653.699C260.816 654.159 251.985 652.371 249.574 657.925C249.533 658.006 249.506 658.087 249.479 658.169C235.501 650.529 225.003 655.595 225.003 655.595C217.296 659.523 218.651 667.786 220.615 674.233C224.976 679.448 230.259 683.186 230.34 683.254C233.564 685.53 235.975 687.142 238.169 688.483C262.401 701.879 286.647 687.236 286.877 687.087C288.53 686.017 290.318 684.798 292.498 683.254V683.227ZM251.85 658.873C253.8 654.674 260.925 656.028 264.528 655.676C266.018 655.527 267.63 655.365 268.93 656.164C275.323 660.133 266.979 667.068 263.498 667.894C261.751 668.3 259.895 668.192 257.958 667.474C255.141 666.431 250.048 662.747 251.863 658.859L251.85 658.873ZM277.409 672.283C276.949 672.553 276.488 672.838 276.014 673.136C273.007 675.005 269.269 677.321 261.792 677.47C261.575 677.47 261.372 677.47 261.169 677.47C254.247 677.47 250.387 675.276 247.258 673.502L246.432 673.028C245.971 672.77 245.808 672.201 246.066 671.741C246.323 671.28 246.892 671.118 247.353 671.375L248.192 671.849C251.362 673.651 254.951 675.682 261.751 675.574C268.713 675.439 272.045 673.366 274.998 671.524C275.486 671.226 275.96 670.928 276.448 670.644C276.894 670.373 277.477 670.535 277.748 670.982C278.005 671.429 277.856 672.012 277.409 672.283Z" fill="white"/>
<path d="M239.104 610.612C235.826 605.979 228.959 597.825 219.965 595.644C219.965 595.644 216.308 605.79 223.933 624.048C224.529 625.471 225.18 626.934 225.911 628.437C225.911 628.437 232.426 618.062 241.217 613.863C241.217 613.863 240.472 612.535 239.104 610.598V610.612Z" fill="white"/>
<path d="M303.578 595.644C294.584 597.825 287.717 605.979 284.439 610.612C283.071 612.549 282.326 613.876 282.326 613.876C291.103 618.075 297.632 628.451 297.632 628.451C298.364 626.934 299.014 625.471 299.61 624.062C307.236 605.803 303.578 595.658 303.578 595.658V595.644Z" fill="white"/>
<path d="M253.976 661.094C254.884 661.595 255.994 661.365 256.956 660.918C257.484 660.674 257.999 660.336 258.351 659.808C260.044 657.166 256.618 656.801 255.06 657.302C253.285 657.884 251.944 659.984 253.976 661.094Z" fill="white"/>
<path d="M277.179 645.328C276.366 646.696 276.624 648.592 278.479 647.942C279.306 647.644 279.888 646.858 280.267 646.046C280.471 645.599 280.633 645.111 280.565 644.623C280.254 642.226 277.911 644.122 277.193 645.328H277.179Z" fill="white"/>
<path d="M272.005 636.767C268.767 643.418 277.369 641.698 279.901 638.487C281.134 636.93 282.245 634.722 281.242 632.975C280.43 631.552 278.506 631.227 277.016 631.796C275.052 632.555 272.926 634.844 271.991 636.767H272.005Z" fill="white"/>
<path d="M241.244 645.003C241.447 644.556 241.61 644.068 241.542 643.58C241.23 641.183 238.887 643.079 238.169 644.285C237.356 645.653 237.614 647.549 239.469 646.899C240.296 646.601 240.878 645.815 241.257 645.003H241.244Z" fill="white"/>
<path d="M251.728 636.767C250.793 634.844 248.666 632.555 246.702 631.796C245.226 631.227 243.289 631.552 242.476 632.975C241.488 634.708 242.585 636.93 243.817 638.487C246.35 641.698 254.951 643.418 251.714 636.767H251.728Z" fill="white"/>
<path d="M214.343 651.911C213.639 654.796 212.867 658.616 213.07 662.462C213.68 673.786 228.633 684.338 229.256 684.785C232.507 687.087 234.959 688.726 237.194 690.094C237.194 690.094 237.221 690.108 237.234 690.108C245.145 694.483 253.055 696 260.193 696C275.797 696 287.717 688.78 287.907 688.672C289.6 687.575 291.401 686.342 293.596 684.785C294.232 684.338 309.186 673.786 309.796 662.462C309.999 658.616 309.227 654.796 308.522 651.911C306.924 645.314 304.797 638.84 302.21 632.622C315.647 612.982 312.301 589.441 309.159 586.447C309.064 586.352 308.942 586.285 308.82 586.244C307.263 585.689 304.96 586.149 301.994 587.599C294.232 591.391 283.139 601.387 278.615 609.42C274.389 607.578 268.253 606.467 261.575 606.372C261.548 606.372 261.521 606.372 261.494 606.372H261.44C261.331 606.372 261.331 606.372 261.304 606.372C254.83 606.467 248.856 607.51 244.698 609.244C240.567 601.198 229.69 591.31 222.05 587.585C219.057 586.122 216.727 585.675 215.129 586.23C215.007 586.271 214.885 586.339 214.79 586.434C211.851 589.237 208.356 613.023 220.94 631.959C218.217 638.379 215.996 645.084 214.343 651.911ZM238.183 688.455C235.988 687.114 233.577 685.503 230.354 683.227C230.259 683.159 224.976 679.434 220.628 674.206C218.664 667.772 217.31 659.496 225.017 655.568C225.017 655.568 235.514 650.502 249.493 658.141C249.52 658.06 249.547 657.979 249.588 657.898C251.999 652.344 260.83 654.132 265.3 653.672C267.142 653.482 269.147 653.265 270.745 654.322C272.492 655.473 273.346 656.814 273.576 658.223C287.582 650.285 297.524 654.037 297.524 654.037C305.272 658.656 304.499 667.108 302.779 673.529C298.336 679.082 292.607 683.132 292.512 683.2C290.331 684.744 288.543 685.963 286.891 687.033C286.647 687.182 262.401 701.824 238.183 688.428V688.455ZM237.871 640.614C240.336 639.842 243.072 640.479 245.876 641.291C249.75 642.416 251.741 648.254 248.829 651.951C243.926 658.182 235.921 648.755 233.686 643.824C234.959 642.05 236.368 641.075 237.871 640.614ZM243.844 638.487C242.612 636.93 241.501 634.722 242.504 632.975C243.316 631.552 245.24 631.227 246.73 631.796C248.694 632.555 250.82 634.844 251.755 636.767C254.992 643.418 246.391 641.698 243.858 638.487H243.844ZM241.23 613.862C232.453 618.061 225.924 628.437 225.924 628.437C225.193 626.92 224.543 625.457 223.947 624.048C216.321 605.79 219.978 595.644 219.978 595.644C228.972 597.825 235.839 605.979 239.117 610.612C240.485 612.549 241.23 613.876 241.23 613.876V613.862ZM297.646 628.437C297.646 628.437 291.13 618.061 282.34 613.862C282.34 613.862 283.085 612.535 284.453 610.598C287.731 605.966 294.598 597.812 303.592 595.631C303.592 595.631 307.249 605.776 299.623 624.035C299.027 625.457 298.377 626.92 297.646 628.423V628.437ZM290.087 643.946C287.866 648.741 279.902 657.911 275.039 651.843C272.154 648.254 274.131 642.578 277.978 641.481C280.768 640.682 283.477 640.072 285.943 640.817C287.433 641.264 288.828 642.226 290.101 643.946H290.087ZM281.256 632.975C282.245 634.708 281.148 636.93 279.915 638.487C277.382 641.698 268.781 643.418 272.018 636.767C272.953 634.844 275.079 632.555 277.044 631.796C278.52 631.227 280.457 631.552 281.27 632.975H281.256Z" fill="#231F20"/>
<path d="M257.945 667.488C259.882 668.205 261.724 668.314 263.485 667.907C266.966 667.081 275.323 660.146 268.917 656.177C267.63 655.378 266.004 655.541 264.514 655.69C260.911 656.028 253.787 654.687 251.836 658.886C250.035 662.774 255.114 666.458 257.932 667.501L257.945 667.488ZM255.046 657.302C256.604 656.8 260.045 657.166 258.338 659.808C257.999 660.336 257.471 660.674 256.943 660.918C255.981 661.379 254.87 661.595 253.963 661.094C251.931 659.984 253.272 657.871 255.046 657.302Z" fill="#231F20"/>
<path d="M276.448 670.644C275.974 670.928 275.486 671.226 274.998 671.524C272.045 673.353 268.7 675.439 261.751 675.574C254.952 675.682 251.362 673.651 248.192 671.849L247.353 671.375C246.892 671.118 246.323 671.28 246.066 671.741C245.809 672.201 245.971 672.77 246.432 673.027L247.258 673.502C250.373 675.276 254.234 677.47 261.169 677.47C261.372 677.47 261.589 677.47 261.792 677.47C269.269 677.335 273.007 675.005 276.014 673.136C276.488 672.838 276.949 672.553 277.409 672.283C277.856 672.025 278.019 671.443 277.748 670.982C277.477 670.535 276.908 670.373 276.448 670.644Z" fill="#231F20"/>
<path d="M278.628 642.605C275.676 643.445 274.158 647.82 276.366 650.583C280.105 655.256 286.227 648.186 287.934 644.502C286.959 643.174 285.889 642.443 284.737 642.091C282.854 641.522 280.768 641.996 278.615 642.605H278.628ZM280.254 646.032C279.888 646.845 279.306 647.631 278.466 647.929C276.61 648.592 276.353 646.696 277.165 645.314C277.883 644.109 280.24 642.212 280.538 644.61C280.606 645.098 280.443 645.585 280.24 646.032H280.254Z" fill="#231F20"/>
<path d="M247.353 650.597C249.574 647.834 248.057 643.459 245.091 642.619C242.937 642.009 240.865 641.535 238.968 642.104C237.817 642.456 236.747 643.188 235.772 644.515C237.478 648.199 243.601 655.27 247.339 650.597H247.353ZM238.156 644.298C238.874 643.093 241.23 641.197 241.528 643.594C241.596 644.082 241.434 644.569 241.23 645.016C240.865 645.829 240.282 646.615 239.442 646.913C237.587 647.576 237.329 645.68 238.142 644.298H238.156Z" fill="#231F20"/>
<path d="M271.651 420.848C271.708 422.758 272.249 428.515 280.244 427.802C285.218 427.361 288.054 422.458 288.054 422.074C288.025 420.164 285.075 409.134 278.263 409.048C272.891 408.977 271.58 418.625 271.651 420.862V420.848ZM285.845 421.432C285.845 421.746 283.707 425.665 279.973 426.021C273.945 426.591 273.546 421.988 273.504 420.449C273.447 418.668 274.444 410.929 278.491 410.986C283.607 411.058 285.845 419.893 285.859 421.418L285.845 421.432Z" fill="white"/>
<path d="M278.79 467.563C277.608 467.662 276.425 467.591 275.271 467.32C273.147 466.822 270.938 465.525 268.801 464.256C266.221 462.732 263.556 461.164 261.134 461.05C258.055 461.121 255.433 462.803 252.897 464.427C250.958 465.667 249.134 466.836 247.096 467.32C246.284 467.506 245.443 467.605 244.602 467.605C244.26 467.605 243.918 467.577 243.576 467.548C245.244 470.185 248.137 472.166 250.987 472.508C252.882 472.736 254.778 472.436 256.801 472.123C258.212 471.895 259.68 471.667 261.162 471.638C262.687 471.681 264.155 471.909 265.566 472.123C267.575 472.436 269.485 472.736 271.38 472.508C274.216 472.166 277.109 470.185 278.776 467.563H278.79Z" fill="white"/>
<path d="M243.448 416.772C243.534 416.202 243.562 415.59 243.334 415.062C242.194 412.412 240.042 415.319 239.586 416.929C239.073 418.753 239.999 420.848 241.966 419.523C242.849 418.924 243.277 417.841 243.434 416.787L243.448 416.772Z" fill="white"/>
<path d="M278.206 418.91C279.09 418.311 279.517 417.228 279.674 416.174C279.76 415.604 279.788 414.991 279.56 414.449C278.42 411.799 276.268 414.706 275.827 416.316C275.313 418.14 276.24 420.235 278.206 418.91Z" fill="white"/>
<path d="M255.861 434.087C253.951 434.728 252.44 436.738 254.564 437.636C255.519 438.035 256.701 437.764 257.742 437.294C258.312 437.037 258.882 436.695 259.267 436.182C261.176 433.645 257.542 433.517 255.861 434.087Z" fill="white"/>
<path d="M325.021 409.048C327.172 407.21 329.025 405.3 330.578 403.348C326.645 400.897 322.84 397.134 319.135 393.472C316.028 390.408 313.107 387.501 310.185 385.42C302.533 379.934 290.605 376.969 281.242 382.727C280.771 383.012 280.159 382.869 279.874 382.399C279.76 382.214 279.731 381.986 279.745 381.786C275.128 378.765 270.14 377.083 265.366 376.998C264.397 376.984 263.4 377.026 262.43 377.069C262.031 377.083 261.632 377.098 261.233 377.112C260.763 377.112 260.364 377.083 259.965 377.069C258.996 377.026 257.998 376.984 257.029 376.998C251.642 377.098 246.925 379.121 243.234 381.473C243.363 381.758 243.377 382.1 243.192 382.399C242.907 382.869 242.294 383.012 241.824 382.727C232.446 376.969 220.533 379.934 212.88 385.42C209.958 387.515 207.037 390.408 203.93 393.472C200.239 397.134 196.42 400.897 192.487 403.348C194.04 405.286 195.893 407.196 198.045 409.048C198.102 409.091 198.144 409.134 198.201 409.177C199.171 408.421 200.154 407.68 201.208 407.067C201.907 406.654 202.705 406.326 203.517 406.326C204.329 406.341 205.184 406.782 205.484 407.552C205.64 407.937 205.626 408.378 205.598 408.806C205.469 410.473 204.942 412.112 204.101 413.552C210.913 417.927 217.44 420.05 221.573 419.209C223.625 418.796 225.905 413.822 228.314 408.564C230.694 403.376 233.672 396.906 237.734 391.605C238.076 391.163 238.688 391.078 239.13 391.42C239.572 391.748 239.643 392.375 239.315 392.816C235.396 397.947 232.589 404.032 230.124 409.39C228.342 413.267 226.86 416.487 225.292 418.596C226.233 425.679 229.511 431.95 232.888 437.807C233.116 438.22 233.373 438.619 233.615 439.032C234.328 437.664 235.24 436.41 236.422 435.327C237.506 434.344 238.66 433.432 239.843 432.648C240.299 432.349 240.926 432.463 241.225 432.933C241.524 433.389 241.41 434.016 240.94 434.315C239.814 435.056 238.774 435.883 237.762 436.809C234.185 440.087 233.373 445.488 233.059 450.333C232.774 454.68 233.857 458.613 236.123 461.406C238.703 464.584 243.035 466.209 246.655 465.368C248.351 464.969 250.046 463.886 251.828 462.732C254.464 461.05 257.443 459.126 261.162 459.041C264.141 459.183 267.033 460.879 269.812 462.518C271.907 463.758 273.888 464.926 275.727 465.354C279.346 466.195 283.693 464.584 286.258 461.392C288.524 458.599 289.607 454.666 289.322 450.319C289.008 445.474 288.196 440.073 284.619 436.795C284.063 436.282 283.465 435.783 282.866 435.313C282.439 434.971 282.353 434.344 282.695 433.916C283.037 433.489 283.664 433.403 284.092 433.745C284.733 434.244 285.374 434.785 285.973 435.327C287.156 436.41 288.068 437.678 288.78 439.046C288.823 438.975 288.852 438.918 288.894 438.847C292.756 432.178 296.433 425.836 297.203 417.813C295.835 415.732 294.495 412.811 292.927 409.39C290.462 404.018 287.669 397.933 283.736 392.816C283.408 392.375 283.479 391.748 283.921 391.42C284.363 391.078 284.99 391.163 285.317 391.605C289.379 396.906 292.343 403.376 294.737 408.564C297.16 413.822 299.44 418.796 301.478 419.209C305.611 420.036 312.138 417.927 318.95 413.552C321.045 412.212 323.082 410.687 325.006 409.034L325.021 409.048ZM208.391 401.467C207.721 399.871 211.384 397.02 213.108 396.721C215.488 396.308 216.158 397.847 215.075 399.429C214.191 400.726 212.452 402.778 210.186 402.436C209.132 402.279 208.576 401.923 208.377 401.467H208.391ZM212.68 414.335C210.414 413.822 209.83 411.271 211.512 409.661C212.21 408.991 213.079 408.535 213.792 407.894C214.448 407.31 215.003 406.597 215.73 406.113C216.001 405.927 216.329 405.799 216.642 405.728C217.184 405.6 217.754 405.657 218.181 406.013C218.637 406.383 218.823 406.996 218.979 407.566C219.948 411.029 216.414 415.19 212.652 414.335H212.68ZM243.135 400.597C243.22 399.899 243.662 399.286 244.189 398.759C245.101 397.833 246.441 397.063 248.065 397.063C252.954 397.063 252.911 401.353 250.118 402.849C247.852 404.06 242.75 403.633 243.12 400.597H243.135ZM236.536 421.432C236.551 419.907 238.788 411.072 243.904 411.001C247.937 410.944 248.935 418.682 248.892 420.463C248.849 421.988 248.436 426.605 242.422 426.035C238.674 425.679 236.536 421.746 236.551 421.447L236.536 421.432ZM271.052 436.524C270.739 441.227 265.623 444.163 261.176 443.963C256.73 444.177 251.186 441.056 251.3 436.524C251.386 433.09 256.887 432.249 261.062 432.092C261.062 432.092 261.134 432.092 261.176 432.092C261.219 432.092 261.248 432.092 261.29 432.092C265.466 432.263 271.28 433.104 271.052 436.538V436.524ZM287.911 409.576C290.918 415.162 292.984 425.081 289.407 430.581C286.173 435.541 278.178 430.068 274.501 428.7C269.47 426.833 266.406 423.698 267.661 417.756C268.558 413.509 271.337 409.162 274.914 406.968C279.232 404.303 285.132 404.445 287.911 409.59V409.576ZM314.261 408.051C311.838 405.842 310.884 400.127 315.301 399.799C316.313 399.728 317.311 400.07 318.237 400.526C319.819 401.324 321.33 402.607 321.828 404.402C323.325 409.804 317.254 410.773 314.261 408.051Z" fill="white"/>
<path d="M274.928 406.968C271.351 409.162 268.558 413.509 267.675 417.756C266.421 423.698 269.47 426.834 274.515 428.7C278.206 430.068 286.201 435.541 289.422 430.582C292.984 425.095 290.918 415.176 287.925 409.576C285.161 404.431 279.261 404.289 274.928 406.954V406.968ZM288.054 422.074C288.054 422.459 285.218 427.361 280.244 427.803C272.249 428.515 271.708 422.758 271.651 420.848C271.579 418.625 272.905 408.977 278.263 409.034C285.061 409.12 288.025 420.15 288.054 422.059V422.074Z" fill="#231F20"/>
<path d="M261.304 432.092C261.304 432.092 261.233 432.092 261.19 432.092C261.148 432.092 261.119 432.092 261.076 432.092C256.901 432.263 251.4 433.104 251.314 436.538C251.2 441.07 256.744 444.177 261.19 443.977C265.637 444.191 270.753 441.255 271.066 436.538C271.294 433.118 265.48 432.263 261.304 432.106V432.092ZM259.281 436.182C258.896 436.695 258.326 437.023 257.756 437.294C256.716 437.764 255.519 438.049 254.578 437.636C252.455 436.738 253.965 434.714 255.875 434.087C257.556 433.531 261.205 433.66 259.281 436.182Z" fill="#231F20"/>
<path d="M273.503 420.463C273.546 421.988 273.959 426.605 279.973 426.035C283.721 425.679 285.859 421.746 285.845 421.447C285.83 419.922 283.593 411.086 278.477 411.015C274.444 410.958 273.446 418.696 273.489 420.478L273.503 420.463ZM279.574 414.464C279.802 414.991 279.788 415.604 279.688 416.188C279.517 417.243 279.09 418.326 278.22 418.924C276.254 420.264 275.327 418.169 275.841 416.331C276.282 414.72 278.434 411.813 279.574 414.464Z" fill="#231F20"/>
<path d="M248.892 420.463C248.949 418.682 247.951 410.944 243.904 411.001C238.788 411.072 236.551 419.908 236.536 421.432C236.536 421.746 238.674 425.665 242.408 426.021C248.436 426.591 248.835 421.988 248.878 420.449L248.892 420.463ZM239.586 416.915C240.028 415.304 242.18 412.397 243.334 415.048C243.562 415.575 243.548 416.188 243.448 416.758C243.277 417.813 242.85 418.896 241.98 419.494C240.014 420.834 239.087 418.739 239.6 416.901L239.586 416.915Z" fill="#231F20"/>
<path d="M218.196 406.013C217.768 405.671 217.198 405.599 216.656 405.728C216.329 405.799 216.015 405.942 215.744 406.113C215.003 406.597 214.462 407.31 213.806 407.894C213.079 408.535 212.224 408.991 211.526 409.661C209.844 411.271 210.429 413.808 212.695 414.335C216.457 415.19 219.977 411.029 219.022 407.566C218.865 406.996 218.68 406.383 218.224 406.013H218.196Z" fill="#231F20"/>
<path d="M215.075 399.443C216.158 397.861 215.488 396.322 213.108 396.735C211.384 397.035 207.721 399.885 208.391 401.481C208.59 401.937 209.132 402.293 210.201 402.45C212.467 402.792 214.191 400.74 215.089 399.443H215.075Z" fill="#231F20"/>
<path d="M332.531 402.208C328.484 399.942 324.436 395.937 320.531 392.061C317.368 388.94 314.389 385.99 311.34 383.796C301.891 377.026 289.992 375.744 281.284 380.418C276.24 376.998 270.71 375.103 265.395 375.003C264.369 374.989 263.342 375.031 262.345 375.074C261.946 375.088 261.561 375.103 261.219 375.117C260.82 375.117 260.435 375.088 260.036 375.074C259.039 375.031 258.013 374.989 256.987 375.003C250.802 375.117 245.486 377.554 241.453 380.247C232.774 375.772 221.031 377.098 211.697 383.796C208.647 385.976 205.669 388.926 202.505 392.061C198.586 395.923 194.539 399.928 190.506 402.208C190.249 402.35 190.078 402.593 190.021 402.863C189.964 403.148 190.021 403.433 190.192 403.662C191.945 406.027 194.154 408.336 196.719 410.559C198.714 412.283 200.838 413.865 203.004 415.247C209.146 419.195 215.189 421.39 219.692 421.39C220.49 421.39 221.245 421.318 221.929 421.176C222.499 421.062 223.027 420.805 223.54 420.421C224.794 427.289 228.029 433.432 231.121 438.819C231.563 439.588 232.019 440.343 232.489 441.113C232.532 441.17 232.56 441.241 232.603 441.298C231.591 444.148 231.235 447.269 231.036 450.205C230.722 455.05 231.962 459.482 234.541 462.66C236.251 464.784 238.574 466.28 241.054 467.035C241.111 467.149 241.14 467.278 241.197 467.392C243.006 471.154 246.84 473.99 250.73 474.46C252.897 474.717 255.034 474.389 257.086 474.061C258.497 473.833 259.837 473.634 261.134 473.591C262.487 473.619 263.813 473.833 265.238 474.061C266.777 474.303 268.359 474.546 269.969 474.546C270.511 474.546 271.052 474.517 271.594 474.446C275.484 473.976 279.318 471.14 281.128 467.377C281.185 467.263 281.213 467.149 281.27 467.035C283.75 466.28 286.073 464.769 287.783 462.646C290.362 459.454 291.602 455.036 291.289 450.191C291.103 447.269 290.733 444.163 289.735 441.327C290.02 440.828 290.305 440.329 290.59 439.845C294.253 433.517 297.758 427.46 298.913 419.964C299.583 420.592 300.295 421.005 301.05 421.147C301.749 421.29 302.49 421.361 303.302 421.361C307.82 421.361 313.848 419.167 319.99 415.219C322.156 413.837 324.279 412.255 326.275 410.53C328.854 408.321 331.049 405.999 332.802 403.633C332.973 403.405 333.044 403.106 332.973 402.835C332.916 402.55 332.73 402.308 332.488 402.179L332.531 402.208ZM301.478 419.238C299.426 418.824 297.146 413.851 294.737 408.592C292.357 403.405 289.379 396.935 285.317 391.634C284.99 391.192 284.363 391.106 283.921 391.448C283.479 391.776 283.408 392.403 283.736 392.845C287.655 397.975 290.462 404.061 292.927 409.419C294.495 412.839 295.849 415.76 297.203 417.841C296.433 425.864 292.756 432.206 288.894 438.876C288.852 438.947 288.823 439.004 288.78 439.075C288.068 437.707 287.156 436.439 285.973 435.356C285.374 434.814 284.747 434.272 284.092 433.774C283.664 433.432 283.037 433.517 282.695 433.945C282.353 434.372 282.439 434.999 282.866 435.341C283.465 435.812 284.063 436.31 284.619 436.823C288.196 440.101 289.008 445.502 289.322 450.348C289.607 454.694 288.524 458.627 286.258 461.421C283.679 464.598 279.346 466.223 275.727 465.382C273.902 464.955 271.922 463.786 269.812 462.546C267.019 460.907 264.141 459.197 261.162 459.069C257.457 459.155 254.464 461.064 251.828 462.76C250.032 463.914 248.35 464.983 246.655 465.397C243.021 466.252 238.688 464.627 236.123 461.435C233.857 458.642 232.774 454.708 233.059 450.362C233.373 445.516 234.185 440.115 237.762 436.838C238.788 435.911 239.828 435.085 240.94 434.344C241.396 434.044 241.524 433.417 241.225 432.961C240.926 432.505 240.299 432.377 239.843 432.676C238.646 433.46 237.506 434.372 236.422 435.356C235.24 436.439 234.328 437.693 233.615 439.061C233.373 438.648 233.116 438.249 232.888 437.835C229.525 431.978 226.233 425.708 225.292 418.625C226.846 416.53 228.342 413.295 230.124 409.419C232.589 404.046 235.382 397.961 239.315 392.845C239.643 392.403 239.572 391.776 239.13 391.448C238.688 391.106 238.076 391.192 237.734 391.634C233.672 396.935 230.708 403.405 228.314 408.592C225.891 413.851 223.611 418.824 221.573 419.238C217.44 420.079 210.913 417.955 204.101 413.58C204.942 412.127 205.469 410.502 205.598 408.835C205.626 408.407 205.626 407.98 205.484 407.581C205.184 406.811 204.344 406.369 203.517 406.355C202.705 406.355 201.907 406.683 201.208 407.096C200.154 407.709 199.185 408.45 198.201 409.205C198.144 409.162 198.087 409.12 198.045 409.077C195.907 407.238 194.04 405.329 192.487 403.376C196.42 400.925 200.225 397.163 203.93 393.501C207.037 390.437 209.958 387.529 212.88 385.449C220.533 379.962 232.461 376.998 241.824 382.755C242.294 383.04 242.907 382.898 243.192 382.428C243.377 382.143 243.363 381.8 243.234 381.501C246.925 379.15 251.642 377.126 257.029 377.026C257.998 377.012 258.996 377.055 259.965 377.098C260.364 377.112 260.763 377.126 261.233 377.14C261.632 377.14 262.031 377.112 262.43 377.098C263.399 377.055 264.397 377.012 265.366 377.026C270.14 377.112 275.128 378.794 279.745 381.815C279.731 382.029 279.745 382.242 279.874 382.428C280.159 382.898 280.771 383.04 281.242 382.755C290.619 376.998 302.533 379.962 310.185 385.449C313.107 387.544 316.028 390.437 319.135 393.501C322.826 397.149 326.645 400.925 330.578 403.376C329.025 405.315 327.158 407.224 325.021 409.077C323.097 410.744 321.059 412.269 318.964 413.594C312.152 417.969 305.625 420.079 301.492 419.252L301.478 419.238ZM265.566 472.123C264.155 471.895 262.687 471.667 261.162 471.638C259.68 471.681 258.212 471.909 256.801 472.123C254.792 472.437 252.882 472.736 250.987 472.508C248.151 472.166 245.244 470.185 243.576 467.548C243.918 467.577 244.26 467.605 244.602 467.605C245.443 467.605 246.284 467.506 247.096 467.32C249.134 466.836 250.958 465.667 252.897 464.427C255.433 462.803 258.041 461.121 261.134 461.05C263.556 461.164 266.221 462.732 268.801 464.256C270.938 465.511 273.133 466.822 275.271 467.32C276.411 467.591 277.608 467.662 278.79 467.563C277.123 470.185 274.23 472.166 271.394 472.508C269.499 472.736 267.604 472.437 265.58 472.123H265.566Z" fill="#231F20"/>
<path d="M321.828 404.402C321.33 402.607 319.833 401.324 318.237 400.526C317.311 400.07 316.313 399.728 315.301 399.799C310.884 400.113 311.839 405.842 314.261 408.051C317.24 410.773 323.311 409.804 321.828 404.402Z" fill="#231F20"/>
<path d="M250.132 402.849C252.925 401.353 252.968 397.078 248.08 397.063C246.455 397.063 245.115 397.833 244.203 398.759C243.676 399.287 243.234 399.899 243.149 400.598C242.778 403.633 247.88 404.061 250.146 402.849H250.132Z" fill="#231F20"/>
</svg>
