<svg width="523" height="812" viewBox="0 0 523 812" fill="none" xmlns="http://www.w3.org/2000/svg">
<rect width="523" height="812" fill="white"/>
<path d="M218.273 542H210.023V518.727H218.341C220.682 518.727 222.697 519.193 224.386 520.125C226.076 521.049 227.375 522.379 228.284 524.114C229.201 525.848 229.659 527.924 229.659 530.341C229.659 532.765 229.201 534.848 228.284 536.591C227.375 538.333 226.068 539.67 224.364 540.602C222.667 541.534 220.636 542 218.273 542ZM214.943 537.784H218.068C219.523 537.784 220.746 537.527 221.739 537.011C222.739 536.489 223.489 535.682 223.989 534.591C224.496 533.492 224.75 532.076 224.75 530.341C224.75 528.621 224.496 527.216 223.989 526.125C223.489 525.034 222.742 524.231 221.75 523.716C220.758 523.201 219.534 522.943 218.08 522.943H214.943V537.784ZM241.168 542.341C239.372 542.341 237.827 541.977 236.531 541.25C235.243 540.515 234.251 539.477 233.554 538.136C232.857 536.788 232.509 535.193 232.509 533.352C232.509 531.557 232.857 529.981 233.554 528.625C234.251 527.269 235.232 526.212 236.497 525.455C237.77 524.697 239.262 524.318 240.974 524.318C242.126 524.318 243.198 524.504 244.19 524.875C245.19 525.239 246.062 525.788 246.804 526.523C247.554 527.258 248.137 528.182 248.554 529.295C248.971 530.402 249.179 531.697 249.179 533.182V534.511H234.44V531.511H244.622C244.622 530.814 244.471 530.197 244.168 529.659C243.865 529.121 243.444 528.701 242.906 528.398C242.376 528.087 241.759 527.932 241.054 527.932C240.319 527.932 239.668 528.102 239.099 528.443C238.539 528.777 238.099 529.227 237.781 529.795C237.463 530.356 237.3 530.981 237.293 531.67V534.523C237.293 535.386 237.452 536.133 237.77 536.761C238.096 537.39 238.554 537.875 239.145 538.216C239.736 538.557 240.437 538.727 241.247 538.727C241.785 538.727 242.277 538.652 242.724 538.5C243.171 538.348 243.554 538.121 243.872 537.818C244.19 537.515 244.433 537.144 244.599 536.705L249.077 537C248.849 538.076 248.384 539.015 247.679 539.818C246.982 540.614 246.08 541.235 244.974 541.682C243.876 542.121 242.607 542.341 241.168 542.341ZM257.179 518.727V542H252.338V518.727H257.179ZM261.057 542V524.545H265.898V542H261.057ZM263.489 522.295C262.769 522.295 262.152 522.057 261.636 521.58C261.129 521.095 260.875 520.515 260.875 519.841C260.875 519.174 261.129 518.602 261.636 518.125C262.152 517.64 262.769 517.398 263.489 517.398C264.208 517.398 264.822 517.64 265.33 518.125C265.845 518.602 266.102 519.174 266.102 519.841C266.102 520.515 265.845 521.095 265.33 521.58C264.822 522.057 264.208 522.295 263.489 522.295ZM274.616 518.727V542H269.776V518.727H274.616ZM283.472 542.33C282.358 542.33 281.366 542.136 280.494 541.75C279.623 541.356 278.934 540.777 278.426 540.011C277.926 539.239 277.676 538.277 277.676 537.125C277.676 536.155 277.854 535.341 278.21 534.682C278.566 534.023 279.051 533.492 279.665 533.091C280.278 532.689 280.975 532.386 281.756 532.182C282.544 531.977 283.369 531.833 284.233 531.75C285.248 531.644 286.066 531.545 286.688 531.455C287.309 531.356 287.759 531.212 288.04 531.023C288.32 530.833 288.46 530.553 288.46 530.182V530.114C288.46 529.394 288.233 528.837 287.778 528.443C287.331 528.049 286.695 527.852 285.869 527.852C284.998 527.852 284.305 528.045 283.79 528.432C283.275 528.811 282.934 529.288 282.767 529.864L278.29 529.5C278.517 528.439 278.964 527.523 279.631 526.75C280.297 525.97 281.157 525.371 282.21 524.955C283.271 524.53 284.498 524.318 285.892 524.318C286.862 524.318 287.79 524.432 288.676 524.659C289.57 524.886 290.362 525.239 291.051 525.716C291.748 526.193 292.297 526.807 292.699 527.557C293.1 528.299 293.301 529.189 293.301 530.227V542H288.71V539.58H288.574C288.294 540.125 287.919 540.606 287.449 541.023C286.979 541.432 286.415 541.754 285.756 541.989C285.097 542.216 284.335 542.33 283.472 542.33ZM284.858 538.989C285.57 538.989 286.199 538.848 286.744 538.568C287.29 538.28 287.718 537.894 288.028 537.409C288.339 536.924 288.494 536.375 288.494 535.761V533.909C288.343 534.008 288.134 534.098 287.869 534.182C287.612 534.258 287.32 534.33 286.994 534.398C286.669 534.458 286.343 534.515 286.017 534.568C285.691 534.614 285.396 534.655 285.131 534.693C284.563 534.777 284.066 534.909 283.642 535.091C283.218 535.273 282.888 535.519 282.653 535.83C282.419 536.133 282.301 536.511 282.301 536.966C282.301 537.625 282.54 538.129 283.017 538.477C283.502 538.818 284.116 538.989 284.858 538.989ZM301.898 531.909V542H297.057V518.727H301.761V527.625H301.966C302.36 526.595 302.996 525.788 303.875 525.205C304.754 524.614 305.856 524.318 307.182 524.318C308.394 524.318 309.451 524.583 310.352 525.114C311.261 525.636 311.966 526.39 312.466 527.375C312.973 528.352 313.223 529.523 313.216 530.886V542H308.375V531.75C308.383 530.674 308.11 529.837 307.557 529.239C307.011 528.64 306.246 528.341 305.261 528.341C304.602 528.341 304.019 528.481 303.511 528.761C303.011 529.042 302.617 529.451 302.33 529.989C302.049 530.519 301.905 531.159 301.898 531.909Z" fill="#4BA70D"/>
<path d="M212.023 305V281.727H221.341C223.053 281.727 224.481 281.981 225.625 282.489C226.769 282.996 227.629 283.701 228.205 284.602C228.78 285.496 229.068 286.527 229.068 287.693C229.068 288.602 228.886 289.402 228.523 290.091C228.159 290.773 227.659 291.333 227.023 291.773C226.394 292.205 225.674 292.511 224.864 292.693V292.92C225.75 292.958 226.58 293.208 227.352 293.67C228.133 294.133 228.765 294.78 229.25 295.614C229.735 296.439 229.977 297.424 229.977 298.568C229.977 299.803 229.67 300.905 229.057 301.875C228.451 302.837 227.553 303.598 226.364 304.159C225.174 304.72 223.708 305 221.966 305H212.023ZM216.943 300.977H220.955C222.326 300.977 223.326 300.716 223.955 300.193C224.583 299.663 224.898 298.958 224.898 298.08C224.898 297.436 224.742 296.867 224.432 296.375C224.121 295.883 223.678 295.496 223.102 295.216C222.534 294.936 221.856 294.795 221.068 294.795H216.943V300.977ZM216.943 291.466H220.591C221.265 291.466 221.864 291.348 222.386 291.114C222.917 290.871 223.333 290.53 223.636 290.091C223.947 289.652 224.102 289.125 224.102 288.511C224.102 287.67 223.803 286.992 223.205 286.477C222.614 285.962 221.773 285.705 220.682 285.705H216.943V291.466ZM238.065 305.33C236.952 305.33 235.959 305.136 235.088 304.75C234.217 304.356 233.527 303.777 233.02 303.011C232.52 302.239 232.27 301.277 232.27 300.125C232.27 299.155 232.448 298.341 232.804 297.682C233.16 297.023 233.645 296.492 234.259 296.091C234.872 295.689 235.569 295.386 236.349 295.182C237.137 294.977 237.963 294.833 238.827 294.75C239.842 294.644 240.66 294.545 241.281 294.455C241.902 294.356 242.353 294.212 242.634 294.023C242.914 293.833 243.054 293.553 243.054 293.182V293.114C243.054 292.394 242.827 291.837 242.372 291.443C241.925 291.049 241.289 290.852 240.463 290.852C239.592 290.852 238.899 291.045 238.384 291.432C237.868 291.811 237.527 292.288 237.361 292.864L232.884 292.5C233.111 291.439 233.558 290.523 234.224 289.75C234.891 288.97 235.751 288.371 236.804 287.955C237.865 287.53 239.092 287.318 240.486 287.318C241.455 287.318 242.384 287.432 243.27 287.659C244.164 287.886 244.955 288.239 245.645 288.716C246.342 289.193 246.891 289.807 247.293 290.557C247.694 291.299 247.895 292.189 247.895 293.227V305H243.304V302.58H243.168C242.887 303.125 242.512 303.606 242.043 304.023C241.573 304.432 241.009 304.754 240.349 304.989C239.69 305.216 238.929 305.33 238.065 305.33ZM239.452 301.989C240.164 301.989 240.793 301.848 241.338 301.568C241.884 301.28 242.312 300.894 242.622 300.409C242.933 299.924 243.088 299.375 243.088 298.761V296.909C242.937 297.008 242.728 297.098 242.463 297.182C242.205 297.258 241.914 297.33 241.588 297.398C241.262 297.458 240.937 297.515 240.611 297.568C240.285 297.614 239.99 297.655 239.724 297.693C239.156 297.777 238.66 297.909 238.236 298.091C237.812 298.273 237.482 298.519 237.247 298.83C237.012 299.133 236.895 299.511 236.895 299.966C236.895 300.625 237.134 301.129 237.611 301.477C238.096 301.818 238.709 301.989 239.452 301.989ZM255.696 287.545L258.901 293.648L262.185 287.545H267.151L262.094 296.273L267.287 305H262.344L258.901 298.966L255.514 305H250.514L255.696 296.273L250.696 287.545H255.696ZM279.31 287.545V291.182H268.798V287.545H279.31ZM271.185 283.364H276.026V299.636C276.026 300.083 276.094 300.432 276.23 300.682C276.366 300.924 276.556 301.095 276.798 301.193C277.048 301.292 277.336 301.341 277.662 301.341C277.889 301.341 278.116 301.322 278.344 301.284C278.571 301.239 278.745 301.205 278.866 301.182L279.628 304.784C279.385 304.86 279.045 304.947 278.605 305.045C278.166 305.152 277.632 305.216 277.003 305.239C275.836 305.284 274.813 305.129 273.935 304.773C273.063 304.417 272.385 303.864 271.901 303.114C271.416 302.364 271.177 301.417 271.185 300.273V283.364ZM290.23 305.341C288.435 305.341 286.889 304.977 285.594 304.25C284.306 303.515 283.313 302.477 282.616 301.136C281.92 299.788 281.571 298.193 281.571 296.352C281.571 294.557 281.92 292.981 282.616 291.625C283.313 290.269 284.295 289.212 285.56 288.455C286.832 287.697 288.325 287.318 290.037 287.318C291.188 287.318 292.26 287.504 293.253 287.875C294.253 288.239 295.124 288.788 295.866 289.523C296.616 290.258 297.2 291.182 297.616 292.295C298.033 293.402 298.241 294.697 298.241 296.182V297.511H283.503V294.511H293.685C293.685 293.814 293.533 293.197 293.23 292.659C292.927 292.121 292.507 291.701 291.969 291.398C291.438 291.087 290.821 290.932 290.116 290.932C289.382 290.932 288.73 291.102 288.162 291.443C287.601 291.777 287.162 292.227 286.844 292.795C286.526 293.356 286.363 293.981 286.355 294.67V297.523C286.355 298.386 286.514 299.133 286.832 299.761C287.158 300.39 287.616 300.875 288.207 301.216C288.798 301.557 289.499 301.727 290.31 301.727C290.848 301.727 291.34 301.652 291.787 301.5C292.234 301.348 292.616 301.121 292.935 300.818C293.253 300.515 293.495 300.144 293.662 299.705L298.139 300C297.912 301.076 297.446 302.015 296.741 302.818C296.045 303.614 295.143 304.235 294.037 304.682C292.938 305.121 291.67 305.341 290.23 305.341ZM301.401 305V287.545H306.094V290.591H306.276C306.594 289.508 307.128 288.689 307.878 288.136C308.628 287.576 309.491 287.295 310.469 287.295C310.711 287.295 310.973 287.311 311.253 287.341C311.533 287.371 311.779 287.413 311.991 287.466V291.761C311.764 291.693 311.45 291.633 311.048 291.58C310.647 291.527 310.279 291.5 309.946 291.5C309.234 291.5 308.598 291.655 308.037 291.966C307.484 292.269 307.045 292.693 306.719 293.239C306.401 293.784 306.241 294.413 306.241 295.125V305H301.401Z" fill="#4BA70D"/>
<path d="M163.503 55H158.23L166.264 31.7273H172.605L180.628 55H175.355L169.526 37.0455H169.344L163.503 55ZM163.173 45.8523H175.628V49.6932H163.173V45.8523ZM188.957 55.2841C187.632 55.2841 186.431 54.9432 185.355 54.2614C184.287 53.572 183.438 52.5606 182.81 51.2273C182.188 49.8864 181.878 48.2424 181.878 46.2955C181.878 44.2955 182.2 42.6326 182.844 41.3068C183.488 39.9735 184.344 38.9773 185.412 38.3182C186.488 37.6515 187.666 37.3182 188.946 37.3182C189.923 37.3182 190.738 37.4848 191.389 37.8182C192.048 38.1439 192.579 38.553 192.98 39.0455C193.389 39.5303 193.7 40.0076 193.912 40.4773H194.06V31.7273H198.889V55H194.116V52.2045H193.912C193.685 52.6894 193.363 53.1705 192.946 53.6477C192.537 54.1174 192.003 54.5076 191.344 54.8182C190.692 55.1288 189.897 55.2841 188.957 55.2841ZM190.491 51.4318C191.272 51.4318 191.931 51.2197 192.469 50.7955C193.014 50.3636 193.431 49.7614 193.719 48.9886C194.014 48.2159 194.162 47.3106 194.162 46.2727C194.162 45.2348 194.018 44.3333 193.73 43.5682C193.442 42.803 193.026 42.2121 192.48 41.7955C191.935 41.3788 191.272 41.1705 190.491 41.1705C189.696 41.1705 189.026 41.3864 188.48 41.8182C187.935 42.25 187.522 42.8485 187.241 43.6136C186.961 44.3788 186.821 45.2652 186.821 46.2727C186.821 47.2879 186.961 48.1856 187.241 48.9659C187.529 49.7386 187.942 50.3447 188.48 50.7841C189.026 51.2159 189.696 51.4318 190.491 51.4318ZM210.756 55.3409C208.991 55.3409 207.464 54.9659 206.176 54.2159C204.896 53.4583 203.907 52.4053 203.21 51.0568C202.513 49.7008 202.165 48.1288 202.165 46.3409C202.165 44.5379 202.513 42.9621 203.21 41.6136C203.907 40.2576 204.896 39.2045 206.176 38.4545C207.464 37.697 208.991 37.3182 210.756 37.3182C212.521 37.3182 214.044 37.697 215.324 38.4545C216.612 39.2045 217.604 40.2576 218.301 41.6136C218.998 42.9621 219.347 44.5379 219.347 46.3409C219.347 48.1288 218.998 49.7008 218.301 51.0568C217.604 52.4053 216.612 53.4583 215.324 54.2159C214.044 54.9659 212.521 55.3409 210.756 55.3409ZM210.778 51.5909C211.581 51.5909 212.252 51.3636 212.79 50.9091C213.328 50.447 213.733 49.8182 214.006 49.0227C214.286 48.2273 214.426 47.322 214.426 46.3068C214.426 45.2917 214.286 44.3864 214.006 43.5909C213.733 42.7955 213.328 42.1667 212.79 41.7045C212.252 41.2424 211.581 41.0114 210.778 41.0114C209.968 41.0114 209.286 41.2424 208.733 41.7045C208.188 42.1667 207.775 42.7955 207.494 43.5909C207.222 44.3864 207.085 45.2917 207.085 46.3068C207.085 47.322 207.222 48.2273 207.494 49.0227C207.775 49.8182 208.188 50.447 208.733 50.9091C209.286 51.3636 209.968 51.5909 210.778 51.5909ZM222.494 61.5455V37.5455H227.267V40.4773H227.483C227.695 40.0076 228.002 39.5303 228.403 39.0455C228.813 38.553 229.343 38.1439 229.994 37.8182C230.653 37.4848 231.472 37.3182 232.449 37.3182C233.722 37.3182 234.896 37.6515 235.972 38.3182C237.047 38.9773 237.907 39.9735 238.551 41.3068C239.195 42.6326 239.517 44.2955 239.517 46.2955C239.517 48.2424 239.203 49.8864 238.574 51.2273C237.953 52.5606 237.104 53.572 236.028 54.2614C234.96 54.9432 233.763 55.2841 232.438 55.2841C231.498 55.2841 230.699 55.1288 230.04 54.8182C229.388 54.5076 228.854 54.1174 228.438 53.6477C228.021 53.1705 227.703 52.6894 227.483 52.2045H227.335V61.5455H222.494ZM227.233 46.2727C227.233 47.3106 227.377 48.2159 227.665 48.9886C227.953 49.7614 228.369 50.3636 228.915 50.7955C229.46 51.2197 230.123 51.4318 230.903 51.4318C231.691 51.4318 232.358 51.2159 232.903 50.7841C233.449 50.3447 233.862 49.7386 234.142 48.9659C234.43 48.1856 234.574 47.2879 234.574 46.2727C234.574 45.2652 234.434 44.3788 234.153 43.6136C233.873 42.8485 233.46 42.25 232.915 41.8182C232.369 41.3864 231.699 41.1705 230.903 41.1705C230.116 41.1705 229.449 41.3788 228.903 41.7955C228.366 42.2121 227.953 42.803 227.665 43.5682C227.377 44.3333 227.233 45.2348 227.233 46.2727ZM252.028 37.5455V41.1818H241.517V37.5455H252.028ZM243.903 33.3636H248.744V49.6364C248.744 50.0833 248.813 50.4318 248.949 50.6818C249.085 50.9242 249.275 51.0947 249.517 51.1932C249.767 51.2917 250.055 51.3409 250.381 51.3409C250.608 51.3409 250.835 51.322 251.062 51.2841C251.29 51.2386 251.464 51.2045 251.585 51.1818L252.347 54.7841C252.104 54.8598 251.763 54.947 251.324 55.0455C250.884 55.1515 250.35 55.2159 249.722 55.2386C248.555 55.2841 247.532 55.1288 246.653 54.7727C245.782 54.4167 245.104 53.8636 244.619 53.1136C244.134 52.3636 243.896 51.4167 243.903 50.2727V33.3636ZM266.69 55H261.418L269.452 31.7273H275.793L283.815 55H278.543L272.713 37.0455H272.531L266.69 55ZM266.361 45.8523H278.815V49.6932H266.361V45.8523ZM302.273 55H294.023V31.7273H302.341C304.682 31.7273 306.697 32.1932 308.386 33.125C310.076 34.0492 311.375 35.3788 312.284 37.1136C313.201 38.8485 313.659 40.9242 313.659 43.3409C313.659 45.7652 313.201 47.8485 312.284 49.5909C311.375 51.3333 310.068 52.6705 308.364 53.6023C306.667 54.5341 304.636 55 302.273 55ZM298.943 50.7841H302.068C303.523 50.7841 304.746 50.5265 305.739 50.0114C306.739 49.4886 307.489 48.6818 307.989 47.5909C308.496 46.4924 308.75 45.0758 308.75 43.3409C308.75 41.6212 308.496 40.2159 307.989 39.125C307.489 38.0341 306.742 37.2311 305.75 36.7159C304.758 36.2008 303.534 35.9432 302.08 35.9432H298.943V50.7841ZM325.099 55.3409C323.334 55.3409 321.808 54.9659 320.52 54.2159C319.24 53.4583 318.251 52.4053 317.554 51.0568C316.857 49.7008 316.509 48.1288 316.509 46.3409C316.509 44.5379 316.857 42.9621 317.554 41.6136C318.251 40.2576 319.24 39.2045 320.52 38.4545C321.808 37.697 323.334 37.3182 325.099 37.3182C326.865 37.3182 328.387 37.697 329.668 38.4545C330.955 39.2045 331.948 40.2576 332.645 41.6136C333.342 42.9621 333.69 44.5379 333.69 46.3409C333.69 48.1288 333.342 49.7008 332.645 51.0568C331.948 52.4053 330.955 53.4583 329.668 54.2159C328.387 54.9659 326.865 55.3409 325.099 55.3409ZM325.122 51.5909C325.925 51.5909 326.596 51.3636 327.134 50.9091C327.671 50.447 328.077 49.8182 328.349 49.0227C328.63 48.2273 328.77 47.322 328.77 46.3068C328.77 45.2917 328.63 44.3864 328.349 43.5909C328.077 42.7955 327.671 42.1667 327.134 41.7045C326.596 41.2424 325.925 41.0114 325.122 41.0114C324.312 41.0114 323.63 41.2424 323.077 41.7045C322.531 42.1667 322.118 42.7955 321.838 43.5909C321.565 44.3864 321.429 45.2917 321.429 46.3068C321.429 47.322 321.565 48.2273 321.838 49.0227C322.118 49.8182 322.531 50.447 323.077 50.9091C323.63 51.3636 324.312 51.5909 325.122 51.5909ZM344.702 61.9091C343.134 61.9091 341.789 61.6932 340.668 61.2614C339.554 60.8371 338.668 60.2576 338.009 59.5227C337.349 58.7879 336.921 57.9621 336.724 57.0455L341.202 56.4432C341.338 56.7917 341.554 57.1174 341.849 57.4205C342.145 57.7235 342.535 57.9659 343.02 58.1477C343.512 58.3371 344.111 58.4318 344.815 58.4318C345.868 58.4318 346.736 58.1742 347.418 57.6591C348.107 57.1515 348.452 56.2992 348.452 55.1023V51.9091H348.247C348.035 52.3939 347.717 52.8523 347.293 53.2841C346.868 53.7159 346.323 54.0682 345.656 54.3409C344.99 54.6136 344.194 54.75 343.27 54.75C341.959 54.75 340.766 54.447 339.69 53.8409C338.622 53.2273 337.77 52.2917 337.134 51.0341C336.505 49.7689 336.19 48.1705 336.19 46.2386C336.19 44.2614 336.512 42.6098 337.156 41.2841C337.8 39.9583 338.656 38.9659 339.724 38.3068C340.8 37.6477 341.978 37.3182 343.259 37.3182C344.236 37.3182 345.054 37.4848 345.713 37.8182C346.372 38.1439 346.902 38.553 347.304 39.0455C347.713 39.5303 348.027 40.0076 348.247 40.4773H348.429V37.5455H353.236V55.1705C353.236 56.6553 352.872 57.8977 352.145 58.8977C351.418 59.8977 350.41 60.6477 349.122 61.1477C347.842 61.6553 346.368 61.9091 344.702 61.9091ZM344.804 51.1136C345.584 51.1136 346.243 50.9205 346.781 50.5341C347.327 50.1402 347.743 49.5795 348.031 48.8523C348.327 48.1174 348.474 47.2386 348.474 46.2159C348.474 45.1932 348.33 44.3068 348.043 43.5568C347.755 42.7992 347.338 42.2121 346.793 41.7955C346.247 41.3788 345.584 41.1705 344.804 41.1705C344.009 41.1705 343.338 41.3864 342.793 41.8182C342.247 42.2424 341.834 42.8333 341.554 43.5909C341.274 44.3485 341.134 45.2235 341.134 46.2159C341.134 47.2235 341.274 48.0947 341.554 48.8295C341.842 49.5568 342.255 50.1212 342.793 50.5227C343.338 50.9167 344.009 51.1136 344.804 51.1136ZM362.872 31.7273L362.429 48.0227H358.27L357.815 31.7273H362.872ZM360.349 55.2955C359.599 55.2955 358.955 55.0303 358.418 54.5C357.88 53.9621 357.615 53.3182 357.622 52.5682C357.615 51.8258 357.88 51.1894 358.418 50.6591C358.955 50.1288 359.599 49.8636 360.349 49.8636C361.069 49.8636 361.702 50.1288 362.247 50.6591C362.793 51.1894 363.069 51.8258 363.077 52.5682C363.069 53.0682 362.937 53.5265 362.679 53.9432C362.429 54.3523 362.099 54.6818 361.69 54.9318C361.281 55.1742 360.834 55.2955 360.349 55.2955ZM223.614 70.7273V94H219.364L209.239 79.3523H209.068V94H204.148V70.7273H208.466L218.511 85.3636H218.716V70.7273H223.614ZM232.565 94.3295C231.452 94.3295 230.459 94.1364 229.588 93.75C228.717 93.3561 228.027 92.7765 227.52 92.0114C227.02 91.2386 226.77 90.2765 226.77 89.125C226.77 88.1553 226.948 87.3409 227.304 86.6818C227.66 86.0227 228.145 85.4924 228.759 85.0909C229.372 84.6894 230.069 84.3864 230.849 84.1818C231.637 83.9773 232.463 83.8333 233.327 83.75C234.342 83.6439 235.16 83.5455 235.781 83.4545C236.402 83.3561 236.853 83.2121 237.134 83.0227C237.414 82.8333 237.554 82.553 237.554 82.1818V82.1136C237.554 81.3939 237.327 80.8371 236.872 80.4432C236.425 80.0492 235.789 79.8523 234.963 79.8523C234.092 79.8523 233.399 80.0455 232.884 80.4318C232.368 80.8106 232.027 81.2879 231.861 81.8636L227.384 81.5C227.611 80.4394 228.058 79.5227 228.724 78.75C229.391 77.9697 230.251 77.3712 231.304 76.9545C232.365 76.5303 233.592 76.3182 234.986 76.3182C235.955 76.3182 236.884 76.4318 237.77 76.6591C238.664 76.8864 239.455 77.2386 240.145 77.7159C240.842 78.1932 241.391 78.8068 241.793 79.5568C242.194 80.2992 242.395 81.1894 242.395 82.2273V94H237.804V91.5795H237.668C237.387 92.125 237.012 92.6061 236.543 93.0227C236.073 93.4318 235.509 93.7538 234.849 93.9886C234.19 94.2159 233.429 94.3295 232.565 94.3295ZM233.952 90.9886C234.664 90.9886 235.293 90.8485 235.838 90.5682C236.384 90.2803 236.812 89.8939 237.122 89.4091C237.433 88.9242 237.588 88.375 237.588 87.7614V85.9091C237.437 86.0076 237.228 86.0985 236.963 86.1818C236.705 86.2576 236.414 86.3295 236.088 86.3977C235.762 86.4583 235.437 86.5152 235.111 86.5682C234.785 86.6136 234.49 86.6553 234.224 86.6932C233.656 86.7765 233.16 86.9091 232.736 87.0909C232.312 87.2727 231.982 87.5189 231.747 87.8295C231.512 88.1326 231.395 88.5114 231.395 88.9659C231.395 89.625 231.634 90.1288 232.111 90.4773C232.596 90.8182 233.209 90.9886 233.952 90.9886ZM246.151 94V76.5455H250.764V79.625H250.969C251.332 78.6023 251.938 77.7955 252.787 77.2045C253.635 76.6136 254.651 76.3182 255.832 76.3182C257.029 76.3182 258.048 76.6174 258.889 77.2159C259.73 77.8068 260.291 78.6098 260.571 79.625H260.753C261.109 78.625 261.753 77.8258 262.685 77.2273C263.624 76.6212 264.734 76.3182 266.014 76.3182C267.643 76.3182 268.965 76.8371 269.98 77.875C271.003 78.9053 271.514 80.3674 271.514 82.2614V94H266.685V83.2159C266.685 82.2462 266.427 81.5189 265.912 81.0341C265.397 80.5492 264.753 80.3068 263.98 80.3068C263.101 80.3068 262.416 80.5871 261.923 81.1477C261.431 81.7008 261.185 82.4318 261.185 83.3409V94H256.491V83.1136C256.491 82.2576 256.245 81.5758 255.753 81.0682C255.268 80.5606 254.628 80.3068 253.832 80.3068C253.295 80.3068 252.81 80.4432 252.378 80.7159C251.954 80.9811 251.616 81.3561 251.366 81.8409C251.116 82.3182 250.991 82.8788 250.991 83.5227V94H246.151ZM283.293 94.3409C281.497 94.3409 279.952 93.9773 278.656 93.25C277.368 92.5152 276.376 91.4773 275.679 90.1364C274.982 88.7879 274.634 87.1932 274.634 85.3523C274.634 83.5568 274.982 81.9811 275.679 80.625C276.376 79.2689 277.357 78.2121 278.622 77.4545C279.895 76.697 281.387 76.3182 283.099 76.3182C284.251 76.3182 285.323 76.5038 286.315 76.875C287.315 77.2386 288.187 77.7879 288.929 78.5227C289.679 79.2576 290.262 80.1818 290.679 81.2955C291.096 82.4015 291.304 83.697 291.304 85.1818V86.5114H276.565V83.5114H286.747C286.747 82.8144 286.596 82.197 286.293 81.6591C285.99 81.1212 285.569 80.7008 285.031 80.3977C284.501 80.0871 283.884 79.9318 283.179 79.9318C282.444 79.9318 281.793 80.1023 281.224 80.4432C280.664 80.7765 280.224 81.2273 279.906 81.7955C279.588 82.3561 279.425 82.9811 279.418 83.6705V86.5227C279.418 87.3864 279.577 88.1326 279.895 88.7614C280.221 89.3902 280.679 89.875 281.27 90.2159C281.861 90.5568 282.562 90.7273 283.372 90.7273C283.91 90.7273 284.402 90.6515 284.849 90.5C285.296 90.3485 285.679 90.1212 285.997 89.8182C286.315 89.5152 286.558 89.1439 286.724 88.7045L291.202 89C290.974 90.0758 290.509 91.0152 289.804 91.8182C289.107 92.6136 288.205 93.2348 287.099 93.6818C286.001 94.1212 284.732 94.3409 283.293 94.3409ZM308.986 81.5227L304.554 81.7955C304.478 81.4167 304.315 81.0758 304.065 80.7727C303.815 80.4621 303.486 80.2159 303.077 80.0341C302.675 79.8447 302.194 79.75 301.634 79.75C300.884 79.75 300.251 79.9091 299.736 80.2273C299.221 80.5379 298.963 80.9545 298.963 81.4773C298.963 81.8939 299.13 82.2462 299.463 82.5341C299.796 82.822 300.368 83.053 301.179 83.2273L304.338 83.8636C306.035 84.2121 307.3 84.7727 308.134 85.5455C308.967 86.3182 309.384 87.3333 309.384 88.5909C309.384 89.7348 309.046 90.7386 308.372 91.6023C307.705 92.4659 306.789 93.1402 305.622 93.625C304.463 94.1023 303.126 94.3409 301.611 94.3409C299.3 94.3409 297.459 93.8598 296.088 92.8977C294.724 91.928 293.925 90.6098 293.69 88.9432L298.452 88.6932C298.596 89.3977 298.944 89.9356 299.497 90.3068C300.05 90.6705 300.759 90.8523 301.622 90.8523C302.471 90.8523 303.152 90.6894 303.668 90.3636C304.19 90.0303 304.455 89.6023 304.463 89.0795C304.455 88.6402 304.27 88.2803 303.906 88C303.543 87.7121 302.982 87.4924 302.224 87.3409L299.202 86.7386C297.497 86.3977 296.228 85.8068 295.395 84.9659C294.569 84.125 294.156 83.053 294.156 81.75C294.156 80.6288 294.459 79.6629 295.065 78.8523C295.679 78.0417 296.539 77.4167 297.645 76.9773C298.759 76.5379 300.062 76.3182 301.554 76.3182C303.759 76.3182 305.493 76.7841 306.759 77.7159C308.031 78.6477 308.774 79.9167 308.986 81.5227ZM318.216 70.7273L317.773 87.0227H313.614L313.159 70.7273H318.216ZM315.693 94.2955C314.943 94.2955 314.299 94.0303 313.761 93.5C313.223 92.9621 312.958 92.3182 312.966 91.5682C312.958 90.8258 313.223 90.1894 313.761 89.6591C314.299 89.1288 314.943 88.8636 315.693 88.8636C316.413 88.8636 317.045 89.1288 317.591 89.6591C318.136 90.1894 318.413 90.8258 318.42 91.5682C318.413 92.0682 318.28 92.5265 318.023 92.9432C317.773 93.3523 317.443 93.6818 317.034 93.9318C316.625 94.1742 316.178 94.2955 315.693 94.2955Z" fill="#4BA70D"/>
<path d="M239.267 263.768C241.573 264.629 244.132 265.326 246.932 265.871C251.594 266.77 256.915 267.226 262.831 267.226C266.48 267.226 275.259 266.58 282.088 264.667C283.063 264.388 284.001 264.097 284.875 263.768C288.232 262.513 292.983 259.232 296.48 253.721C292.324 254.101 288.98 251.365 285.977 246.753C281.721 240.241 279.098 234.135 273.372 228.396C271.319 226.344 268.862 224.152 268.95 221.403C269.064 217.906 275.791 207.758 273.245 192.872C273.156 192.872 273.068 192.847 272.966 192.834C269.837 192.416 266.796 192.251 264.731 192.175C264.275 192.163 263.857 192.15 263.503 192.15C263.148 192.15 262.856 192.15 262.628 192.15C262.286 192.15 262.096 192.15 262.084 192.15C262.008 192.15 256.801 192.099 251.188 192.746C251.1 192.746 251.011 192.771 250.922 192.784C248.325 207.72 255.09 217.893 255.204 221.403C255.293 224.152 252.823 226.344 250.783 228.396C245.057 234.148 242.434 240.254 238.177 246.753C235.162 251.352 231.818 254.101 227.675 253.708C231.171 259.207 235.91 262.501 239.28 263.755L239.267 263.768ZM258.524 229.98C259.702 229.878 260.893 229.929 262.071 229.929C263.249 229.929 264.44 229.891 265.618 229.98C269.242 230.284 271.725 232.716 269.736 235.871C268.367 238.037 265.606 240.317 262.071 240.317C258.536 240.317 255.775 238.05 254.406 235.871C252.417 232.703 254.888 230.284 258.524 229.98ZM238.874 254.165C239.976 255.52 242.244 255.951 243.916 255.14C245.652 254.291 247.451 252.581 249.351 250.769C252.772 247.513 256.623 243.852 261.742 243.599C261.78 243.599 261.818 243.573 261.868 243.573C261.944 243.573 262.008 243.573 262.084 243.573C262.16 243.573 262.223 243.573 262.299 243.573C262.299 243.573 262.375 243.586 262.426 243.599C266.873 243.814 270.382 246.627 273.46 249.49C273.916 249.92 274.373 250.351 274.816 250.769C276.716 252.581 278.503 254.291 280.238 255.14C281.911 255.951 284.178 255.52 285.281 254.165C285.597 253.784 286.155 253.734 286.522 254.038C286.902 254.342 286.953 254.912 286.649 255.279C285.572 256.584 283.836 257.306 282.075 257.306C281.176 257.306 280.276 257.116 279.453 256.724C277.464 255.761 275.576 253.949 273.574 252.049C270.166 248.806 266.644 245.448 262.071 245.347C257.498 245.448 253.976 248.806 250.568 252.049C248.566 253.962 246.678 255.761 244.689 256.724C243.878 257.116 242.966 257.306 242.067 257.306C241.623 257.306 241.193 257.256 240.762 257.167C239.482 256.901 238.304 256.255 237.493 255.267C237.189 254.887 237.24 254.329 237.62 254.025C238 253.708 238.557 253.772 238.862 254.152L238.874 254.165Z" fill="white"/>
<path d="M279.972 232.412C282.988 233.578 286.611 232.906 288.752 230.094C295.986 220.567 282.329 211.141 276.336 219.997C274.905 222.1 274.385 225.153 275.259 227.674C276.07 230.03 277.958 231.639 279.972 232.425V232.412ZM287.485 228.941C285.8 231.158 282.95 231.677 280.58 230.765C278.997 230.157 277.515 228.878 276.868 227.028C276.184 225.052 276.59 222.644 277.717 220.985C282.43 214.017 293.173 221.441 287.485 228.928V228.941Z" fill="white"/>
<path d="M248.123 227.674C248.997 225.166 248.477 222.112 247.046 219.997C241.053 211.141 227.396 220.567 234.63 230.094C236.771 232.919 240.395 233.578 243.41 232.412C245.424 231.639 247.312 230.018 248.123 227.661V227.674ZM235.897 228.954C230.209 221.454 240.952 214.042 245.665 221.01C246.792 222.67 247.198 225.064 246.514 227.053C245.868 228.903 244.385 230.182 242.802 230.791C240.433 231.703 237.582 231.183 235.897 228.966V228.954Z" fill="white"/>
<path d="M235.745 224.355C236.011 225.089 236.797 225.368 237.798 224.823C241.168 222.974 240.851 218.413 237.848 220.225C237.139 220.655 236.366 221.491 235.973 222.34C235.593 223.138 235.568 223.861 235.758 224.355H235.745Z" fill="white"/>
<path d="M280.644 220.149C279.935 220.579 279.162 221.415 278.769 222.264C278.389 223.062 278.364 223.785 278.554 224.279C278.82 225.013 279.605 225.292 280.606 224.747C283.976 222.898 283.659 218.337 280.657 220.149H280.644Z" fill="white"/>
<path d="M259.271 231.183C258.46 231.234 257.396 231.589 256.611 232.095C255.876 232.564 255.471 233.122 255.357 233.578C255.179 234.262 255.673 234.781 256.775 234.743C260.5 234.629 262.679 230.942 259.271 231.183Z" fill="white"/>
<path d="M305.5 166.42C298.013 163.379 288.423 180.457 283.874 190.909C283.304 192.226 282.798 193.43 282.405 194.481C289.183 198.662 294.732 203.375 298.748 208.734C299.685 208.43 301.028 207.872 302.32 206.986C304.829 205.263 307.046 202.298 305.272 197.573C304.398 195.241 312.303 169.194 305.513 166.432L305.5 166.42Z" fill="white"/>
<path d="M241.751 194.481C241.358 193.43 240.851 192.214 240.281 190.909C235.72 180.47 226.13 163.379 218.655 166.42C211.865 169.182 219.757 195.241 218.896 197.56C217.135 202.285 219.352 205.25 221.848 206.973C223.127 207.86 224.483 208.417 225.42 208.721C229.436 203.362 234.985 198.649 241.763 194.469L241.751 194.481Z" fill="white"/>
<path d="M310.872 189.515C310.986 188.844 311.113 188.159 311.24 187.45C313.14 176.719 315.294 162.15 308.427 159.54C308.351 159.515 308.262 159.49 308.186 159.464C298.533 156.132 287.422 172.285 280.758 185.41C280.087 186.728 279.466 188.007 278.896 189.236C278.478 190.149 278.085 191.023 277.717 191.871C276.337 191.555 274.829 191.289 273.207 191.086C267.506 190.326 262.122 190.377 262.084 190.377C262.084 190.377 262.059 190.377 262.008 190.377C261.97 190.377 261.907 190.377 261.818 190.377C260.69 190.377 255.99 190.402 250.973 190.985C249.326 191.175 247.781 191.415 246.349 191.694C240.522 178.303 227.029 155.22 215.703 159.528C215.475 159.616 215.26 159.718 215.044 159.832C214.626 160.06 214.246 160.339 213.904 160.655C213.727 160.82 213.575 160.985 213.41 161.175C211.56 163.379 210.952 167.154 211.003 171.5C211.066 177.29 212.282 184.093 213.245 189.502C213.739 192.264 214.297 195.343 214.284 196.508C214.284 196.673 214.284 196.8 214.246 196.888C213.891 197.965 213.625 198.966 213.448 199.916C212.675 204.034 213.613 207.036 216.273 209.253C217.755 210.469 219.466 211.458 221.657 212.345C221.581 213.016 221.531 213.662 221.505 214.283C221.467 215.524 221.581 216.766 221.746 217.995C221.847 218.755 221.962 219.502 222.076 220.237C222.506 222.936 222.912 225.495 222.342 227.953C219.719 239.38 222.266 247.741 225.141 252.986C225.331 253.341 225.521 253.671 225.724 254C228.917 259.334 233.744 263.603 238.621 265.427C239.419 265.719 240.243 265.997 241.092 266.264C247.046 268.088 254.331 269 262.806 269C265.885 269 275.576 268.455 283.19 266.187C283.976 265.947 284.749 265.693 285.471 265.427C286.066 265.212 286.649 264.946 287.232 264.655C287.257 264.655 287.27 264.642 287.295 264.629C287.764 264.401 288.233 264.135 288.689 263.856C292.401 261.652 295.885 258.143 298.368 254L298.495 253.785C298.571 253.645 298.659 253.493 298.735 253.354C298.837 253.189 298.925 253.024 299.027 252.847C299.115 252.67 299.217 252.492 299.305 252.302C299.394 252.125 299.495 251.935 299.584 251.745C299.673 251.555 299.761 251.365 299.85 251.175C299.939 250.972 300.04 250.782 300.129 250.579C300.218 250.377 300.294 250.174 300.382 249.959C300.471 249.743 300.56 249.541 300.648 249.325C300.737 249.11 300.813 248.894 300.889 248.666C300.965 248.438 301.054 248.223 301.13 247.982C301.206 247.754 301.269 247.513 301.345 247.285C301.421 247.045 301.497 246.817 301.573 246.563C301.636 246.323 301.7 246.069 301.763 245.816C301.827 245.562 301.89 245.322 301.953 245.068C302.017 244.815 302.067 244.536 302.118 244.283C302.169 244.017 302.232 243.763 302.283 243.497C302.333 243.219 302.371 242.94 302.409 242.661C302.447 242.383 302.498 242.117 302.536 241.838C302.574 241.546 302.599 241.242 302.637 240.938C302.663 240.66 302.701 240.381 302.726 240.102C302.751 239.785 302.764 239.456 302.777 239.127C302.789 238.848 302.815 238.569 302.815 238.278C302.815 237.923 302.815 237.568 302.815 237.201C302.815 236.922 302.815 236.656 302.815 236.377C302.815 235.985 302.777 235.592 302.751 235.187C302.739 234.921 302.726 234.667 302.713 234.401C302.675 233.932 302.625 233.464 302.574 232.982C302.549 232.767 302.536 232.551 302.511 232.336C302.435 231.69 302.321 231.019 302.207 230.347C302.207 230.296 302.194 230.246 302.181 230.195C302.055 229.46 301.903 228.725 301.725 227.965C301.155 225.495 301.56 222.936 301.991 220.225C302.295 218.286 302.612 216.297 302.549 214.283C302.523 213.624 302.473 212.965 302.397 212.357C304.588 211.47 306.299 210.482 307.768 209.266C309.403 207.91 310.391 206.251 310.72 204.211C311.05 202.171 310.745 199.764 309.795 196.914C309.605 196.293 310.15 193.138 310.682 190.149C310.72 189.946 310.758 189.73 310.796 189.528L310.872 189.515ZM305.26 197.56C307.033 202.285 304.804 205.25 302.308 206.973C301.028 207.86 299.673 208.417 298.735 208.721C294.719 203.362 289.17 198.649 282.392 194.469C282.785 193.417 283.292 192.201 283.862 190.896C288.423 180.457 298.013 163.366 305.488 166.407C312.278 169.169 304.386 195.229 305.247 197.547L305.26 197.56ZM276.337 219.997C282.329 211.141 295.986 220.567 288.752 230.094C286.611 232.919 282.988 233.578 279.973 232.412C277.958 231.639 276.071 230.018 275.26 227.661C274.386 225.153 274.905 222.1 276.337 219.984V219.997ZM234.63 230.094C227.397 220.567 241.054 211.141 247.046 219.997C248.478 222.1 248.997 225.153 248.123 227.674C247.312 230.03 245.424 231.639 243.41 232.425C240.395 233.59 236.772 232.919 234.63 230.106V230.094ZM221.848 206.973C219.339 205.25 217.122 202.285 218.896 197.56C219.77 195.229 211.864 169.181 218.655 166.42C226.142 163.379 235.733 180.457 240.281 190.909C240.851 192.226 241.345 193.43 241.75 194.481C234.973 198.662 229.424 203.375 225.407 208.734C224.47 208.43 223.127 207.872 221.835 206.986L221.848 206.973ZM238.178 246.753C242.435 240.242 245.057 234.135 250.783 228.396C252.823 226.344 255.294 224.152 255.205 221.403C255.091 217.893 248.338 207.72 250.923 192.784C251.011 192.784 251.1 192.758 251.189 192.746C256.801 192.087 262.008 192.15 262.084 192.15C262.084 192.15 262.287 192.15 262.629 192.15C262.857 192.15 263.161 192.15 263.503 192.15C263.858 192.15 264.263 192.163 264.732 192.176C266.797 192.239 269.837 192.404 272.967 192.834C273.055 192.834 273.144 192.86 273.245 192.872C275.792 207.758 269.065 217.893 268.951 221.403C268.862 224.152 271.32 226.344 273.372 228.396C279.098 234.148 281.721 240.254 285.978 246.753C288.993 251.352 292.337 254.101 296.48 253.721C292.984 259.22 288.245 262.513 284.875 263.768C284.001 264.097 283.064 264.388 282.088 264.667C275.247 266.58 266.467 267.226 262.831 267.226C256.902 267.226 251.594 266.77 246.932 265.871C244.132 265.326 241.573 264.629 239.267 263.768C235.91 262.513 231.159 259.232 227.663 253.721C231.818 254.114 235.163 251.365 238.165 246.766L238.178 246.753Z" fill="#231F20"/>
<path d="M246.514 227.04C247.198 225.064 246.793 222.657 245.665 220.997C240.952 214.029 230.209 221.453 235.897 228.941C237.582 231.158 240.433 231.677 242.802 230.765C244.385 230.157 245.868 228.877 246.514 227.028V227.04ZM237.848 220.224C240.851 218.413 241.168 222.974 237.798 224.823C236.797 225.368 236.024 225.089 235.745 224.355C235.568 223.86 235.593 223.138 235.961 222.34C236.366 221.491 237.126 220.655 237.836 220.224H237.848Z" fill="#231F20"/>
<path d="M277.717 220.997C276.59 222.657 276.184 225.051 276.868 227.04C277.514 228.89 278.997 230.17 280.58 230.778C282.949 231.69 285.8 231.17 287.485 228.953C293.173 221.453 282.43 214.042 277.717 221.01V220.997ZM280.593 224.747C279.592 225.292 278.819 225.013 278.541 224.279C278.363 223.784 278.389 223.062 278.756 222.264C279.161 221.415 279.922 220.579 280.631 220.148C283.634 218.337 283.95 222.898 280.58 224.747H280.593Z" fill="#231F20"/>
<path d="M254.419 235.883C255.788 238.05 258.55 240.33 262.084 240.33C265.619 240.33 268.381 238.062 269.749 235.883C271.738 232.716 269.267 230.296 265.631 229.992C264.453 229.891 263.262 229.942 262.084 229.942C260.906 229.942 259.715 229.904 258.537 229.992C254.914 230.296 252.43 232.729 254.419 235.883ZM256.776 234.756C255.674 234.794 255.192 234.262 255.357 233.59C255.471 233.134 255.876 232.589 256.611 232.108C257.397 231.601 258.461 231.259 259.272 231.196C262.68 230.968 260.501 234.642 256.776 234.756Z" fill="#231F20"/>
<path d="M237.633 254.038C237.253 254.342 237.202 254.912 237.506 255.28C238.317 256.268 239.495 256.914 240.775 257.18C241.205 257.269 241.636 257.319 242.08 257.319C242.979 257.319 243.879 257.129 244.702 256.737C246.691 255.774 248.579 253.962 250.58 252.062C253.988 248.818 257.51 245.461 262.084 245.36C266.657 245.461 270.179 248.818 273.587 252.062C275.589 253.975 277.477 255.774 279.466 256.737C280.276 257.129 281.189 257.319 282.088 257.319C283.849 257.319 285.585 256.597 286.662 255.292C286.966 254.912 286.915 254.355 286.535 254.051C286.155 253.747 285.597 253.797 285.293 254.177C284.178 255.533 281.923 255.964 280.251 255.153C278.515 254.304 276.716 252.594 274.829 250.782C274.385 250.364 273.942 249.933 273.473 249.503C270.395 246.627 266.885 243.827 262.439 243.612C262.401 243.612 262.363 243.586 262.312 243.586C262.236 243.586 262.173 243.586 262.097 243.586C262.021 243.586 261.957 243.586 261.881 243.586C261.881 243.586 261.805 243.599 261.754 243.612C256.636 243.865 252.785 247.526 249.364 250.782C247.464 252.594 245.678 254.304 243.929 255.153C242.257 255.964 239.989 255.533 238.887 254.177C238.583 253.797 238.013 253.747 237.645 254.051L237.633 254.038Z" fill="#231F20"/>
<path d="M248.829 698.965C251.728 695.267 249.75 689.429 245.876 688.305C243.059 687.492 240.336 686.856 237.871 687.628C236.367 688.088 234.959 689.077 233.686 690.838C235.934 695.768 243.939 705.196 248.829 698.965ZM238.982 689.104C240.864 688.535 242.95 689.009 245.104 689.619C248.057 690.459 249.574 694.834 247.366 697.597C243.628 702.27 237.505 695.199 235.799 691.515C236.774 690.188 237.844 689.456 238.995 689.104H238.982Z" fill="white"/>
<path d="M277.964 688.494C274.118 689.592 272.14 695.267 275.025 698.856C279.888 704.925 287.852 695.741 290.074 690.96C288.814 689.239 287.405 688.291 285.915 687.831C283.464 687.086 280.755 687.695 277.951 688.494H277.964ZM287.947 691.502C286.24 695.186 280.118 702.256 276.38 697.583C274.158 694.82 275.675 690.445 278.642 689.605C280.795 688.996 282.868 688.522 284.764 689.09C285.915 689.443 286.985 690.174 287.961 691.502H287.947Z" fill="white"/>
<path d="M292.498 730.227C292.593 730.159 298.323 726.109 302.766 720.556C304.486 714.135 305.258 705.67 297.51 701.064C297.51 701.064 287.568 697.312 273.562 705.25C273.332 703.841 272.465 702.5 270.731 701.349C269.133 700.292 267.128 700.509 265.286 700.699C260.816 701.159 251.985 699.371 249.574 704.925C249.533 705.006 249.506 705.087 249.479 705.169C235.501 697.529 225.003 702.595 225.003 702.595C217.296 706.523 218.651 714.786 220.615 721.233C224.976 726.448 230.259 730.186 230.34 730.254C233.564 732.53 235.975 734.142 238.169 735.483C262.401 748.879 286.647 734.236 286.877 734.087C288.53 733.017 290.318 731.798 292.498 730.254V730.227ZM251.85 705.873C253.8 701.674 260.925 703.028 264.528 702.676C266.018 702.527 267.63 702.365 268.93 703.164C275.323 707.133 266.979 714.068 263.498 714.894C261.751 715.3 259.895 715.192 257.958 714.474C255.141 713.431 250.048 709.747 251.863 705.859L251.85 705.873ZM277.409 719.283C276.949 719.553 276.488 719.838 276.014 720.136C273.007 722.005 269.269 724.321 261.792 724.47C261.575 724.47 261.372 724.47 261.169 724.47C254.247 724.47 250.387 722.276 247.258 720.502L246.432 720.028C245.971 719.77 245.808 719.201 246.066 718.741C246.323 718.28 246.892 718.118 247.353 718.375L248.192 718.849C251.362 720.651 254.951 722.682 261.751 722.574C268.713 722.439 272.045 720.366 274.998 718.524C275.486 718.226 275.96 717.928 276.448 717.644C276.894 717.373 277.477 717.535 277.748 717.982C278.005 718.429 277.856 719.012 277.409 719.283Z" fill="white"/>
<path d="M239.104 657.612C235.826 652.979 228.958 644.825 219.964 642.644C219.964 642.644 216.307 652.79 223.933 671.048C224.529 672.471 225.179 673.934 225.911 675.437C225.911 675.437 232.426 665.062 241.217 660.863C241.217 660.863 240.472 659.535 239.104 657.598V657.612Z" fill="white"/>
<path d="M303.578 642.644C294.584 644.825 287.717 652.979 284.439 657.612C283.071 659.549 282.326 660.876 282.326 660.876C291.103 665.075 297.632 675.451 297.632 675.451C298.364 673.934 299.014 672.471 299.61 671.062C307.236 652.803 303.578 642.658 303.578 642.658V642.644Z" fill="white"/>
<path d="M253.976 708.094C254.884 708.595 255.994 708.365 256.956 707.918C257.484 707.674 257.999 707.336 258.351 706.808C260.044 704.166 256.618 703.801 255.06 704.302C253.285 704.884 251.944 706.984 253.976 708.094Z" fill="white"/>
<path d="M277.179 692.328C276.366 693.696 276.624 695.592 278.479 694.942C279.306 694.644 279.888 693.858 280.267 693.046C280.471 692.599 280.633 692.111 280.565 691.623C280.254 689.226 277.911 691.122 277.193 692.328H277.179Z" fill="white"/>
<path d="M272.005 683.767C268.768 690.418 277.369 688.698 279.902 685.487C281.134 683.93 282.245 681.722 281.243 679.975C280.43 678.552 278.507 678.227 277.017 678.796C275.053 679.555 272.926 681.844 271.991 683.767H272.005Z" fill="white"/>
<path d="M241.244 692.003C241.447 691.556 241.61 691.068 241.542 690.58C241.231 688.183 238.887 690.079 238.169 691.285C237.357 692.653 237.614 694.549 239.47 693.899C240.296 693.601 240.878 692.815 241.258 692.003H241.244Z" fill="white"/>
<path d="M251.728 683.767C250.793 681.844 248.666 679.555 246.702 678.796C245.226 678.227 243.289 678.552 242.476 679.975C241.488 681.708 242.585 683.93 243.817 685.487C246.35 688.698 254.951 690.418 251.714 683.767H251.728Z" fill="white"/>
<path d="M214.343 698.911C213.639 701.796 212.867 705.616 213.07 709.462C213.68 720.786 228.633 731.338 229.256 731.785C232.507 734.087 234.959 735.726 237.194 737.094C237.194 737.094 237.221 737.108 237.234 737.108C245.145 741.483 253.055 743 260.193 743C275.797 743 287.717 735.78 287.907 735.672C289.6 734.575 291.401 733.342 293.596 731.785C294.232 731.338 309.186 720.786 309.796 709.462C309.999 705.616 309.227 701.796 308.522 698.911C306.924 692.314 304.797 685.84 302.21 679.622C315.647 659.982 312.301 636.441 309.159 633.447C309.064 633.352 308.942 633.285 308.82 633.244C307.263 632.689 304.96 633.149 301.994 634.599C294.232 638.391 283.139 648.387 278.615 656.42C274.389 654.578 268.253 653.467 261.575 653.372C261.548 653.372 261.521 653.372 261.494 653.372H261.44C261.331 653.372 261.331 653.372 261.304 653.372C254.83 653.467 248.856 654.51 244.698 656.244C240.567 648.198 229.69 638.31 222.05 634.585C219.057 633.122 216.727 632.675 215.129 633.23C215.007 633.271 214.885 633.339 214.79 633.434C211.851 636.237 208.356 660.023 220.94 678.959C218.217 685.379 215.996 692.084 214.343 698.911ZM238.183 735.455C235.988 734.114 233.577 732.503 230.354 730.227C230.259 730.159 224.976 726.434 220.628 721.206C218.664 714.772 217.31 706.496 225.017 702.568C225.017 702.568 235.514 697.502 249.493 705.141C249.52 705.06 249.547 704.979 249.588 704.898C251.999 699.344 260.83 701.132 265.3 700.672C267.142 700.482 269.147 700.265 270.745 701.322C272.492 702.473 273.346 703.814 273.576 705.223C287.582 697.285 297.524 701.037 297.524 701.037C305.272 705.656 304.499 714.108 302.779 720.529C298.336 726.082 292.607 730.132 292.512 730.2C290.331 731.744 288.543 732.963 286.891 734.033C286.647 734.182 262.401 748.824 238.183 735.428V735.455ZM237.871 687.614C240.336 686.842 243.072 687.479 245.876 688.291C249.75 689.416 251.741 695.254 248.829 698.951C243.926 705.182 235.921 695.755 233.686 690.824C234.959 689.05 236.368 688.075 237.871 687.614ZM243.844 685.487C242.612 683.93 241.501 681.722 242.504 679.975C243.316 678.552 245.24 678.227 246.73 678.796C248.694 679.555 250.82 681.844 251.755 683.767C254.992 690.418 246.391 688.698 243.858 685.487H243.844ZM241.23 660.862C232.453 665.061 225.924 675.437 225.924 675.437C225.193 673.92 224.543 672.457 223.947 671.048C216.321 652.79 219.978 642.644 219.978 642.644C228.972 644.825 235.839 652.979 239.117 657.612C240.485 659.549 241.23 660.876 241.23 660.876V660.862ZM297.646 675.437C297.646 675.437 291.13 665.061 282.34 660.862C282.34 660.862 283.085 659.535 284.453 657.598C287.731 652.966 294.598 644.812 303.592 642.631C303.592 642.631 307.249 652.776 299.623 671.035C299.027 672.457 298.377 673.92 297.646 675.423V675.437ZM290.087 690.946C287.866 695.741 279.902 704.911 275.039 698.843C272.154 695.254 274.131 689.578 277.978 688.481C280.768 687.682 283.477 687.072 285.943 687.817C287.433 688.264 288.828 689.226 290.101 690.946H290.087ZM281.256 679.975C282.245 681.708 281.148 683.93 279.915 685.487C277.382 688.698 268.781 690.418 272.018 683.767C272.953 681.844 275.079 679.555 277.044 678.796C278.52 678.227 280.457 678.552 281.27 679.975H281.256Z" fill="#231F20"/>
<path d="M257.945 714.488C259.882 715.205 261.724 715.314 263.485 714.907C266.966 714.081 275.323 707.146 268.916 703.177C267.63 702.378 266.004 702.541 264.514 702.69C260.911 703.028 253.787 701.687 251.836 705.886C250.035 709.774 255.114 713.458 257.931 714.501L257.945 714.488ZM255.046 704.302C256.604 703.8 260.044 704.166 258.338 706.808C257.999 707.336 257.471 707.674 256.942 707.918C255.981 708.379 254.87 708.595 253.963 708.094C251.931 706.984 253.272 704.871 255.046 704.302Z" fill="#231F20"/>
<path d="M276.448 717.644C275.974 717.928 275.486 718.226 274.998 718.524C272.045 720.353 268.7 722.439 261.751 722.574C254.952 722.682 251.362 720.651 248.192 718.849L247.353 718.375C246.892 718.118 246.323 718.28 246.066 718.741C245.809 719.201 245.971 719.77 246.432 720.027L247.258 720.502C250.373 722.276 254.234 724.47 261.169 724.47C261.372 724.47 261.589 724.47 261.792 724.47C269.269 724.335 273.007 722.005 276.014 720.136C276.488 719.838 276.949 719.553 277.409 719.283C277.856 719.025 278.019 718.443 277.748 717.982C277.477 717.535 276.908 717.373 276.448 717.644Z" fill="#231F20"/>
<path d="M278.628 689.605C275.675 690.445 274.158 694.82 276.366 697.583C280.104 702.256 286.227 695.186 287.934 691.502C286.958 690.174 285.888 689.443 284.737 689.091C282.854 688.522 280.768 688.996 278.615 689.605H278.628ZM280.254 693.032C279.888 693.845 279.305 694.631 278.466 694.929C276.61 695.592 276.353 693.696 277.165 692.314C277.883 691.109 280.24 689.212 280.538 691.61C280.606 692.098 280.443 692.585 280.24 693.032H280.254Z" fill="#231F20"/>
<path d="M247.353 697.597C249.574 694.834 248.057 690.459 245.091 689.619C242.937 689.009 240.864 688.535 238.968 689.104C237.817 689.456 236.747 690.188 235.771 691.515C237.478 695.199 243.601 702.27 247.339 697.597H247.353ZM238.155 691.298C238.873 690.093 241.23 688.197 241.528 690.594C241.596 691.082 241.433 691.569 241.23 692.016C240.864 692.829 240.282 693.615 239.442 693.913C237.587 694.576 237.329 692.68 238.142 691.298H238.155Z" fill="#231F20"/>
<path d="M271.651 441.848C271.708 443.758 272.25 449.515 280.244 448.802C285.218 448.361 288.054 443.458 288.054 443.074C288.025 441.164 285.076 430.134 278.264 430.048C272.891 429.977 271.58 439.625 271.651 441.862V441.848ZM285.845 442.432C285.845 442.746 283.707 446.665 279.974 447.021C273.946 447.591 273.547 442.988 273.504 441.449C273.447 439.668 274.444 431.929 278.492 431.986C283.608 432.058 285.845 440.893 285.859 442.418L285.845 442.432Z" fill="white"/>
<path d="M278.79 488.563C277.607 488.662 276.425 488.591 275.27 488.32C273.147 487.822 270.938 486.525 268.8 485.256C266.221 483.732 263.556 482.164 261.133 482.05C258.055 482.121 255.433 483.803 252.896 485.427C250.958 486.667 249.134 487.836 247.096 488.32C246.284 488.506 245.443 488.605 244.602 488.605C244.26 488.605 243.918 488.577 243.576 488.548C245.244 491.185 248.136 493.166 250.987 493.508C252.882 493.736 254.777 493.436 256.801 493.123C258.212 492.895 259.68 492.667 261.162 492.638C262.687 492.681 264.155 492.909 265.565 493.123C267.575 493.436 269.484 493.736 271.38 493.508C274.216 493.166 277.109 491.185 278.776 488.563H278.79Z" fill="white"/>
<path d="M243.448 437.772C243.533 437.202 243.562 436.59 243.334 436.062C242.194 433.412 240.042 436.319 239.586 437.929C239.073 439.753 239.999 441.848 241.966 440.523C242.849 439.924 243.277 438.841 243.434 437.787L243.448 437.772Z" fill="white"/>
<path d="M278.206 439.91C279.09 439.311 279.517 438.228 279.674 437.174C279.76 436.604 279.788 435.991 279.56 435.449C278.42 432.799 276.268 435.706 275.827 437.316C275.313 439.14 276.24 441.235 278.206 439.91Z" fill="white"/>
<path d="M255.861 455.087C253.951 455.728 252.44 457.738 254.564 458.636C255.519 459.035 256.701 458.764 257.742 458.294C258.312 458.037 258.882 457.695 259.267 457.182C261.176 454.645 257.542 454.517 255.861 455.087Z" fill="white"/>
<path d="M325.021 430.048C327.172 428.21 329.025 426.3 330.578 424.348C326.645 421.897 322.84 418.134 319.135 414.472C316.028 411.408 313.107 408.501 310.185 406.42C302.533 400.934 290.605 397.969 281.242 403.727C280.771 404.012 280.159 403.869 279.874 403.399C279.76 403.214 279.731 402.986 279.745 402.786C275.128 399.765 270.14 398.083 265.366 397.998C264.397 397.984 263.4 398.026 262.43 398.069C262.031 398.083 261.632 398.098 261.233 398.112C260.763 398.112 260.364 398.083 259.965 398.069C258.996 398.026 257.998 397.984 257.029 397.998C251.642 398.098 246.925 400.121 243.234 402.473C243.363 402.758 243.377 403.1 243.192 403.399C242.907 403.869 242.294 404.012 241.824 403.727C232.446 397.969 220.533 400.934 212.88 406.42C209.958 408.515 207.037 411.408 203.93 414.472C200.239 418.134 196.42 421.897 192.487 424.348C194.04 426.286 195.893 428.196 198.045 430.048C198.102 430.091 198.144 430.134 198.201 430.177C199.171 429.421 200.154 428.68 201.208 428.067C201.907 427.654 202.705 427.326 203.517 427.326C204.329 427.341 205.184 427.782 205.484 428.552C205.64 428.937 205.626 429.378 205.598 429.806C205.469 431.473 204.942 433.112 204.101 434.552C210.913 438.927 217.44 441.05 221.573 440.209C223.625 439.796 225.905 434.822 228.314 429.564C230.694 424.376 233.672 417.906 237.734 412.605C238.076 412.163 238.688 412.078 239.13 412.42C239.572 412.748 239.643 413.375 239.315 413.816C235.396 418.947 232.589 425.032 230.124 430.39C228.342 434.267 226.86 437.487 225.292 439.596C226.233 446.679 229.511 452.95 232.888 458.807C233.116 459.22 233.373 459.619 233.615 460.032C234.328 458.664 235.24 457.41 236.422 456.327C237.506 455.344 238.66 454.432 239.843 453.648C240.299 453.349 240.926 453.463 241.225 453.933C241.524 454.389 241.41 455.016 240.94 455.315C239.814 456.056 238.774 456.883 237.762 457.809C234.185 461.087 233.373 466.488 233.059 471.333C232.774 475.68 233.857 479.613 236.123 482.406C238.703 485.584 243.035 487.209 246.655 486.368C248.351 485.969 250.046 484.886 251.828 483.732C254.464 482.05 257.443 480.126 261.162 480.041C264.141 480.183 267.033 481.879 269.812 483.518C271.907 484.758 273.888 485.926 275.727 486.354C279.346 487.195 283.693 485.584 286.258 482.392C288.524 479.599 289.607 475.666 289.322 471.319C289.008 466.474 288.196 461.073 284.619 457.795C284.063 457.282 283.465 456.783 282.866 456.313C282.439 455.971 282.353 455.344 282.695 454.916C283.037 454.489 283.664 454.403 284.092 454.745C284.733 455.244 285.374 455.785 285.973 456.327C287.156 457.41 288.068 458.678 288.78 460.046C288.823 459.975 288.852 459.918 288.894 459.847C292.756 453.178 296.433 446.836 297.203 438.813C295.835 436.732 294.495 433.811 292.927 430.39C290.462 425.018 287.669 418.933 283.736 413.816C283.408 413.375 283.479 412.748 283.921 412.42C284.363 412.078 284.99 412.163 285.317 412.605C289.379 417.906 292.343 424.376 294.737 429.564C297.16 434.822 299.44 439.796 301.478 440.209C305.611 441.036 312.138 438.927 318.95 434.552C321.045 433.212 323.082 431.687 325.006 430.034L325.021 430.048ZM208.391 422.467C207.721 420.871 211.384 418.02 213.108 417.721C215.488 417.308 216.158 418.847 215.075 420.429C214.191 421.726 212.452 423.778 210.186 423.436C209.132 423.279 208.576 422.923 208.377 422.467H208.391ZM212.68 435.335C210.414 434.822 209.83 432.271 211.512 430.661C212.21 429.991 213.079 429.535 213.792 428.894C214.448 428.31 215.003 427.597 215.73 427.113C216.001 426.927 216.329 426.799 216.642 426.728C217.184 426.6 217.754 426.657 218.181 427.013C218.637 427.383 218.823 427.996 218.979 428.566C219.948 432.029 216.414 436.19 212.652 435.335H212.68ZM243.135 421.597C243.22 420.899 243.662 420.286 244.189 419.759C245.101 418.833 246.441 418.063 248.065 418.063C252.954 418.063 252.911 422.353 250.118 423.849C247.852 425.06 242.75 424.633 243.12 421.597H243.135ZM236.536 442.432C236.551 440.907 238.788 432.072 243.904 432.001C247.937 431.944 248.935 439.682 248.892 441.463C248.849 442.988 248.436 447.605 242.422 447.035C238.674 446.679 236.536 442.746 236.551 442.447L236.536 442.432ZM271.052 457.524C270.739 462.227 265.623 465.163 261.176 464.963C256.73 465.177 251.186 462.056 251.3 457.524C251.386 454.09 256.887 453.249 261.062 453.092C261.062 453.092 261.134 453.092 261.176 453.092C261.219 453.092 261.248 453.092 261.29 453.092C265.466 453.263 271.28 454.104 271.052 457.538V457.524ZM287.911 430.576C290.918 436.162 292.984 446.081 289.407 451.581C286.173 456.541 278.178 451.068 274.501 449.7C269.47 447.833 266.406 444.698 267.661 438.756C268.558 434.509 271.337 430.162 274.914 427.968C279.232 425.303 285.132 425.445 287.911 430.59V430.576ZM314.261 429.051C311.838 426.842 310.884 421.127 315.301 420.799C316.313 420.728 317.311 421.07 318.237 421.526C319.819 422.324 321.33 423.607 321.828 425.402C323.325 430.804 317.254 431.773 314.261 429.051Z" fill="white"/>
<path d="M274.928 427.968C271.351 430.162 268.558 434.509 267.675 438.756C266.421 444.698 269.47 447.834 274.515 449.7C278.206 451.068 286.201 456.541 289.422 451.582C292.984 446.095 290.918 436.176 287.925 430.576C285.161 425.431 279.261 425.289 274.928 427.954V427.968ZM288.054 443.074C288.054 443.459 285.218 448.361 280.244 448.803C272.249 449.515 271.708 443.758 271.651 441.848C271.579 439.625 272.905 429.977 278.263 430.034C285.061 430.12 288.025 441.15 288.054 443.059V443.074Z" fill="#231F20"/>
<path d="M261.305 453.092C261.305 453.092 261.233 453.092 261.191 453.092C261.148 453.092 261.119 453.092 261.077 453.092C256.901 453.263 251.4 454.104 251.315 457.538C251.201 462.07 256.744 465.177 261.191 464.977C265.637 465.191 270.753 462.255 271.067 457.538C271.295 454.118 265.48 453.263 261.305 453.106V453.092ZM259.281 457.182C258.896 457.695 258.326 458.023 257.756 458.294C256.716 458.764 255.519 459.049 254.578 458.636C252.455 457.738 253.965 455.714 255.875 455.087C257.557 454.531 261.205 454.66 259.281 457.182Z" fill="#231F20"/>
<path d="M273.503 441.463C273.546 442.988 273.959 447.605 279.973 447.035C283.721 446.679 285.859 442.746 285.845 442.447C285.83 440.922 283.593 432.086 278.477 432.015C274.444 431.958 273.446 439.696 273.489 441.478L273.503 441.463ZM279.574 435.464C279.802 435.991 279.788 436.604 279.688 437.188C279.517 438.243 279.09 439.326 278.22 439.924C276.254 441.264 275.327 439.169 275.841 437.331C276.282 435.72 278.434 432.813 279.574 435.464Z" fill="#231F20"/>
<path d="M248.892 441.463C248.949 439.682 247.952 431.944 243.904 432.001C238.788 432.072 236.551 440.908 236.537 442.432C236.537 442.746 238.674 446.665 242.408 447.021C248.436 447.591 248.835 442.988 248.878 441.449L248.892 441.463ZM239.586 437.915C240.028 436.304 242.18 433.397 243.334 436.048C243.562 436.575 243.548 437.188 243.448 437.758C243.277 438.813 242.85 439.896 241.98 440.494C240.014 441.834 239.088 439.739 239.601 437.901L239.586 437.915Z" fill="#231F20"/>
<path d="M218.195 427.013C217.768 426.671 217.198 426.599 216.656 426.728C216.328 426.799 216.015 426.942 215.744 427.113C215.003 427.597 214.462 428.31 213.806 428.894C213.079 429.535 212.224 429.991 211.526 430.661C209.844 432.271 210.429 434.808 212.694 435.335C216.457 436.19 219.977 432.029 219.022 428.566C218.865 427.996 218.68 427.383 218.224 427.013H218.195Z" fill="#231F20"/>
<path d="M215.075 420.443C216.158 418.861 215.488 417.322 213.108 417.735C211.384 418.035 207.721 420.885 208.391 422.481C208.59 422.937 209.132 423.293 210.201 423.45C212.467 423.792 214.191 421.74 215.089 420.443H215.075Z" fill="#231F20"/>
<path d="M332.531 423.208C328.484 420.942 324.436 416.937 320.531 413.061C317.368 409.94 314.389 406.99 311.34 404.796C301.891 398.026 289.992 396.744 281.284 401.418C276.24 397.998 270.71 396.103 265.395 396.003C264.369 395.989 263.342 396.031 262.345 396.074C261.946 396.088 261.561 396.103 261.219 396.117C260.82 396.117 260.435 396.088 260.036 396.074C259.039 396.031 258.013 395.989 256.987 396.003C250.802 396.117 245.486 398.554 241.453 401.247C232.774 396.772 221.031 398.098 211.697 404.796C208.647 406.976 205.669 409.926 202.505 413.061C198.586 416.923 194.539 420.928 190.506 423.208C190.249 423.35 190.078 423.593 190.021 423.863C189.964 424.148 190.021 424.433 190.192 424.662C191.945 427.027 194.154 429.336 196.719 431.559C198.714 433.283 200.838 434.865 203.004 436.247C209.146 440.195 215.189 442.39 219.692 442.39C220.49 442.39 221.245 442.318 221.929 442.176C222.499 442.062 223.027 441.805 223.54 441.421C224.794 448.289 228.029 454.432 231.121 459.819C231.563 460.588 232.019 461.343 232.489 462.113C232.532 462.17 232.56 462.241 232.603 462.298C231.591 465.148 231.235 468.269 231.036 471.205C230.722 476.05 231.962 480.482 234.541 483.66C236.251 485.784 238.574 487.28 241.054 488.035C241.111 488.149 241.14 488.278 241.197 488.392C243.006 492.154 246.84 494.99 250.73 495.46C252.897 495.717 255.034 495.389 257.086 495.061C258.497 494.833 259.837 494.634 261.134 494.591C262.487 494.619 263.813 494.833 265.238 495.061C266.777 495.303 268.359 495.546 269.969 495.546C270.511 495.546 271.052 495.517 271.594 495.446C275.484 494.976 279.318 492.14 281.128 488.377C281.185 488.263 281.213 488.149 281.27 488.035C283.75 487.28 286.073 485.769 287.783 483.646C290.362 480.454 291.602 476.036 291.289 471.191C291.103 468.269 290.733 465.163 289.735 462.327C290.02 461.828 290.305 461.329 290.59 460.845C294.253 454.517 297.758 448.46 298.913 440.964C299.583 441.592 300.295 442.005 301.05 442.147C301.749 442.29 302.49 442.361 303.302 442.361C307.82 442.361 313.848 440.167 319.99 436.219C322.156 434.837 324.279 433.255 326.275 431.53C328.854 429.321 331.049 426.999 332.802 424.633C332.973 424.405 333.044 424.106 332.973 423.835C332.916 423.55 332.73 423.308 332.488 423.179L332.531 423.208ZM301.478 440.238C299.426 439.824 297.146 434.851 294.737 429.592C292.357 424.405 289.379 417.935 285.317 412.634C284.99 412.192 284.363 412.106 283.921 412.448C283.479 412.776 283.408 413.403 283.736 413.845C287.655 418.975 290.462 425.061 292.927 430.419C294.495 433.839 295.849 436.76 297.203 438.841C296.433 446.864 292.756 453.206 288.894 459.876C288.852 459.947 288.823 460.004 288.78 460.075C288.068 458.707 287.156 457.439 285.973 456.356C285.374 455.814 284.747 455.272 284.092 454.774C283.664 454.432 283.037 454.517 282.695 454.945C282.353 455.372 282.439 455.999 282.866 456.341C283.465 456.812 284.063 457.31 284.619 457.823C288.196 461.101 289.008 466.502 289.322 471.348C289.607 475.694 288.524 479.627 286.258 482.421C283.679 485.598 279.346 487.223 275.727 486.382C273.902 485.955 271.922 484.786 269.812 483.546C267.019 481.907 264.141 480.197 261.162 480.069C257.457 480.155 254.464 482.064 251.828 483.76C250.032 484.914 248.35 485.983 246.655 486.397C243.021 487.252 238.688 485.627 236.123 482.435C233.857 479.642 232.774 475.708 233.059 471.362C233.373 466.516 234.185 461.115 237.762 457.838C238.788 456.911 239.828 456.085 240.94 455.344C241.396 455.044 241.524 454.417 241.225 453.961C240.926 453.505 240.299 453.377 239.843 453.676C238.646 454.46 237.506 455.372 236.422 456.356C235.24 457.439 234.328 458.693 233.615 460.061C233.373 459.648 233.116 459.249 232.888 458.835C229.525 452.978 226.233 446.708 225.292 439.625C226.846 437.53 228.342 434.295 230.124 430.419C232.589 425.046 235.382 418.961 239.315 413.845C239.643 413.403 239.572 412.776 239.13 412.448C238.688 412.106 238.076 412.192 237.734 412.634C233.672 417.935 230.708 424.405 228.314 429.592C225.891 434.851 223.611 439.824 221.573 440.238C217.44 441.079 210.913 438.955 204.101 434.58C204.942 433.127 205.469 431.502 205.598 429.835C205.626 429.407 205.626 428.98 205.484 428.581C205.184 427.811 204.344 427.369 203.517 427.355C202.705 427.355 201.907 427.683 201.208 428.096C200.154 428.709 199.185 429.45 198.201 430.205C198.144 430.162 198.087 430.12 198.045 430.077C195.907 428.238 194.04 426.329 192.487 424.376C196.42 421.925 200.225 418.163 203.93 414.501C207.037 411.437 209.958 408.529 212.88 406.449C220.533 400.962 232.461 397.998 241.824 403.755C242.294 404.04 242.907 403.898 243.192 403.428C243.377 403.143 243.363 402.8 243.234 402.501C246.925 400.15 251.642 398.126 257.029 398.026C257.998 398.012 258.996 398.055 259.965 398.098C260.364 398.112 260.763 398.126 261.233 398.14C261.632 398.14 262.031 398.112 262.43 398.098C263.399 398.055 264.397 398.012 265.366 398.026C270.14 398.112 275.128 399.794 279.745 402.815C279.731 403.029 279.745 403.242 279.874 403.428C280.159 403.898 280.771 404.04 281.242 403.755C290.619 397.998 302.533 400.962 310.185 406.449C313.107 408.544 316.028 411.437 319.135 414.501C322.826 418.149 326.645 421.925 330.578 424.376C329.025 426.315 327.158 428.224 325.021 430.077C323.097 431.744 321.059 433.269 318.964 434.594C312.152 438.969 305.625 441.079 301.492 440.252L301.478 440.238ZM265.566 493.123C264.155 492.895 262.687 492.667 261.162 492.638C259.68 492.681 258.212 492.909 256.801 493.123C254.792 493.437 252.882 493.736 250.987 493.508C248.151 493.166 245.244 491.185 243.576 488.548C243.918 488.577 244.26 488.605 244.602 488.605C245.443 488.605 246.284 488.506 247.096 488.32C249.134 487.836 250.958 486.667 252.897 485.427C255.433 483.803 258.041 482.121 261.134 482.05C263.556 482.164 266.221 483.732 268.801 485.256C270.938 486.511 273.133 487.822 275.271 488.32C276.411 488.591 277.608 488.662 278.79 488.563C277.123 491.185 274.23 493.166 271.394 493.508C269.499 493.736 267.604 493.437 265.58 493.123H265.566Z" fill="#231F20"/>
<path d="M321.829 425.402C321.33 423.607 319.834 422.324 318.237 421.526C317.311 421.07 316.314 420.728 315.302 420.799C310.884 421.113 311.839 426.842 314.261 429.051C317.24 431.773 323.311 430.804 321.829 425.402Z" fill="#231F20"/>
<path d="M250.132 423.849C252.925 422.353 252.968 418.078 248.08 418.063C246.455 418.063 245.116 418.833 244.204 419.759C243.676 420.287 243.235 420.899 243.149 421.598C242.779 424.633 247.88 425.061 250.146 423.849H250.132Z" fill="#231F20"/>
<path d="M241.455 771.25C241.295 770.697 241.072 770.208 240.784 769.784C240.496 769.352 240.144 768.989 239.727 768.693C239.318 768.39 238.848 768.159 238.318 768C237.795 767.841 237.216 767.761 236.58 767.761C235.39 767.761 234.345 768.057 233.443 768.648C232.549 769.239 231.852 770.098 231.352 771.227C230.852 772.348 230.602 773.72 230.602 775.341C230.602 776.962 230.848 778.341 231.341 779.477C231.833 780.614 232.53 781.481 233.432 782.08C234.333 782.67 235.398 782.966 236.625 782.966C237.739 782.966 238.689 782.769 239.477 782.375C240.273 781.973 240.879 781.409 241.295 780.682C241.72 779.955 241.932 779.095 241.932 778.102L242.932 778.25H236.932V774.545H246.67V777.477C246.67 779.523 246.239 781.28 245.375 782.75C244.511 784.212 243.322 785.341 241.807 786.136C240.292 786.924 238.557 787.318 236.602 787.318C234.42 787.318 232.504 786.837 230.852 785.875C229.201 784.905 227.913 783.53 226.989 781.75C226.072 779.962 225.614 777.841 225.614 775.386C225.614 773.5 225.886 771.818 226.432 770.341C226.985 768.856 227.758 767.598 228.75 766.568C229.742 765.538 230.898 764.754 232.216 764.216C233.534 763.678 234.962 763.409 236.5 763.409C237.818 763.409 239.045 763.602 240.182 763.989C241.318 764.367 242.326 764.905 243.205 765.602C244.091 766.299 244.814 767.129 245.375 768.091C245.936 769.045 246.295 770.098 246.455 771.25H241.455ZM250.276 787V769.545H254.969V772.591H255.151C255.469 771.508 256.003 770.689 256.753 770.136C257.503 769.576 258.366 769.295 259.344 769.295C259.586 769.295 259.848 769.311 260.128 769.341C260.408 769.371 260.654 769.413 260.866 769.466V773.761C260.639 773.693 260.325 773.633 259.923 773.58C259.522 773.527 259.154 773.5 258.821 773.5C258.109 773.5 257.473 773.655 256.912 773.966C256.359 774.269 255.92 774.693 255.594 775.239C255.276 775.784 255.116 776.413 255.116 777.125V787H250.276ZM270.511 787.341C268.716 787.341 267.17 786.977 265.875 786.25C264.587 785.515 263.595 784.477 262.898 783.136C262.201 781.788 261.852 780.193 261.852 778.352C261.852 776.557 262.201 774.981 262.898 773.625C263.595 772.269 264.576 771.212 265.841 770.455C267.114 769.697 268.606 769.318 270.318 769.318C271.47 769.318 272.542 769.504 273.534 769.875C274.534 770.239 275.405 770.788 276.148 771.523C276.898 772.258 277.481 773.182 277.898 774.295C278.314 775.402 278.523 776.697 278.523 778.182V779.511H263.784V776.511H273.966C273.966 775.814 273.814 775.197 273.511 774.659C273.208 774.121 272.788 773.701 272.25 773.398C271.72 773.087 271.102 772.932 270.398 772.932C269.663 772.932 269.011 773.102 268.443 773.443C267.883 773.777 267.443 774.227 267.125 774.795C266.807 775.356 266.644 775.981 266.636 776.67V779.523C266.636 780.386 266.795 781.133 267.114 781.761C267.439 782.39 267.898 782.875 268.489 783.216C269.08 783.557 269.78 783.727 270.591 783.727C271.129 783.727 271.621 783.652 272.068 783.5C272.515 783.348 272.898 783.121 273.216 782.818C273.534 782.515 273.777 782.144 273.943 781.705L278.42 782C278.193 783.076 277.727 784.015 277.023 784.818C276.326 785.614 275.424 786.235 274.318 786.682C273.22 787.121 271.951 787.341 270.511 787.341ZM289.545 793.909C287.977 793.909 286.633 793.693 285.511 793.261C284.398 792.837 283.511 792.258 282.852 791.523C282.193 790.788 281.765 789.962 281.568 789.045L286.045 788.443C286.182 788.792 286.398 789.117 286.693 789.42C286.989 789.723 287.379 789.966 287.864 790.148C288.356 790.337 288.955 790.432 289.659 790.432C290.712 790.432 291.58 790.174 292.261 789.659C292.951 789.152 293.295 788.299 293.295 787.102V783.909H293.091C292.879 784.394 292.561 784.852 292.136 785.284C291.712 785.716 291.167 786.068 290.5 786.341C289.833 786.614 289.038 786.75 288.114 786.75C286.803 786.75 285.61 786.447 284.534 785.841C283.466 785.227 282.614 784.292 281.977 783.034C281.348 781.769 281.034 780.17 281.034 778.239C281.034 776.261 281.356 774.61 282 773.284C282.644 771.958 283.5 770.966 284.568 770.307C285.644 769.648 286.822 769.318 288.102 769.318C289.08 769.318 289.898 769.485 290.557 769.818C291.216 770.144 291.746 770.553 292.148 771.045C292.557 771.53 292.871 772.008 293.091 772.477H293.273V769.545H298.08V787.17C298.08 788.655 297.716 789.898 296.989 790.898C296.261 791.898 295.254 792.648 293.966 793.148C292.686 793.655 291.212 793.909 289.545 793.909ZM289.648 783.114C290.428 783.114 291.087 782.92 291.625 782.534C292.17 782.14 292.587 781.58 292.875 780.852C293.17 780.117 293.318 779.239 293.318 778.216C293.318 777.193 293.174 776.307 292.886 775.557C292.598 774.799 292.182 774.212 291.636 773.795C291.091 773.379 290.428 773.17 289.648 773.17C288.852 773.17 288.182 773.386 287.636 773.818C287.091 774.242 286.678 774.833 286.398 775.591C286.117 776.348 285.977 777.223 285.977 778.216C285.977 779.223 286.117 780.095 286.398 780.83C286.686 781.557 287.098 782.121 287.636 782.523C288.182 782.917 288.852 783.114 289.648 783.114Z" fill="#4BA70D"/>
</svg>
