<svg width="523" height="812" viewBox="0 0 523 812" fill="none" xmlns="http://www.w3.org/2000/svg">
<rect width="523" height="812" fill="white"/>
<rect x="84" y="575" width="355" height="190" rx="25" fill="#CFCFCF"/>
<rect x="84" y="354" width="355" height="190" rx="25" fill="#CFCFCF"/>
<path d="M218.273 526H210.023V502.727H218.341C220.682 502.727 222.697 503.193 224.386 504.125C226.076 505.049 227.375 506.379 228.284 508.114C229.201 509.848 229.659 511.924 229.659 514.341C229.659 516.765 229.201 518.848 228.284 520.591C227.375 522.333 226.068 523.67 224.364 524.602C222.667 525.534 220.636 526 218.273 526ZM214.943 521.784H218.068C219.523 521.784 220.746 521.527 221.739 521.011C222.739 520.489 223.489 519.682 223.989 518.591C224.496 517.492 224.75 516.076 224.75 514.341C224.75 512.621 224.496 511.216 223.989 510.125C223.489 509.034 222.742 508.231 221.75 507.716C220.758 507.201 219.534 506.943 218.08 506.943H214.943V521.784ZM241.168 526.341C239.372 526.341 237.827 525.977 236.531 525.25C235.243 524.515 234.251 523.477 233.554 522.136C232.857 520.788 232.509 519.193 232.509 517.352C232.509 515.557 232.857 513.981 233.554 512.625C234.251 511.269 235.232 510.212 236.497 509.455C237.77 508.697 239.262 508.318 240.974 508.318C242.126 508.318 243.198 508.504 244.19 508.875C245.19 509.239 246.062 509.788 246.804 510.523C247.554 511.258 248.137 512.182 248.554 513.295C248.971 514.402 249.179 515.697 249.179 517.182V518.511H234.44V515.511H244.622C244.622 514.814 244.471 514.197 244.168 513.659C243.865 513.121 243.444 512.701 242.906 512.398C242.376 512.087 241.759 511.932 241.054 511.932C240.319 511.932 239.668 512.102 239.099 512.443C238.539 512.777 238.099 513.227 237.781 513.795C237.463 514.356 237.3 514.981 237.293 515.67V518.523C237.293 519.386 237.452 520.133 237.77 520.761C238.096 521.39 238.554 521.875 239.145 522.216C239.736 522.557 240.437 522.727 241.247 522.727C241.785 522.727 242.277 522.652 242.724 522.5C243.171 522.348 243.554 522.121 243.872 521.818C244.19 521.515 244.433 521.144 244.599 520.705L249.077 521C248.849 522.076 248.384 523.015 247.679 523.818C246.982 524.614 246.08 525.235 244.974 525.682C243.876 526.121 242.607 526.341 241.168 526.341ZM257.179 502.727V526H252.338V502.727H257.179ZM261.057 526V508.545H265.898V526H261.057ZM263.489 506.295C262.769 506.295 262.152 506.057 261.636 505.58C261.129 505.095 260.875 504.515 260.875 503.841C260.875 503.174 261.129 502.602 261.636 502.125C262.152 501.64 262.769 501.398 263.489 501.398C264.208 501.398 264.822 501.64 265.33 502.125C265.845 502.602 266.102 503.174 266.102 503.841C266.102 504.515 265.845 505.095 265.33 505.58C264.822 506.057 264.208 506.295 263.489 506.295ZM274.616 502.727V526H269.776V502.727H274.616ZM283.472 526.33C282.358 526.33 281.366 526.136 280.494 525.75C279.623 525.356 278.934 524.777 278.426 524.011C277.926 523.239 277.676 522.277 277.676 521.125C277.676 520.155 277.854 519.341 278.21 518.682C278.566 518.023 279.051 517.492 279.665 517.091C280.278 516.689 280.975 516.386 281.756 516.182C282.544 515.977 283.369 515.833 284.233 515.75C285.248 515.644 286.066 515.545 286.688 515.455C287.309 515.356 287.759 515.212 288.04 515.023C288.32 514.833 288.46 514.553 288.46 514.182V514.114C288.46 513.394 288.233 512.837 287.778 512.443C287.331 512.049 286.695 511.852 285.869 511.852C284.998 511.852 284.305 512.045 283.79 512.432C283.275 512.811 282.934 513.288 282.767 513.864L278.29 513.5C278.517 512.439 278.964 511.523 279.631 510.75C280.297 509.97 281.157 509.371 282.21 508.955C283.271 508.53 284.498 508.318 285.892 508.318C286.862 508.318 287.79 508.432 288.676 508.659C289.57 508.886 290.362 509.239 291.051 509.716C291.748 510.193 292.297 510.807 292.699 511.557C293.1 512.299 293.301 513.189 293.301 514.227V526H288.71V523.58H288.574C288.294 524.125 287.919 524.606 287.449 525.023C286.979 525.432 286.415 525.754 285.756 525.989C285.097 526.216 284.335 526.33 283.472 526.33ZM284.858 522.989C285.57 522.989 286.199 522.848 286.744 522.568C287.29 522.28 287.718 521.894 288.028 521.409C288.339 520.924 288.494 520.375 288.494 519.761V517.909C288.343 518.008 288.134 518.098 287.869 518.182C287.612 518.258 287.32 518.33 286.994 518.398C286.669 518.458 286.343 518.515 286.017 518.568C285.691 518.614 285.396 518.655 285.131 518.693C284.563 518.777 284.066 518.909 283.642 519.091C283.218 519.273 282.888 519.519 282.653 519.83C282.419 520.133 282.301 520.511 282.301 520.966C282.301 521.625 282.54 522.129 283.017 522.477C283.502 522.818 284.116 522.989 284.858 522.989ZM301.898 515.909V526H297.057V502.727H301.761V511.625H301.966C302.36 510.595 302.996 509.788 303.875 509.205C304.754 508.614 305.856 508.318 307.182 508.318C308.394 508.318 309.451 508.583 310.352 509.114C311.261 509.636 311.966 510.39 312.466 511.375C312.973 512.352 313.223 513.523 313.216 514.886V526H308.375V515.75C308.383 514.674 308.11 513.837 307.557 513.239C307.011 512.64 306.246 512.341 305.261 512.341C304.602 512.341 304.019 512.481 303.511 512.761C303.011 513.042 302.617 513.451 302.33 513.989C302.049 514.519 301.905 515.159 301.898 515.909Z" fill="#4BA70D"/>
<rect x="84" y="133" width="355" height="190" rx="25" fill="#CFCFCF"/>
<path d="M212.023 305V281.727H221.341C223.053 281.727 224.481 281.981 225.625 282.489C226.769 282.996 227.629 283.701 228.205 284.602C228.78 285.496 229.068 286.527 229.068 287.693C229.068 288.602 228.886 289.402 228.523 290.091C228.159 290.773 227.659 291.333 227.023 291.773C226.394 292.205 225.674 292.511 224.864 292.693V292.92C225.75 292.958 226.58 293.208 227.352 293.67C228.133 294.133 228.765 294.78 229.25 295.614C229.735 296.439 229.977 297.424 229.977 298.568C229.977 299.803 229.67 300.905 229.057 301.875C228.451 302.837 227.553 303.598 226.364 304.159C225.174 304.72 223.708 305 221.966 305H212.023ZM216.943 300.977H220.955C222.326 300.977 223.326 300.716 223.955 300.193C224.583 299.663 224.898 298.958 224.898 298.08C224.898 297.436 224.742 296.867 224.432 296.375C224.121 295.883 223.678 295.496 223.102 295.216C222.534 294.936 221.856 294.795 221.068 294.795H216.943V300.977ZM216.943 291.466H220.591C221.265 291.466 221.864 291.348 222.386 291.114C222.917 290.871 223.333 290.53 223.636 290.091C223.947 289.652 224.102 289.125 224.102 288.511C224.102 287.67 223.803 286.992 223.205 286.477C222.614 285.962 221.773 285.705 220.682 285.705H216.943V291.466ZM238.065 305.33C236.952 305.33 235.959 305.136 235.088 304.75C234.217 304.356 233.527 303.777 233.02 303.011C232.52 302.239 232.27 301.277 232.27 300.125C232.27 299.155 232.448 298.341 232.804 297.682C233.16 297.023 233.645 296.492 234.259 296.091C234.872 295.689 235.569 295.386 236.349 295.182C237.137 294.977 237.963 294.833 238.827 294.75C239.842 294.644 240.66 294.545 241.281 294.455C241.902 294.356 242.353 294.212 242.634 294.023C242.914 293.833 243.054 293.553 243.054 293.182V293.114C243.054 292.394 242.827 291.837 242.372 291.443C241.925 291.049 241.289 290.852 240.463 290.852C239.592 290.852 238.899 291.045 238.384 291.432C237.868 291.811 237.527 292.288 237.361 292.864L232.884 292.5C233.111 291.439 233.558 290.523 234.224 289.75C234.891 288.97 235.751 288.371 236.804 287.955C237.865 287.53 239.092 287.318 240.486 287.318C241.455 287.318 242.384 287.432 243.27 287.659C244.164 287.886 244.955 288.239 245.645 288.716C246.342 289.193 246.891 289.807 247.293 290.557C247.694 291.299 247.895 292.189 247.895 293.227V305H243.304V302.58H243.168C242.887 303.125 242.512 303.606 242.043 304.023C241.573 304.432 241.009 304.754 240.349 304.989C239.69 305.216 238.929 305.33 238.065 305.33ZM239.452 301.989C240.164 301.989 240.793 301.848 241.338 301.568C241.884 301.28 242.312 300.894 242.622 300.409C242.933 299.924 243.088 299.375 243.088 298.761V296.909C242.937 297.008 242.728 297.098 242.463 297.182C242.205 297.258 241.914 297.33 241.588 297.398C241.262 297.458 240.937 297.515 240.611 297.568C240.285 297.614 239.99 297.655 239.724 297.693C239.156 297.777 238.66 297.909 238.236 298.091C237.812 298.273 237.482 298.519 237.247 298.83C237.012 299.133 236.895 299.511 236.895 299.966C236.895 300.625 237.134 301.129 237.611 301.477C238.096 301.818 238.709 301.989 239.452 301.989ZM255.696 287.545L258.901 293.648L262.185 287.545H267.151L262.094 296.273L267.287 305H262.344L258.901 298.966L255.514 305H250.514L255.696 296.273L250.696 287.545H255.696ZM279.31 287.545V291.182H268.798V287.545H279.31ZM271.185 283.364H276.026V299.636C276.026 300.083 276.094 300.432 276.23 300.682C276.366 300.924 276.556 301.095 276.798 301.193C277.048 301.292 277.336 301.341 277.662 301.341C277.889 301.341 278.116 301.322 278.344 301.284C278.571 301.239 278.745 301.205 278.866 301.182L279.628 304.784C279.385 304.86 279.045 304.947 278.605 305.045C278.166 305.152 277.632 305.216 277.003 305.239C275.836 305.284 274.813 305.129 273.935 304.773C273.063 304.417 272.385 303.864 271.901 303.114C271.416 302.364 271.177 301.417 271.185 300.273V283.364ZM290.23 305.341C288.435 305.341 286.889 304.977 285.594 304.25C284.306 303.515 283.313 302.477 282.616 301.136C281.92 299.788 281.571 298.193 281.571 296.352C281.571 294.557 281.92 292.981 282.616 291.625C283.313 290.269 284.295 289.212 285.56 288.455C286.832 287.697 288.325 287.318 290.037 287.318C291.188 287.318 292.26 287.504 293.253 287.875C294.253 288.239 295.124 288.788 295.866 289.523C296.616 290.258 297.2 291.182 297.616 292.295C298.033 293.402 298.241 294.697 298.241 296.182V297.511H283.503V294.511H293.685C293.685 293.814 293.533 293.197 293.23 292.659C292.927 292.121 292.507 291.701 291.969 291.398C291.438 291.087 290.821 290.932 290.116 290.932C289.382 290.932 288.73 291.102 288.162 291.443C287.601 291.777 287.162 292.227 286.844 292.795C286.526 293.356 286.363 293.981 286.355 294.67V297.523C286.355 298.386 286.514 299.133 286.832 299.761C287.158 300.39 287.616 300.875 288.207 301.216C288.798 301.557 289.499 301.727 290.31 301.727C290.848 301.727 291.34 301.652 291.787 301.5C292.234 301.348 292.616 301.121 292.935 300.818C293.253 300.515 293.495 300.144 293.662 299.705L298.139 300C297.912 301.076 297.446 302.015 296.741 302.818C296.045 303.614 295.143 304.235 294.037 304.682C292.938 305.121 291.67 305.341 290.23 305.341ZM301.401 305V287.545H306.094V290.591H306.276C306.594 289.508 307.128 288.689 307.878 288.136C308.628 287.576 309.491 287.295 310.469 287.295C310.711 287.295 310.973 287.311 311.253 287.341C311.533 287.371 311.779 287.413 311.991 287.466V291.761C311.764 291.693 311.45 291.633 311.048 291.58C310.647 291.527 310.279 291.5 309.946 291.5C309.234 291.5 308.598 291.655 308.037 291.966C307.484 292.269 307.045 292.693 306.719 293.239C306.401 293.784 306.241 294.413 306.241 295.125V305H301.401Z" fill="#4BA70D"/>
<path d="M163.503 55H158.23L166.264 31.7273H172.605L180.628 55H175.355L169.526 37.0455H169.344L163.503 55ZM163.173 45.8523H175.628V49.6932H163.173V45.8523ZM188.957 55.2841C187.632 55.2841 186.431 54.9432 185.355 54.2614C184.287 53.572 183.438 52.5606 182.81 51.2273C182.188 49.8864 181.878 48.2424 181.878 46.2955C181.878 44.2955 182.2 42.6326 182.844 41.3068C183.488 39.9735 184.344 38.9773 185.412 38.3182C186.488 37.6515 187.666 37.3182 188.946 37.3182C189.923 37.3182 190.738 37.4848 191.389 37.8182C192.048 38.1439 192.579 38.553 192.98 39.0455C193.389 39.5303 193.7 40.0076 193.912 40.4773H194.06V31.7273H198.889V55H194.116V52.2045H193.912C193.685 52.6894 193.363 53.1705 192.946 53.6477C192.537 54.1174 192.003 54.5076 191.344 54.8182C190.692 55.1288 189.897 55.2841 188.957 55.2841ZM190.491 51.4318C191.272 51.4318 191.931 51.2197 192.469 50.7955C193.014 50.3636 193.431 49.7614 193.719 48.9886C194.014 48.2159 194.162 47.3106 194.162 46.2727C194.162 45.2348 194.018 44.3333 193.73 43.5682C193.442 42.803 193.026 42.2121 192.48 41.7955C191.935 41.3788 191.272 41.1705 190.491 41.1705C189.696 41.1705 189.026 41.3864 188.48 41.8182C187.935 42.25 187.522 42.8485 187.241 43.6136C186.961 44.3788 186.821 45.2652 186.821 46.2727C186.821 47.2879 186.961 48.1856 187.241 48.9659C187.529 49.7386 187.942 50.3447 188.48 50.7841C189.026 51.2159 189.696 51.4318 190.491 51.4318ZM210.756 55.3409C208.991 55.3409 207.464 54.9659 206.176 54.2159C204.896 53.4583 203.907 52.4053 203.21 51.0568C202.513 49.7008 202.165 48.1288 202.165 46.3409C202.165 44.5379 202.513 42.9621 203.21 41.6136C203.907 40.2576 204.896 39.2045 206.176 38.4545C207.464 37.697 208.991 37.3182 210.756 37.3182C212.521 37.3182 214.044 37.697 215.324 38.4545C216.612 39.2045 217.604 40.2576 218.301 41.6136C218.998 42.9621 219.347 44.5379 219.347 46.3409C219.347 48.1288 218.998 49.7008 218.301 51.0568C217.604 52.4053 216.612 53.4583 215.324 54.2159C214.044 54.9659 212.521 55.3409 210.756 55.3409ZM210.778 51.5909C211.581 51.5909 212.252 51.3636 212.79 50.9091C213.328 50.447 213.733 49.8182 214.006 49.0227C214.286 48.2273 214.426 47.322 214.426 46.3068C214.426 45.2917 214.286 44.3864 214.006 43.5909C213.733 42.7955 213.328 42.1667 212.79 41.7045C212.252 41.2424 211.581 41.0114 210.778 41.0114C209.968 41.0114 209.286 41.2424 208.733 41.7045C208.188 42.1667 207.775 42.7955 207.494 43.5909C207.222 44.3864 207.085 45.2917 207.085 46.3068C207.085 47.322 207.222 48.2273 207.494 49.0227C207.775 49.8182 208.188 50.447 208.733 50.9091C209.286 51.3636 209.968 51.5909 210.778 51.5909ZM222.494 61.5455V37.5455H227.267V40.4773H227.483C227.695 40.0076 228.002 39.5303 228.403 39.0455C228.813 38.553 229.343 38.1439 229.994 37.8182C230.653 37.4848 231.472 37.3182 232.449 37.3182C233.722 37.3182 234.896 37.6515 235.972 38.3182C237.047 38.9773 237.907 39.9735 238.551 41.3068C239.195 42.6326 239.517 44.2955 239.517 46.2955C239.517 48.2424 239.203 49.8864 238.574 51.2273C237.953 52.5606 237.104 53.572 236.028 54.2614C234.96 54.9432 233.763 55.2841 232.438 55.2841C231.498 55.2841 230.699 55.1288 230.04 54.8182C229.388 54.5076 228.854 54.1174 228.438 53.6477C228.021 53.1705 227.703 52.6894 227.483 52.2045H227.335V61.5455H222.494ZM227.233 46.2727C227.233 47.3106 227.377 48.2159 227.665 48.9886C227.953 49.7614 228.369 50.3636 228.915 50.7955C229.46 51.2197 230.123 51.4318 230.903 51.4318C231.691 51.4318 232.358 51.2159 232.903 50.7841C233.449 50.3447 233.862 49.7386 234.142 48.9659C234.43 48.1856 234.574 47.2879 234.574 46.2727C234.574 45.2652 234.434 44.3788 234.153 43.6136C233.873 42.8485 233.46 42.25 232.915 41.8182C232.369 41.3864 231.699 41.1705 230.903 41.1705C230.116 41.1705 229.449 41.3788 228.903 41.7955C228.366 42.2121 227.953 42.803 227.665 43.5682C227.377 44.3333 227.233 45.2348 227.233 46.2727ZM252.028 37.5455V41.1818H241.517V37.5455H252.028ZM243.903 33.3636H248.744V49.6364C248.744 50.0833 248.813 50.4318 248.949 50.6818C249.085 50.9242 249.275 51.0947 249.517 51.1932C249.767 51.2917 250.055 51.3409 250.381 51.3409C250.608 51.3409 250.835 51.322 251.062 51.2841C251.29 51.2386 251.464 51.2045 251.585 51.1818L252.347 54.7841C252.104 54.8598 251.763 54.947 251.324 55.0455C250.884 55.1515 250.35 55.2159 249.722 55.2386C248.555 55.2841 247.532 55.1288 246.653 54.7727C245.782 54.4167 245.104 53.8636 244.619 53.1136C244.134 52.3636 243.896 51.4167 243.903 50.2727V33.3636ZM266.69 55H261.418L269.452 31.7273H275.793L283.815 55H278.543L272.713 37.0455H272.531L266.69 55ZM266.361 45.8523H278.815V49.6932H266.361V45.8523ZM302.273 55H294.023V31.7273H302.341C304.682 31.7273 306.697 32.1932 308.386 33.125C310.076 34.0492 311.375 35.3788 312.284 37.1136C313.201 38.8485 313.659 40.9242 313.659 43.3409C313.659 45.7652 313.201 47.8485 312.284 49.5909C311.375 51.3333 310.068 52.6705 308.364 53.6023C306.667 54.5341 304.636 55 302.273 55ZM298.943 50.7841H302.068C303.523 50.7841 304.746 50.5265 305.739 50.0114C306.739 49.4886 307.489 48.6818 307.989 47.5909C308.496 46.4924 308.75 45.0758 308.75 43.3409C308.75 41.6212 308.496 40.2159 307.989 39.125C307.489 38.0341 306.742 37.2311 305.75 36.7159C304.758 36.2008 303.534 35.9432 302.08 35.9432H298.943V50.7841ZM325.099 55.3409C323.334 55.3409 321.808 54.9659 320.52 54.2159C319.24 53.4583 318.251 52.4053 317.554 51.0568C316.857 49.7008 316.509 48.1288 316.509 46.3409C316.509 44.5379 316.857 42.9621 317.554 41.6136C318.251 40.2576 319.24 39.2045 320.52 38.4545C321.808 37.697 323.334 37.3182 325.099 37.3182C326.865 37.3182 328.387 37.697 329.668 38.4545C330.955 39.2045 331.948 40.2576 332.645 41.6136C333.342 42.9621 333.69 44.5379 333.69 46.3409C333.69 48.1288 333.342 49.7008 332.645 51.0568C331.948 52.4053 330.955 53.4583 329.668 54.2159C328.387 54.9659 326.865 55.3409 325.099 55.3409ZM325.122 51.5909C325.925 51.5909 326.596 51.3636 327.134 50.9091C327.671 50.447 328.077 49.8182 328.349 49.0227C328.63 48.2273 328.77 47.322 328.77 46.3068C328.77 45.2917 328.63 44.3864 328.349 43.5909C328.077 42.7955 327.671 42.1667 327.134 41.7045C326.596 41.2424 325.925 41.0114 325.122 41.0114C324.312 41.0114 323.63 41.2424 323.077 41.7045C322.531 42.1667 322.118 42.7955 321.838 43.5909C321.565 44.3864 321.429 45.2917 321.429 46.3068C321.429 47.322 321.565 48.2273 321.838 49.0227C322.118 49.8182 322.531 50.447 323.077 50.9091C323.63 51.3636 324.312 51.5909 325.122 51.5909ZM344.702 61.9091C343.134 61.9091 341.789 61.6932 340.668 61.2614C339.554 60.8371 338.668 60.2576 338.009 59.5227C337.349 58.7879 336.921 57.9621 336.724 57.0455L341.202 56.4432C341.338 56.7917 341.554 57.1174 341.849 57.4205C342.145 57.7235 342.535 57.9659 343.02 58.1477C343.512 58.3371 344.111 58.4318 344.815 58.4318C345.868 58.4318 346.736 58.1742 347.418 57.6591C348.107 57.1515 348.452 56.2992 348.452 55.1023V51.9091H348.247C348.035 52.3939 347.717 52.8523 347.293 53.2841C346.868 53.7159 346.323 54.0682 345.656 54.3409C344.99 54.6136 344.194 54.75 343.27 54.75C341.959 54.75 340.766 54.447 339.69 53.8409C338.622 53.2273 337.77 52.2917 337.134 51.0341C336.505 49.7689 336.19 48.1705 336.19 46.2386C336.19 44.2614 336.512 42.6098 337.156 41.2841C337.8 39.9583 338.656 38.9659 339.724 38.3068C340.8 37.6477 341.978 37.3182 343.259 37.3182C344.236 37.3182 345.054 37.4848 345.713 37.8182C346.372 38.1439 346.902 38.553 347.304 39.0455C347.713 39.5303 348.027 40.0076 348.247 40.4773H348.429V37.5455H353.236V55.1705C353.236 56.6553 352.872 57.8977 352.145 58.8977C351.418 59.8977 350.41 60.6477 349.122 61.1477C347.842 61.6553 346.368 61.9091 344.702 61.9091ZM344.804 51.1136C345.584 51.1136 346.243 50.9205 346.781 50.5341C347.327 50.1402 347.743 49.5795 348.031 48.8523C348.327 48.1174 348.474 47.2386 348.474 46.2159C348.474 45.1932 348.33 44.3068 348.043 43.5568C347.755 42.7992 347.338 42.2121 346.793 41.7955C346.247 41.3788 345.584 41.1705 344.804 41.1705C344.009 41.1705 343.338 41.3864 342.793 41.8182C342.247 42.2424 341.834 42.8333 341.554 43.5909C341.274 44.3485 341.134 45.2235 341.134 46.2159C341.134 47.2235 341.274 48.0947 341.554 48.8295C341.842 49.5568 342.255 50.1212 342.793 50.5227C343.338 50.9167 344.009 51.1136 344.804 51.1136ZM362.872 31.7273L362.429 48.0227H358.27L357.815 31.7273H362.872ZM360.349 55.2955C359.599 55.2955 358.955 55.0303 358.418 54.5C357.88 53.9621 357.615 53.3182 357.622 52.5682C357.615 51.8258 357.88 51.1894 358.418 50.6591C358.955 50.1288 359.599 49.8636 360.349 49.8636C361.069 49.8636 361.702 50.1288 362.247 50.6591C362.793 51.1894 363.069 51.8258 363.077 52.5682C363.069 53.0682 362.937 53.5265 362.679 53.9432C362.429 54.3523 362.099 54.6818 361.69 54.9318C361.281 55.1742 360.834 55.2955 360.349 55.2955ZM223.614 70.7273V94H219.364L209.239 79.3523H209.068V94H204.148V70.7273H208.466L218.511 85.3636H218.716V70.7273H223.614ZM232.565 94.3295C231.452 94.3295 230.459 94.1364 229.588 93.75C228.717 93.3561 228.027 92.7765 227.52 92.0114C227.02 91.2386 226.77 90.2765 226.77 89.125C226.77 88.1553 226.948 87.3409 227.304 86.6818C227.66 86.0227 228.145 85.4924 228.759 85.0909C229.372 84.6894 230.069 84.3864 230.849 84.1818C231.637 83.9773 232.463 83.8333 233.327 83.75C234.342 83.6439 235.16 83.5455 235.781 83.4545C236.402 83.3561 236.853 83.2121 237.134 83.0227C237.414 82.8333 237.554 82.553 237.554 82.1818V82.1136C237.554 81.3939 237.327 80.8371 236.872 80.4432C236.425 80.0492 235.789 79.8523 234.963 79.8523C234.092 79.8523 233.399 80.0455 232.884 80.4318C232.368 80.8106 232.027 81.2879 231.861 81.8636L227.384 81.5C227.611 80.4394 228.058 79.5227 228.724 78.75C229.391 77.9697 230.251 77.3712 231.304 76.9545C232.365 76.5303 233.592 76.3182 234.986 76.3182C235.955 76.3182 236.884 76.4318 237.77 76.6591C238.664 76.8864 239.455 77.2386 240.145 77.7159C240.842 78.1932 241.391 78.8068 241.793 79.5568C242.194 80.2992 242.395 81.1894 242.395 82.2273V94H237.804V91.5795H237.668C237.387 92.125 237.012 92.6061 236.543 93.0227C236.073 93.4318 235.509 93.7538 234.849 93.9886C234.19 94.2159 233.429 94.3295 232.565 94.3295ZM233.952 90.9886C234.664 90.9886 235.293 90.8485 235.838 90.5682C236.384 90.2803 236.812 89.8939 237.122 89.4091C237.433 88.9242 237.588 88.375 237.588 87.7614V85.9091C237.437 86.0076 237.228 86.0985 236.963 86.1818C236.705 86.2576 236.414 86.3295 236.088 86.3977C235.762 86.4583 235.437 86.5152 235.111 86.5682C234.785 86.6136 234.49 86.6553 234.224 86.6932C233.656 86.7765 233.16 86.9091 232.736 87.0909C232.312 87.2727 231.982 87.5189 231.747 87.8295C231.512 88.1326 231.395 88.5114 231.395 88.9659C231.395 89.625 231.634 90.1288 232.111 90.4773C232.596 90.8182 233.209 90.9886 233.952 90.9886ZM246.151 94V76.5455H250.764V79.625H250.969C251.332 78.6023 251.938 77.7955 252.787 77.2045C253.635 76.6136 254.651 76.3182 255.832 76.3182C257.029 76.3182 258.048 76.6174 258.889 77.2159C259.73 77.8068 260.291 78.6098 260.571 79.625H260.753C261.109 78.625 261.753 77.8258 262.685 77.2273C263.624 76.6212 264.734 76.3182 266.014 76.3182C267.643 76.3182 268.965 76.8371 269.98 77.875C271.003 78.9053 271.514 80.3674 271.514 82.2614V94H266.685V83.2159C266.685 82.2462 266.427 81.5189 265.912 81.0341C265.397 80.5492 264.753 80.3068 263.98 80.3068C263.101 80.3068 262.416 80.5871 261.923 81.1477C261.431 81.7008 261.185 82.4318 261.185 83.3409V94H256.491V83.1136C256.491 82.2576 256.245 81.5758 255.753 81.0682C255.268 80.5606 254.628 80.3068 253.832 80.3068C253.295 80.3068 252.81 80.4432 252.378 80.7159C251.954 80.9811 251.616 81.3561 251.366 81.8409C251.116 82.3182 250.991 82.8788 250.991 83.5227V94H246.151ZM283.293 94.3409C281.497 94.3409 279.952 93.9773 278.656 93.25C277.368 92.5152 276.376 91.4773 275.679 90.1364C274.982 88.7879 274.634 87.1932 274.634 85.3523C274.634 83.5568 274.982 81.9811 275.679 80.625C276.376 79.2689 277.357 78.2121 278.622 77.4545C279.895 76.697 281.387 76.3182 283.099 76.3182C284.251 76.3182 285.323 76.5038 286.315 76.875C287.315 77.2386 288.187 77.7879 288.929 78.5227C289.679 79.2576 290.262 80.1818 290.679 81.2955C291.096 82.4015 291.304 83.697 291.304 85.1818V86.5114H276.565V83.5114H286.747C286.747 82.8144 286.596 82.197 286.293 81.6591C285.99 81.1212 285.569 80.7008 285.031 80.3977C284.501 80.0871 283.884 79.9318 283.179 79.9318C282.444 79.9318 281.793 80.1023 281.224 80.4432C280.664 80.7765 280.224 81.2273 279.906 81.7955C279.588 82.3561 279.425 82.9811 279.418 83.6705V86.5227C279.418 87.3864 279.577 88.1326 279.895 88.7614C280.221 89.3902 280.679 89.875 281.27 90.2159C281.861 90.5568 282.562 90.7273 283.372 90.7273C283.91 90.7273 284.402 90.6515 284.849 90.5C285.296 90.3485 285.679 90.1212 285.997 89.8182C286.315 89.5152 286.558 89.1439 286.724 88.7045L291.202 89C290.974 90.0758 290.509 91.0152 289.804 91.8182C289.107 92.6136 288.205 93.2348 287.099 93.6818C286.001 94.1212 284.732 94.3409 283.293 94.3409ZM308.986 81.5227L304.554 81.7955C304.478 81.4167 304.315 81.0758 304.065 80.7727C303.815 80.4621 303.486 80.2159 303.077 80.0341C302.675 79.8447 302.194 79.75 301.634 79.75C300.884 79.75 300.251 79.9091 299.736 80.2273C299.221 80.5379 298.963 80.9545 298.963 81.4773C298.963 81.8939 299.13 82.2462 299.463 82.5341C299.796 82.822 300.368 83.053 301.179 83.2273L304.338 83.8636C306.035 84.2121 307.3 84.7727 308.134 85.5455C308.967 86.3182 309.384 87.3333 309.384 88.5909C309.384 89.7348 309.046 90.7386 308.372 91.6023C307.705 92.4659 306.789 93.1402 305.622 93.625C304.463 94.1023 303.126 94.3409 301.611 94.3409C299.3 94.3409 297.459 93.8598 296.088 92.8977C294.724 91.928 293.925 90.6098 293.69 88.9432L298.452 88.6932C298.596 89.3977 298.944 89.9356 299.497 90.3068C300.05 90.6705 300.759 90.8523 301.622 90.8523C302.471 90.8523 303.152 90.6894 303.668 90.3636C304.19 90.0303 304.455 89.6023 304.463 89.0795C304.455 88.6402 304.27 88.2803 303.906 88C303.543 87.7121 302.982 87.4924 302.224 87.3409L299.202 86.7386C297.497 86.3977 296.228 85.8068 295.395 84.9659C294.569 84.125 294.156 83.053 294.156 81.75C294.156 80.6288 294.459 79.6629 295.065 78.8523C295.679 78.0417 296.539 77.4167 297.645 76.9773C298.759 76.5379 300.062 76.3182 301.554 76.3182C303.759 76.3182 305.493 76.7841 306.759 77.7159C308.031 78.6477 308.774 79.9167 308.986 81.5227ZM318.216 70.7273L317.773 87.0227H313.614L313.159 70.7273H318.216ZM315.693 94.2955C314.943 94.2955 314.299 94.0303 313.761 93.5C313.223 92.9621 312.958 92.3182 312.966 91.5682C312.958 90.8258 313.223 90.1894 313.761 89.6591C314.299 89.1288 314.943 88.8636 315.693 88.8636C316.413 88.8636 317.045 89.1288 317.591 89.6591C318.136 90.1894 318.413 90.8258 318.42 91.5682C318.413 92.0682 318.28 92.5265 318.023 92.9432C317.773 93.3523 317.443 93.6818 317.034 93.9318C316.625 94.1742 316.178 94.2955 315.693 94.2955Z" fill="#4BA70D"/>
<path d="M239.267 263.768C241.573 264.629 244.132 265.326 246.932 265.871C251.594 266.77 256.915 267.226 262.831 267.226C266.48 267.226 275.26 266.58 282.088 264.667C283.064 264.388 284.001 264.097 284.875 263.768C288.233 262.513 292.983 259.232 296.48 253.721C292.325 254.101 288.98 251.365 285.978 246.753C281.721 240.241 279.098 234.135 273.372 228.396C271.32 226.344 268.862 224.152 268.95 221.403C269.064 217.906 275.792 207.758 273.245 192.872C273.157 192.872 273.068 192.847 272.967 192.834C269.837 192.416 266.797 192.251 264.732 192.175C264.276 192.163 263.858 192.15 263.503 192.15C263.148 192.15 262.857 192.15 262.629 192.15C262.287 192.15 262.097 192.15 262.084 192.15C262.008 192.15 256.801 192.099 251.189 192.746C251.1 192.746 251.011 192.771 250.923 192.784C248.325 207.72 255.091 217.893 255.205 221.403C255.293 224.152 252.823 226.344 250.783 228.396C245.057 234.148 242.434 240.254 238.178 246.753C235.162 251.352 231.818 254.101 227.675 253.708C231.172 259.207 235.91 262.501 239.28 263.755L239.267 263.768ZM258.524 229.98C259.702 229.878 260.893 229.929 262.071 229.929C263.249 229.929 264.44 229.891 265.619 229.98C269.242 230.284 271.725 232.716 269.736 235.871C268.368 238.037 265.606 240.317 262.071 240.317C258.537 240.317 255.775 238.05 254.407 235.871C252.418 232.703 254.888 230.284 258.524 229.98ZM238.874 254.165C239.977 255.52 242.244 255.951 243.917 255.14C245.652 254.291 247.451 252.581 249.352 250.769C252.772 247.513 256.624 243.852 261.742 243.599C261.78 243.599 261.818 243.573 261.869 243.573C261.945 243.573 262.008 243.573 262.084 243.573C262.16 243.573 262.223 243.573 262.299 243.573C262.299 243.573 262.375 243.586 262.426 243.599C266.873 243.814 270.382 246.627 273.461 249.49C273.917 249.92 274.373 250.351 274.816 250.769C276.717 252.581 278.503 254.291 280.239 255.14C281.911 255.951 284.179 255.52 285.281 254.165C285.597 253.784 286.155 253.734 286.522 254.038C286.902 254.342 286.953 254.912 286.649 255.279C285.572 256.584 283.836 257.306 282.075 257.306C281.176 257.306 280.277 257.116 279.453 256.724C277.464 255.761 275.576 253.949 273.575 252.049C270.167 248.806 266.645 245.448 262.071 245.347C257.498 245.448 253.976 248.806 250.568 252.049C248.566 253.962 246.679 255.761 244.69 256.724C243.879 257.116 242.967 257.306 242.067 257.306C241.624 257.306 241.193 257.256 240.762 257.167C239.483 256.901 238.304 256.255 237.493 255.267C237.189 254.887 237.24 254.329 237.62 254.025C238 253.708 238.558 253.772 238.862 254.152L238.874 254.165Z" fill="white"/>
<path d="M279.973 232.412C282.988 233.578 286.611 232.906 288.752 230.094C295.986 220.567 282.329 211.141 276.337 219.997C274.905 222.1 274.386 225.153 275.26 227.674C276.071 230.03 277.958 231.639 279.973 232.425V232.412ZM287.485 228.941C285.8 231.158 282.95 231.677 280.581 230.765C278.997 230.157 277.515 228.878 276.869 227.028C276.185 225.052 276.59 222.644 277.718 220.985C282.43 214.017 293.174 221.441 287.485 228.928V228.941Z" fill="white"/>
<path d="M248.123 227.674C248.997 225.166 248.477 222.112 247.046 219.997C241.053 211.141 227.396 220.567 234.63 230.094C236.771 232.919 240.395 233.578 243.41 232.412C245.424 231.639 247.312 230.018 248.123 227.661V227.674ZM235.897 228.954C230.209 221.454 240.952 214.042 245.665 221.01C246.792 222.67 247.198 225.064 246.514 227.053C245.868 228.903 244.385 230.182 242.802 230.791C240.433 231.703 237.582 231.183 235.897 228.966V228.954Z" fill="white"/>
<path d="M235.746 224.355C236.012 225.089 236.797 225.368 237.798 224.823C241.168 222.974 240.851 218.413 237.849 220.225C237.139 220.655 236.366 221.491 235.974 222.34C235.593 223.138 235.568 223.861 235.758 224.355H235.746Z" fill="white"/>
<path d="M280.644 220.149C279.935 220.579 279.162 221.415 278.769 222.264C278.389 223.062 278.364 223.785 278.554 224.279C278.82 225.013 279.605 225.292 280.606 224.747C283.976 222.898 283.659 218.337 280.657 220.149H280.644Z" fill="white"/>
<path d="M259.271 231.183C258.461 231.234 257.397 231.589 256.611 232.095C255.876 232.564 255.471 233.122 255.357 233.578C255.179 234.262 255.674 234.781 256.776 234.743C260.5 234.629 262.679 230.942 259.271 231.183Z" fill="white"/>
<path d="M305.501 166.42C298.013 163.379 288.423 180.457 283.875 190.909C283.305 192.226 282.798 193.43 282.405 194.481C289.183 198.662 294.732 203.375 298.748 208.734C299.685 208.43 301.028 207.872 302.321 206.986C304.829 205.263 307.046 202.298 305.272 197.573C304.398 195.241 312.304 169.194 305.513 166.432L305.501 166.42Z" fill="white"/>
<path d="M241.75 194.481C241.358 193.43 240.851 192.214 240.281 190.909C235.72 180.47 226.13 163.379 218.655 166.42C211.864 169.182 219.757 195.241 218.896 197.56C217.135 202.285 219.352 205.25 221.847 206.973C223.127 207.86 224.483 208.417 225.42 208.721C229.436 203.362 234.985 198.649 241.763 194.469L241.75 194.481Z" fill="white"/>
<path d="M310.872 189.515C310.986 188.844 311.113 188.159 311.24 187.45C313.14 176.719 315.294 162.15 308.427 159.54C308.351 159.515 308.262 159.49 308.186 159.464C298.533 156.132 287.422 172.285 280.758 185.41C280.087 186.728 279.466 188.007 278.896 189.236C278.478 190.149 278.085 191.023 277.717 191.871C276.337 191.555 274.829 191.289 273.207 191.086C267.506 190.326 262.122 190.377 262.084 190.377C262.084 190.377 262.059 190.377 262.008 190.377C261.97 190.377 261.907 190.377 261.818 190.377C260.69 190.377 255.99 190.402 250.973 190.985C249.326 191.175 247.781 191.415 246.349 191.694C240.522 178.303 227.029 155.22 215.703 159.528C215.475 159.616 215.26 159.718 215.044 159.832C214.626 160.06 214.246 160.339 213.904 160.655C213.727 160.82 213.575 160.985 213.41 161.175C211.56 163.379 210.952 167.154 211.003 171.5C211.066 177.29 212.282 184.093 213.245 189.502C213.739 192.264 214.297 195.343 214.284 196.508C214.284 196.673 214.284 196.8 214.246 196.888C213.891 197.965 213.625 198.966 213.448 199.916C212.675 204.034 213.613 207.036 216.273 209.253C217.755 210.469 219.466 211.458 221.657 212.345C221.581 213.016 221.531 213.662 221.505 214.283C221.467 215.524 221.581 216.766 221.746 217.995C221.847 218.755 221.962 219.502 222.076 220.237C222.506 222.936 222.912 225.495 222.342 227.953C219.719 239.38 222.266 247.741 225.141 252.986C225.331 253.341 225.521 253.671 225.724 254C228.917 259.334 233.744 263.603 238.621 265.427C239.419 265.719 240.243 265.997 241.092 266.264C247.046 268.088 254.331 269 262.806 269C265.885 269 275.576 268.455 283.19 266.187C283.976 265.947 284.749 265.693 285.471 265.427C286.066 265.212 286.649 264.946 287.232 264.655C287.257 264.655 287.27 264.642 287.295 264.629C287.764 264.401 288.233 264.135 288.689 263.856C292.401 261.652 295.885 258.143 298.368 254L298.495 253.785C298.571 253.645 298.659 253.493 298.735 253.354C298.837 253.189 298.925 253.024 299.027 252.847C299.115 252.67 299.217 252.492 299.305 252.302C299.394 252.125 299.495 251.935 299.584 251.745C299.673 251.555 299.761 251.365 299.85 251.175C299.939 250.972 300.04 250.782 300.129 250.579C300.218 250.377 300.294 250.174 300.382 249.959C300.471 249.743 300.56 249.541 300.648 249.325C300.737 249.11 300.813 248.894 300.889 248.666C300.965 248.438 301.054 248.223 301.13 247.982C301.206 247.754 301.269 247.513 301.345 247.285C301.421 247.045 301.497 246.817 301.573 246.563C301.636 246.323 301.7 246.069 301.763 245.816C301.827 245.562 301.89 245.322 301.953 245.068C302.017 244.815 302.067 244.536 302.118 244.283C302.169 244.017 302.232 243.763 302.283 243.497C302.333 243.219 302.371 242.94 302.409 242.661C302.447 242.383 302.498 242.117 302.536 241.838C302.574 241.546 302.599 241.242 302.637 240.938C302.663 240.66 302.701 240.381 302.726 240.102C302.751 239.785 302.764 239.456 302.777 239.127C302.789 238.848 302.815 238.569 302.815 238.278C302.815 237.923 302.815 237.568 302.815 237.201C302.815 236.922 302.815 236.656 302.815 236.377C302.815 235.985 302.777 235.592 302.751 235.187C302.739 234.921 302.726 234.667 302.713 234.401C302.675 233.932 302.625 233.464 302.574 232.982C302.549 232.767 302.536 232.551 302.511 232.336C302.435 231.69 302.321 231.019 302.207 230.347C302.207 230.296 302.194 230.246 302.181 230.195C302.055 229.46 301.903 228.725 301.725 227.965C301.155 225.495 301.56 222.936 301.991 220.225C302.295 218.286 302.612 216.297 302.549 214.283C302.523 213.624 302.473 212.965 302.397 212.357C304.588 211.47 306.299 210.482 307.768 209.266C309.403 207.91 310.391 206.251 310.72 204.211C311.05 202.171 310.745 199.764 309.795 196.914C309.605 196.293 310.15 193.138 310.682 190.149C310.72 189.946 310.758 189.73 310.796 189.528L310.872 189.515ZM305.26 197.56C307.033 202.285 304.804 205.25 302.308 206.973C301.028 207.86 299.673 208.417 298.735 208.721C294.719 203.362 289.17 198.649 282.392 194.469C282.785 193.417 283.292 192.201 283.862 190.896C288.423 180.457 298.013 163.366 305.488 166.407C312.278 169.169 304.386 195.229 305.247 197.547L305.26 197.56ZM276.337 219.997C282.329 211.141 295.986 220.567 288.752 230.094C286.611 232.919 282.988 233.578 279.973 232.412C277.958 231.639 276.071 230.018 275.26 227.661C274.386 225.153 274.905 222.1 276.337 219.984V219.997ZM234.63 230.094C227.397 220.567 241.054 211.141 247.046 219.997C248.478 222.1 248.997 225.153 248.123 227.674C247.312 230.03 245.424 231.639 243.41 232.425C240.395 233.59 236.772 232.919 234.63 230.106V230.094ZM221.848 206.973C219.339 205.25 217.122 202.285 218.896 197.56C219.77 195.229 211.864 169.181 218.655 166.42C226.142 163.379 235.733 180.457 240.281 190.909C240.851 192.226 241.345 193.43 241.75 194.481C234.973 198.662 229.424 203.375 225.407 208.734C224.47 208.43 223.127 207.872 221.835 206.986L221.848 206.973ZM238.178 246.753C242.435 240.242 245.057 234.135 250.783 228.396C252.823 226.344 255.294 224.152 255.205 221.403C255.091 217.893 248.338 207.72 250.923 192.784C251.011 192.784 251.1 192.758 251.189 192.746C256.801 192.087 262.008 192.15 262.084 192.15C262.084 192.15 262.287 192.15 262.629 192.15C262.857 192.15 263.161 192.15 263.503 192.15C263.858 192.15 264.263 192.163 264.732 192.176C266.797 192.239 269.837 192.404 272.967 192.834C273.055 192.834 273.144 192.86 273.245 192.872C275.792 207.758 269.065 217.893 268.951 221.403C268.862 224.152 271.32 226.344 273.372 228.396C279.098 234.148 281.721 240.254 285.978 246.753C288.993 251.352 292.337 254.101 296.48 253.721C292.984 259.22 288.245 262.513 284.875 263.768C284.001 264.097 283.064 264.388 282.088 264.667C275.247 266.58 266.467 267.226 262.831 267.226C256.902 267.226 251.594 266.77 246.932 265.871C244.132 265.326 241.573 264.629 239.267 263.768C235.91 262.513 231.159 259.232 227.663 253.721C231.818 254.114 235.163 251.365 238.165 246.766L238.178 246.753Z" fill="#231F20"/>
<path d="M246.514 227.04C247.198 225.064 246.793 222.657 245.665 220.997C240.952 214.029 230.209 221.453 235.897 228.941C237.582 231.158 240.433 231.677 242.802 230.765C244.385 230.157 245.868 228.877 246.514 227.028V227.04ZM237.848 220.224C240.851 218.413 241.168 222.974 237.798 224.823C236.797 225.368 236.024 225.089 235.745 224.355C235.568 223.86 235.593 223.138 235.961 222.34C236.366 221.491 237.126 220.655 237.836 220.224H237.848Z" fill="#231F20"/>
<path d="M277.717 220.997C276.59 222.657 276.184 225.051 276.868 227.04C277.515 228.89 278.997 230.17 280.58 230.778C282.95 231.69 285.8 231.17 287.485 228.953C293.173 221.453 282.43 214.042 277.717 221.01V220.997ZM280.593 224.747C279.592 225.292 278.82 225.013 278.541 224.279C278.363 223.784 278.389 223.062 278.756 222.264C279.162 221.415 279.922 220.579 280.631 220.148C283.634 218.337 283.95 222.898 280.58 224.747H280.593Z" fill="#231F20"/>
<path d="M254.419 235.883C255.788 238.05 258.55 240.33 262.084 240.33C265.619 240.33 268.381 238.062 269.749 235.883C271.738 232.716 269.267 230.296 265.631 229.992C264.453 229.891 263.262 229.942 262.084 229.942C260.906 229.942 259.715 229.904 258.537 229.992C254.914 230.296 252.43 232.729 254.419 235.883ZM256.776 234.756C255.674 234.794 255.192 234.262 255.357 233.59C255.471 233.134 255.876 232.589 256.611 232.108C257.397 231.601 258.461 231.259 259.272 231.196C262.68 230.968 260.501 234.642 256.776 234.756Z" fill="#231F20"/>
<path d="M237.633 254.038C237.253 254.342 237.202 254.912 237.506 255.28C238.317 256.268 239.495 256.914 240.775 257.18C241.206 257.269 241.636 257.319 242.08 257.319C242.979 257.319 243.879 257.129 244.702 256.737C246.691 255.774 248.579 253.962 250.581 252.062C253.989 248.818 257.511 245.461 262.084 245.36C266.658 245.461 270.18 248.818 273.588 252.062C275.589 253.975 277.477 255.774 279.466 256.737C280.277 257.129 281.189 257.319 282.088 257.319C283.849 257.319 285.585 256.597 286.662 255.292C286.966 254.912 286.915 254.355 286.535 254.051C286.155 253.747 285.598 253.797 285.294 254.177C284.179 255.533 281.924 255.964 280.251 255.153C278.516 254.304 276.717 252.594 274.829 250.782C274.386 250.364 273.942 249.933 273.473 249.503C270.395 246.627 266.886 243.827 262.439 243.612C262.401 243.612 262.363 243.586 262.312 243.586C262.236 243.586 262.173 243.586 262.097 243.586C262.021 243.586 261.957 243.586 261.881 243.586C261.881 243.586 261.805 243.599 261.755 243.612C256.636 243.865 252.785 247.526 249.365 250.782C247.464 252.594 245.678 254.304 243.929 255.153C242.257 255.964 239.989 255.533 238.887 254.177C238.583 253.797 238.013 253.747 237.646 254.051L237.633 254.038Z" fill="#231F20"/>
<path d="M248.829 656.965C251.728 653.267 249.75 647.429 245.876 646.305C243.059 645.492 240.336 644.856 237.871 645.628C236.368 646.088 234.959 647.077 233.686 648.838C235.934 653.768 243.939 663.196 248.829 656.965ZM238.982 647.104C240.865 646.535 242.951 647.009 245.104 647.619C248.057 648.459 249.574 652.834 247.366 655.597C243.628 660.27 237.506 653.199 235.799 649.515C236.774 648.188 237.844 647.456 238.995 647.104H238.982Z" fill="white"/>
<path d="M277.965 646.494C274.118 647.592 272.14 653.267 275.025 656.856C279.888 662.925 287.853 653.741 290.074 648.96C288.814 647.239 287.406 646.291 285.916 645.831C283.464 645.086 280.755 645.695 277.951 646.494H277.965ZM287.947 649.502C286.241 653.186 280.118 660.256 276.38 655.583C274.158 652.82 275.676 648.445 278.642 647.605C280.796 646.996 282.868 646.522 284.764 647.09C285.916 647.443 286.986 648.174 287.961 649.502H287.947Z" fill="white"/>
<path d="M292.498 688.227C292.593 688.159 298.323 684.109 302.766 678.556C304.486 672.135 305.258 663.67 297.51 659.064C297.51 659.064 287.568 655.312 273.562 663.25C273.332 661.841 272.465 660.5 270.731 659.349C269.133 658.292 267.128 658.509 265.286 658.699C260.816 659.159 251.985 657.371 249.574 662.925C249.533 663.006 249.506 663.087 249.479 663.169C235.501 655.529 225.003 660.595 225.003 660.595C217.296 664.523 218.651 672.786 220.615 679.233C224.976 684.448 230.259 688.186 230.34 688.254C233.564 690.53 235.975 692.142 238.169 693.483C262.401 706.879 286.647 692.236 286.877 692.087C288.53 691.017 290.318 689.798 292.498 688.254V688.227ZM251.85 663.873C253.8 659.674 260.925 661.028 264.528 660.676C266.018 660.527 267.63 660.365 268.93 661.164C275.323 665.133 266.979 672.068 263.498 672.894C261.751 673.3 259.895 673.192 257.958 672.474C255.141 671.431 250.048 667.747 251.863 663.859L251.85 663.873ZM277.409 677.283C276.949 677.553 276.488 677.838 276.014 678.136C273.007 680.005 269.269 682.321 261.792 682.47C261.575 682.47 261.372 682.47 261.169 682.47C254.247 682.47 250.387 680.276 247.258 678.502L246.432 678.028C245.971 677.77 245.808 677.201 246.066 676.741C246.323 676.28 246.892 676.118 247.353 676.375L248.192 676.849C251.362 678.651 254.951 680.682 261.751 680.574C268.713 680.439 272.045 678.366 274.998 676.524C275.486 676.226 275.96 675.928 276.448 675.644C276.894 675.373 277.477 675.535 277.748 675.982C278.005 676.429 277.856 677.012 277.409 677.283Z" fill="white"/>
<path d="M239.104 615.612C235.826 610.979 228.959 602.825 219.965 600.644C219.965 600.644 216.308 610.79 223.933 629.048C224.529 630.471 225.18 631.934 225.911 633.437C225.911 633.437 232.426 623.062 241.217 618.863C241.217 618.863 240.472 617.535 239.104 615.598V615.612Z" fill="white"/>
<path d="M303.578 600.644C294.584 602.825 287.717 610.979 284.439 615.612C283.071 617.549 282.326 618.876 282.326 618.876C291.103 623.075 297.632 633.451 297.632 633.451C298.364 631.934 299.014 630.471 299.61 629.062C307.236 610.803 303.578 600.658 303.578 600.658V600.644Z" fill="white"/>
<path d="M253.976 666.094C254.884 666.595 255.994 666.365 256.956 665.918C257.484 665.674 257.999 665.336 258.351 664.808C260.044 662.166 256.618 661.801 255.06 662.302C253.285 662.884 251.944 664.984 253.976 666.094Z" fill="white"/>
<path d="M277.179 650.328C276.366 651.696 276.624 653.592 278.479 652.942C279.306 652.644 279.888 651.858 280.267 651.046C280.471 650.599 280.633 650.111 280.565 649.623C280.254 647.226 277.911 649.122 277.193 650.328H277.179Z" fill="white"/>
<path d="M272.005 641.767C268.767 648.418 277.369 646.698 279.901 643.487C281.134 641.93 282.245 639.722 281.242 637.975C280.43 636.552 278.506 636.227 277.016 636.796C275.052 637.555 272.926 639.844 271.991 641.767H272.005Z" fill="white"/>
<path d="M241.244 650.003C241.447 649.556 241.61 649.068 241.542 648.58C241.23 646.183 238.887 648.079 238.169 649.285C237.356 650.653 237.614 652.549 239.469 651.899C240.296 651.601 240.878 650.815 241.257 650.003H241.244Z" fill="white"/>
<path d="M251.728 641.767C250.793 639.844 248.666 637.555 246.702 636.796C245.226 636.227 243.289 636.552 242.476 637.975C241.488 639.708 242.585 641.93 243.817 643.487C246.35 646.698 254.951 648.418 251.714 641.767H251.728Z" fill="white"/>
<path d="M214.343 656.911C213.639 659.796 212.867 663.616 213.07 667.462C213.68 678.786 228.633 689.338 229.256 689.785C232.507 692.087 234.959 693.726 237.194 695.094C237.194 695.094 237.221 695.108 237.234 695.108C245.145 699.483 253.055 701 260.193 701C275.797 701 287.717 693.78 287.907 693.672C289.6 692.575 291.401 691.342 293.596 689.785C294.232 689.338 309.186 678.786 309.796 667.462C309.999 663.616 309.227 659.796 308.522 656.911C306.924 650.314 304.797 643.84 302.21 637.622C315.647 617.982 312.301 594.441 309.159 591.447C309.064 591.352 308.942 591.285 308.82 591.244C307.263 590.689 304.96 591.149 301.994 592.599C294.232 596.391 283.139 606.387 278.615 614.42C274.389 612.578 268.253 611.467 261.575 611.372C261.548 611.372 261.521 611.372 261.494 611.372H261.44C261.331 611.372 261.331 611.372 261.304 611.372C254.83 611.467 248.856 612.51 244.698 614.244C240.567 606.198 229.69 596.31 222.05 592.585C219.057 591.122 216.727 590.675 215.129 591.23C215.007 591.271 214.885 591.339 214.79 591.434C211.851 594.237 208.356 618.023 220.94 636.959C218.217 643.379 215.996 650.084 214.343 656.911ZM238.183 693.455C235.988 692.114 233.577 690.503 230.354 688.227C230.259 688.159 224.976 684.434 220.628 679.206C218.664 672.772 217.31 664.496 225.017 660.568C225.017 660.568 235.514 655.502 249.493 663.141C249.52 663.06 249.547 662.979 249.588 662.898C251.999 657.344 260.83 659.132 265.3 658.672C267.142 658.482 269.147 658.265 270.745 659.322C272.492 660.473 273.346 661.814 273.576 663.223C287.582 655.285 297.524 659.037 297.524 659.037C305.272 663.656 304.499 672.108 302.779 678.529C298.336 684.082 292.607 688.132 292.512 688.2C290.331 689.744 288.543 690.963 286.891 692.033C286.647 692.182 262.401 706.824 238.183 693.428V693.455ZM237.871 645.614C240.336 644.842 243.072 645.479 245.876 646.291C249.75 647.416 251.741 653.254 248.829 656.951C243.926 663.182 235.921 653.755 233.686 648.824C234.959 647.05 236.368 646.075 237.871 645.614ZM243.844 643.487C242.612 641.93 241.501 639.722 242.504 637.975C243.316 636.552 245.24 636.227 246.73 636.796C248.694 637.555 250.82 639.844 251.755 641.767C254.992 648.418 246.391 646.698 243.858 643.487H243.844ZM241.23 618.862C232.453 623.061 225.924 633.437 225.924 633.437C225.193 631.92 224.543 630.457 223.947 629.048C216.321 610.79 219.978 600.644 219.978 600.644C228.972 602.825 235.839 610.979 239.117 615.612C240.485 617.549 241.23 618.876 241.23 618.876V618.862ZM297.646 633.437C297.646 633.437 291.13 623.061 282.34 618.862C282.34 618.862 283.085 617.535 284.453 615.598C287.731 610.966 294.598 602.812 303.592 600.631C303.592 600.631 307.249 610.776 299.623 629.035C299.027 630.457 298.377 631.92 297.646 633.423V633.437ZM290.087 648.946C287.866 653.741 279.902 662.911 275.039 656.843C272.154 653.254 274.131 647.578 277.978 646.481C280.768 645.682 283.477 645.072 285.943 645.817C287.433 646.264 288.828 647.226 290.101 648.946H290.087ZM281.256 637.975C282.245 639.708 281.148 641.93 279.915 643.487C277.382 646.698 268.781 648.418 272.018 641.767C272.953 639.844 275.079 637.555 277.044 636.796C278.52 636.227 280.457 636.552 281.27 637.975H281.256Z" fill="#231F20"/>
<path d="M257.945 672.488C259.882 673.205 261.724 673.314 263.485 672.907C266.966 672.081 275.323 665.146 268.917 661.177C267.63 660.378 266.004 660.541 264.514 660.69C260.911 661.028 253.787 659.687 251.836 663.886C250.035 667.774 255.114 671.458 257.932 672.501L257.945 672.488ZM255.046 662.302C256.604 661.8 260.045 662.166 258.338 664.808C257.999 665.336 257.471 665.674 256.943 665.918C255.981 666.379 254.87 666.595 253.963 666.094C251.931 664.984 253.272 662.871 255.046 662.302Z" fill="#231F20"/>
<path d="M276.448 675.644C275.974 675.928 275.486 676.226 274.998 676.524C272.045 678.353 268.7 680.439 261.751 680.574C254.952 680.682 251.362 678.651 248.192 676.849L247.353 676.375C246.892 676.118 246.323 676.28 246.066 676.741C245.809 677.201 245.971 677.77 246.432 678.027L247.258 678.502C250.373 680.276 254.234 682.47 261.169 682.47C261.372 682.47 261.589 682.47 261.792 682.47C269.269 682.335 273.007 680.005 276.014 678.136C276.488 677.838 276.949 677.553 277.409 677.283C277.856 677.025 278.019 676.443 277.748 675.982C277.477 675.535 276.908 675.373 276.448 675.644Z" fill="#231F20"/>
<path d="M278.628 647.605C275.676 648.445 274.158 652.82 276.366 655.583C280.105 660.256 286.227 653.186 287.934 649.502C286.959 648.174 285.889 647.443 284.737 647.091C282.854 646.522 280.768 646.996 278.615 647.605H278.628ZM280.254 651.032C279.888 651.845 279.306 652.631 278.466 652.929C276.61 653.592 276.353 651.696 277.165 650.314C277.883 649.109 280.24 647.212 280.538 649.61C280.606 650.098 280.443 650.585 280.24 651.032H280.254Z" fill="#231F20"/>
<path d="M247.353 655.597C249.574 652.834 248.057 648.459 245.091 647.619C242.937 647.009 240.865 646.535 238.968 647.104C237.817 647.456 236.747 648.188 235.772 649.515C237.478 653.199 243.601 660.27 247.339 655.597H247.353ZM238.156 649.298C238.874 648.093 241.23 646.197 241.528 648.594C241.596 649.082 241.434 649.569 241.23 650.016C240.865 650.829 240.282 651.615 239.442 651.913C237.587 652.576 237.329 650.68 238.142 649.298H238.156Z" fill="#231F20"/>
<path d="M271.651 425.848C271.708 427.758 272.249 433.515 280.244 432.802C285.218 432.361 288.054 427.458 288.054 427.074C288.025 425.164 285.075 414.134 278.263 414.048C272.891 413.977 271.58 423.625 271.651 425.862V425.848ZM285.845 426.432C285.845 426.746 283.707 430.665 279.973 431.021C273.945 431.591 273.546 426.988 273.504 425.449C273.447 423.668 274.444 415.929 278.491 415.986C283.607 416.058 285.845 424.893 285.859 426.418L285.845 426.432Z" fill="white"/>
<path d="M278.79 472.563C277.608 472.662 276.425 472.591 275.271 472.32C273.147 471.822 270.938 470.525 268.801 469.256C266.221 467.732 263.556 466.164 261.134 466.05C258.055 466.121 255.433 467.803 252.897 469.427C250.958 470.667 249.134 471.836 247.096 472.32C246.284 472.506 245.443 472.605 244.602 472.605C244.26 472.605 243.918 472.577 243.576 472.548C245.244 475.185 248.137 477.166 250.987 477.508C252.882 477.736 254.778 477.436 256.801 477.123C258.212 476.895 259.68 476.667 261.162 476.638C262.687 476.681 264.155 476.909 265.566 477.123C267.575 477.436 269.485 477.736 271.38 477.508C274.216 477.166 277.109 475.185 278.776 472.563H278.79Z" fill="white"/>
<path d="M243.448 421.772C243.534 421.202 243.562 420.59 243.334 420.062C242.194 417.412 240.042 420.319 239.586 421.929C239.073 423.753 239.999 425.848 241.966 424.523C242.849 423.924 243.277 422.841 243.434 421.787L243.448 421.772Z" fill="white"/>
<path d="M278.206 423.91C279.09 423.311 279.517 422.228 279.674 421.174C279.76 420.604 279.788 419.991 279.56 419.449C278.42 416.799 276.268 419.706 275.827 421.316C275.313 423.14 276.24 425.235 278.206 423.91Z" fill="white"/>
<path d="M255.861 439.087C253.951 439.728 252.44 441.738 254.564 442.636C255.519 443.035 256.701 442.764 257.742 442.294C258.312 442.037 258.882 441.695 259.267 441.182C261.176 438.645 257.542 438.517 255.861 439.087Z" fill="white"/>
<path d="M325.021 414.048C327.172 412.21 329.025 410.3 330.578 408.348C326.645 405.897 322.84 402.134 319.135 398.472C316.028 395.408 313.107 392.501 310.185 390.42C302.533 384.934 290.605 381.969 281.242 387.727C280.771 388.012 280.159 387.869 279.874 387.399C279.76 387.214 279.731 386.986 279.745 386.786C275.128 383.765 270.14 382.083 265.366 381.998C264.397 381.984 263.4 382.026 262.43 382.069C262.031 382.083 261.632 382.098 261.233 382.112C260.763 382.112 260.364 382.083 259.965 382.069C258.996 382.026 257.998 381.984 257.029 381.998C251.642 382.098 246.925 384.121 243.234 386.473C243.363 386.758 243.377 387.1 243.192 387.399C242.907 387.869 242.294 388.012 241.824 387.727C232.446 381.969 220.533 384.934 212.88 390.42C209.958 392.515 207.037 395.408 203.93 398.472C200.239 402.134 196.42 405.897 192.487 408.348C194.04 410.286 195.893 412.196 198.045 414.048C198.102 414.091 198.144 414.134 198.201 414.177C199.171 413.421 200.154 412.68 201.208 412.067C201.907 411.654 202.705 411.326 203.517 411.326C204.329 411.341 205.184 411.782 205.484 412.552C205.64 412.937 205.626 413.378 205.598 413.806C205.469 415.473 204.942 417.112 204.101 418.552C210.913 422.927 217.44 425.05 221.573 424.209C223.625 423.796 225.905 418.822 228.314 413.564C230.694 408.376 233.672 401.906 237.734 396.605C238.076 396.163 238.688 396.078 239.13 396.42C239.572 396.748 239.643 397.375 239.315 397.816C235.396 402.947 232.589 409.032 230.124 414.39C228.342 418.267 226.86 421.487 225.292 423.596C226.233 430.679 229.511 436.95 232.888 442.807C233.116 443.22 233.373 443.619 233.615 444.032C234.328 442.664 235.24 441.41 236.422 440.327C237.506 439.344 238.66 438.432 239.843 437.648C240.299 437.349 240.926 437.463 241.225 437.933C241.524 438.389 241.41 439.016 240.94 439.315C239.814 440.056 238.774 440.883 237.762 441.809C234.185 445.087 233.373 450.488 233.059 455.333C232.774 459.68 233.857 463.613 236.123 466.406C238.703 469.584 243.035 471.209 246.655 470.368C248.351 469.969 250.046 468.886 251.828 467.732C254.464 466.05 257.443 464.126 261.162 464.041C264.141 464.183 267.033 465.879 269.812 467.518C271.907 468.758 273.888 469.926 275.727 470.354C279.346 471.195 283.693 469.584 286.258 466.392C288.524 463.599 289.607 459.666 289.322 455.319C289.008 450.474 288.196 445.073 284.619 441.795C284.063 441.282 283.465 440.783 282.866 440.313C282.439 439.971 282.353 439.344 282.695 438.916C283.037 438.489 283.664 438.403 284.092 438.745C284.733 439.244 285.374 439.785 285.973 440.327C287.156 441.41 288.068 442.678 288.78 444.046C288.823 443.975 288.852 443.918 288.894 443.847C292.756 437.178 296.433 430.836 297.203 422.813C295.835 420.732 294.495 417.811 292.927 414.39C290.462 409.018 287.669 402.933 283.736 397.816C283.408 397.375 283.479 396.748 283.921 396.42C284.363 396.078 284.99 396.163 285.317 396.605C289.379 401.906 292.343 408.376 294.737 413.564C297.16 418.822 299.44 423.796 301.478 424.209C305.611 425.036 312.138 422.927 318.95 418.552C321.045 417.212 323.082 415.687 325.006 414.034L325.021 414.048ZM208.391 406.467C207.721 404.871 211.384 402.02 213.108 401.721C215.488 401.308 216.158 402.847 215.075 404.429C214.191 405.726 212.452 407.778 210.186 407.436C209.132 407.279 208.576 406.923 208.377 406.467H208.391ZM212.68 419.335C210.414 418.822 209.83 416.271 211.512 414.661C212.21 413.991 213.079 413.535 213.792 412.894C214.448 412.31 215.003 411.597 215.73 411.113C216.001 410.927 216.329 410.799 216.642 410.728C217.184 410.6 217.754 410.657 218.181 411.013C218.637 411.383 218.823 411.996 218.979 412.566C219.948 416.029 216.414 420.19 212.652 419.335H212.68ZM243.135 405.597C243.22 404.899 243.662 404.286 244.189 403.759C245.101 402.833 246.441 402.063 248.065 402.063C252.954 402.063 252.911 406.353 250.118 407.849C247.852 409.06 242.75 408.633 243.12 405.597H243.135ZM236.536 426.432C236.551 424.907 238.788 416.072 243.904 416.001C247.937 415.944 248.935 423.682 248.892 425.463C248.849 426.988 248.436 431.605 242.422 431.035C238.674 430.679 236.536 426.746 236.551 426.447L236.536 426.432ZM271.052 441.524C270.739 446.227 265.623 449.163 261.176 448.963C256.73 449.177 251.186 446.056 251.3 441.524C251.386 438.09 256.887 437.249 261.062 437.092C261.062 437.092 261.134 437.092 261.176 437.092C261.219 437.092 261.248 437.092 261.29 437.092C265.466 437.263 271.28 438.104 271.052 441.538V441.524ZM287.911 414.576C290.918 420.162 292.984 430.081 289.407 435.581C286.173 440.541 278.178 435.068 274.501 433.7C269.47 431.833 266.406 428.698 267.661 422.756C268.558 418.509 271.337 414.162 274.914 411.968C279.232 409.303 285.132 409.445 287.911 414.59V414.576ZM314.261 413.051C311.838 410.842 310.884 405.127 315.301 404.799C316.313 404.728 317.311 405.07 318.237 405.526C319.819 406.324 321.33 407.607 321.828 409.402C323.325 414.804 317.254 415.773 314.261 413.051Z" fill="white"/>
<path d="M274.928 411.968C271.351 414.162 268.558 418.509 267.675 422.756C266.421 428.698 269.47 431.834 274.515 433.7C278.206 435.068 286.201 440.541 289.422 435.582C292.984 430.095 290.918 420.176 287.925 414.576C285.161 409.431 279.261 409.289 274.928 411.954V411.968ZM288.054 427.074C288.054 427.459 285.218 432.361 280.244 432.803C272.249 433.515 271.708 427.758 271.651 425.848C271.579 423.625 272.905 413.977 278.263 414.034C285.061 414.12 288.025 425.15 288.054 427.059V427.074Z" fill="#231F20"/>
<path d="M261.304 437.092C261.304 437.092 261.233 437.092 261.19 437.092C261.148 437.092 261.119 437.092 261.076 437.092C256.901 437.263 251.4 438.104 251.314 441.538C251.2 446.07 256.744 449.177 261.19 448.977C265.637 449.191 270.753 446.255 271.066 441.538C271.294 438.118 265.48 437.263 261.304 437.106V437.092ZM259.281 441.182C258.896 441.695 258.326 442.023 257.756 442.294C256.716 442.764 255.519 443.049 254.578 442.636C252.455 441.738 253.965 439.714 255.875 439.087C257.556 438.531 261.205 438.66 259.281 441.182Z" fill="#231F20"/>
<path d="M273.503 425.463C273.546 426.988 273.959 431.605 279.973 431.035C283.721 430.679 285.859 426.746 285.845 426.447C285.83 424.922 283.593 416.086 278.477 416.015C274.444 415.958 273.446 423.696 273.489 425.478L273.503 425.463ZM279.574 419.464C279.802 419.991 279.788 420.604 279.688 421.188C279.517 422.243 279.09 423.326 278.22 423.924C276.254 425.264 275.327 423.169 275.841 421.331C276.282 419.72 278.434 416.813 279.574 419.464Z" fill="#231F20"/>
<path d="M248.892 425.463C248.949 423.682 247.951 415.944 243.904 416.001C238.788 416.072 236.551 424.908 236.536 426.432C236.536 426.746 238.674 430.665 242.408 431.021C248.436 431.591 248.835 426.988 248.878 425.449L248.892 425.463ZM239.586 421.915C240.028 420.304 242.18 417.397 243.334 420.048C243.562 420.575 243.548 421.188 243.448 421.758C243.277 422.813 242.85 423.896 241.98 424.494C240.014 425.834 239.087 423.739 239.6 421.901L239.586 421.915Z" fill="#231F20"/>
<path d="M218.196 411.013C217.768 410.671 217.198 410.599 216.656 410.728C216.329 410.799 216.015 410.942 215.744 411.113C215.003 411.597 214.462 412.31 213.806 412.894C213.079 413.535 212.224 413.991 211.526 414.661C209.844 416.271 210.429 418.808 212.695 419.335C216.457 420.19 219.977 416.029 219.022 412.566C218.865 411.996 218.68 411.383 218.224 411.013H218.196Z" fill="#231F20"/>
<path d="M215.075 404.443C216.158 402.861 215.488 401.322 213.108 401.735C211.384 402.035 207.721 404.885 208.391 406.481C208.59 406.937 209.132 407.293 210.201 407.45C212.467 407.792 214.191 405.74 215.089 404.443H215.075Z" fill="#231F20"/>
<path d="M332.531 407.208C328.484 404.942 324.436 400.937 320.531 397.061C317.368 393.94 314.389 390.99 311.34 388.796C301.891 382.026 289.992 380.744 281.284 385.418C276.24 381.998 270.71 380.103 265.395 380.003C264.369 379.989 263.342 380.031 262.345 380.074C261.946 380.088 261.561 380.103 261.219 380.117C260.82 380.117 260.435 380.088 260.036 380.074C259.039 380.031 258.013 379.989 256.987 380.003C250.802 380.117 245.486 382.554 241.453 385.247C232.774 380.772 221.031 382.098 211.697 388.796C208.647 390.976 205.669 393.926 202.505 397.061C198.586 400.923 194.539 404.928 190.506 407.208C190.249 407.35 190.078 407.593 190.021 407.863C189.964 408.148 190.021 408.433 190.192 408.662C191.945 411.027 194.154 413.336 196.719 415.559C198.714 417.283 200.838 418.865 203.004 420.247C209.146 424.195 215.189 426.39 219.692 426.39C220.49 426.39 221.245 426.318 221.929 426.176C222.499 426.062 223.027 425.805 223.54 425.421C224.794 432.289 228.029 438.432 231.121 443.819C231.563 444.588 232.019 445.343 232.489 446.113C232.532 446.17 232.56 446.241 232.603 446.298C231.591 449.148 231.235 452.269 231.036 455.205C230.722 460.05 231.962 464.482 234.541 467.66C236.251 469.784 238.574 471.28 241.054 472.035C241.111 472.149 241.14 472.278 241.197 472.392C243.006 476.154 246.84 478.99 250.73 479.46C252.897 479.717 255.034 479.389 257.086 479.061C258.497 478.833 259.837 478.634 261.134 478.591C262.487 478.619 263.813 478.833 265.238 479.061C266.777 479.303 268.359 479.546 269.969 479.546C270.511 479.546 271.052 479.517 271.594 479.446C275.484 478.976 279.318 476.14 281.128 472.377C281.185 472.263 281.213 472.149 281.27 472.035C283.75 471.28 286.073 469.769 287.783 467.646C290.362 464.454 291.602 460.036 291.289 455.191C291.103 452.269 290.733 449.163 289.735 446.327C290.02 445.828 290.305 445.329 290.59 444.845C294.253 438.517 297.758 432.46 298.913 424.964C299.583 425.592 300.295 426.005 301.05 426.147C301.749 426.29 302.49 426.361 303.302 426.361C307.82 426.361 313.848 424.167 319.99 420.219C322.156 418.837 324.279 417.255 326.275 415.53C328.854 413.321 331.049 410.999 332.802 408.633C332.973 408.405 333.044 408.106 332.973 407.835C332.916 407.55 332.73 407.308 332.488 407.179L332.531 407.208ZM301.478 424.238C299.426 423.824 297.146 418.851 294.737 413.592C292.357 408.405 289.379 401.935 285.317 396.634C284.99 396.192 284.363 396.106 283.921 396.448C283.479 396.776 283.408 397.403 283.736 397.845C287.655 402.975 290.462 409.061 292.927 414.419C294.495 417.839 295.849 420.76 297.203 422.841C296.433 430.864 292.756 437.206 288.894 443.876C288.852 443.947 288.823 444.004 288.78 444.075C288.068 442.707 287.156 441.439 285.973 440.356C285.374 439.814 284.747 439.272 284.092 438.774C283.664 438.432 283.037 438.517 282.695 438.945C282.353 439.372 282.439 439.999 282.866 440.341C283.465 440.812 284.063 441.31 284.619 441.823C288.196 445.101 289.008 450.502 289.322 455.348C289.607 459.694 288.524 463.627 286.258 466.421C283.679 469.598 279.346 471.223 275.727 470.382C273.902 469.955 271.922 468.786 269.812 467.546C267.019 465.907 264.141 464.197 261.162 464.069C257.457 464.155 254.464 466.064 251.828 467.76C250.032 468.914 248.35 469.983 246.655 470.397C243.021 471.252 238.688 469.627 236.123 466.435C233.857 463.642 232.774 459.708 233.059 455.362C233.373 450.516 234.185 445.115 237.762 441.838C238.788 440.911 239.828 440.085 240.94 439.344C241.396 439.044 241.524 438.417 241.225 437.961C240.926 437.505 240.299 437.377 239.843 437.676C238.646 438.46 237.506 439.372 236.422 440.356C235.24 441.439 234.328 442.693 233.615 444.061C233.373 443.648 233.116 443.249 232.888 442.835C229.525 436.978 226.233 430.708 225.292 423.625C226.846 421.53 228.342 418.295 230.124 414.419C232.589 409.046 235.382 402.961 239.315 397.845C239.643 397.403 239.572 396.776 239.13 396.448C238.688 396.106 238.076 396.192 237.734 396.634C233.672 401.935 230.708 408.405 228.314 413.592C225.891 418.851 223.611 423.824 221.573 424.238C217.44 425.079 210.913 422.955 204.101 418.58C204.942 417.127 205.469 415.502 205.598 413.835C205.626 413.407 205.626 412.98 205.484 412.581C205.184 411.811 204.344 411.369 203.517 411.355C202.705 411.355 201.907 411.683 201.208 412.096C200.154 412.709 199.185 413.45 198.201 414.205C198.144 414.162 198.087 414.12 198.045 414.077C195.907 412.238 194.04 410.329 192.487 408.376C196.42 405.925 200.225 402.163 203.93 398.501C207.037 395.437 209.958 392.529 212.88 390.449C220.533 384.962 232.461 381.998 241.824 387.755C242.294 388.04 242.907 387.898 243.192 387.428C243.377 387.143 243.363 386.8 243.234 386.501C246.925 384.15 251.642 382.126 257.029 382.026C257.998 382.012 258.996 382.055 259.965 382.098C260.364 382.112 260.763 382.126 261.233 382.14C261.632 382.14 262.031 382.112 262.43 382.098C263.399 382.055 264.397 382.012 265.366 382.026C270.14 382.112 275.128 383.794 279.745 386.815C279.731 387.029 279.745 387.242 279.874 387.428C280.159 387.898 280.771 388.04 281.242 387.755C290.619 381.998 302.533 384.962 310.185 390.449C313.107 392.544 316.028 395.437 319.135 398.501C322.826 402.149 326.645 405.925 330.578 408.376C329.025 410.315 327.158 412.224 325.021 414.077C323.097 415.744 321.059 417.269 318.964 418.594C312.152 422.969 305.625 425.079 301.492 424.252L301.478 424.238ZM265.566 477.123C264.155 476.895 262.687 476.667 261.162 476.638C259.68 476.681 258.212 476.909 256.801 477.123C254.792 477.437 252.882 477.736 250.987 477.508C248.151 477.166 245.244 475.185 243.576 472.548C243.918 472.577 244.26 472.605 244.602 472.605C245.443 472.605 246.284 472.506 247.096 472.32C249.134 471.836 250.958 470.667 252.897 469.427C255.433 467.803 258.041 466.121 261.134 466.05C263.556 466.164 266.221 467.732 268.801 469.256C270.938 470.511 273.133 471.822 275.271 472.32C276.411 472.591 277.608 472.662 278.79 472.563C277.123 475.185 274.23 477.166 271.394 477.508C269.499 477.736 267.604 477.437 265.58 477.123H265.566Z" fill="#231F20"/>
<path d="M321.828 409.402C321.33 407.607 319.833 406.324 318.237 405.526C317.311 405.07 316.313 404.728 315.301 404.799C310.884 405.113 311.839 410.842 314.261 413.051C317.24 415.773 323.311 414.804 321.828 409.402Z" fill="#231F20"/>
<path d="M250.132 407.849C252.925 406.353 252.968 402.078 248.08 402.063C246.455 402.063 245.115 402.833 244.203 403.759C243.676 404.287 243.234 404.899 243.149 405.598C242.778 408.633 247.88 409.061 250.146 407.849H250.132Z" fill="#231F20"/>
<path d="M241.455 729.25C241.295 728.697 241.072 728.208 240.784 727.784C240.496 727.352 240.144 726.989 239.727 726.693C239.318 726.39 238.848 726.159 238.318 726C237.795 725.841 237.216 725.761 236.58 725.761C235.39 725.761 234.345 726.057 233.443 726.648C232.549 727.239 231.852 728.098 231.352 729.227C230.852 730.348 230.602 731.72 230.602 733.341C230.602 734.962 230.848 736.341 231.341 737.477C231.833 738.614 232.53 739.481 233.432 740.08C234.333 740.67 235.398 740.966 236.625 740.966C237.739 740.966 238.689 740.769 239.477 740.375C240.273 739.973 240.879 739.409 241.295 738.682C241.72 737.955 241.932 737.095 241.932 736.102L242.932 736.25H236.932V732.545H246.67V735.477C246.67 737.523 246.239 739.28 245.375 740.75C244.511 742.212 243.322 743.341 241.807 744.136C240.292 744.924 238.557 745.318 236.602 745.318C234.42 745.318 232.504 744.837 230.852 743.875C229.201 742.905 227.913 741.53 226.989 739.75C226.072 737.962 225.614 735.841 225.614 733.386C225.614 731.5 225.886 729.818 226.432 728.341C226.985 726.856 227.758 725.598 228.75 724.568C229.742 723.538 230.898 722.754 232.216 722.216C233.534 721.678 234.962 721.409 236.5 721.409C237.818 721.409 239.045 721.602 240.182 721.989C241.318 722.367 242.326 722.905 243.205 723.602C244.091 724.299 244.814 725.129 245.375 726.091C245.936 727.045 246.295 728.098 246.455 729.25H241.455ZM250.276 745V727.545H254.969V730.591H255.151C255.469 729.508 256.003 728.689 256.753 728.136C257.503 727.576 258.366 727.295 259.344 727.295C259.586 727.295 259.848 727.311 260.128 727.341C260.408 727.371 260.654 727.413 260.866 727.466V731.761C260.639 731.693 260.325 731.633 259.923 731.58C259.522 731.527 259.154 731.5 258.821 731.5C258.109 731.5 257.473 731.655 256.912 731.966C256.359 732.269 255.92 732.693 255.594 733.239C255.276 733.784 255.116 734.413 255.116 735.125V745H250.276ZM270.511 745.341C268.716 745.341 267.17 744.977 265.875 744.25C264.587 743.515 263.595 742.477 262.898 741.136C262.201 739.788 261.852 738.193 261.852 736.352C261.852 734.557 262.201 732.981 262.898 731.625C263.595 730.269 264.576 729.212 265.841 728.455C267.114 727.697 268.606 727.318 270.318 727.318C271.47 727.318 272.542 727.504 273.534 727.875C274.534 728.239 275.405 728.788 276.148 729.523C276.898 730.258 277.481 731.182 277.898 732.295C278.314 733.402 278.523 734.697 278.523 736.182V737.511H263.784V734.511H273.966C273.966 733.814 273.814 733.197 273.511 732.659C273.208 732.121 272.788 731.701 272.25 731.398C271.72 731.087 271.102 730.932 270.398 730.932C269.663 730.932 269.011 731.102 268.443 731.443C267.883 731.777 267.443 732.227 267.125 732.795C266.807 733.356 266.644 733.981 266.636 734.67V737.523C266.636 738.386 266.795 739.133 267.114 739.761C267.439 740.39 267.898 740.875 268.489 741.216C269.08 741.557 269.78 741.727 270.591 741.727C271.129 741.727 271.621 741.652 272.068 741.5C272.515 741.348 272.898 741.121 273.216 740.818C273.534 740.515 273.777 740.144 273.943 739.705L278.42 740C278.193 741.076 277.727 742.015 277.023 742.818C276.326 743.614 275.424 744.235 274.318 744.682C273.22 745.121 271.951 745.341 270.511 745.341ZM289.545 751.909C287.977 751.909 286.633 751.693 285.511 751.261C284.398 750.837 283.511 750.258 282.852 749.523C282.193 748.788 281.765 747.962 281.568 747.045L286.045 746.443C286.182 746.792 286.398 747.117 286.693 747.42C286.989 747.723 287.379 747.966 287.864 748.148C288.356 748.337 288.955 748.432 289.659 748.432C290.712 748.432 291.58 748.174 292.261 747.659C292.951 747.152 293.295 746.299 293.295 745.102V741.909H293.091C292.879 742.394 292.561 742.852 292.136 743.284C291.712 743.716 291.167 744.068 290.5 744.341C289.833 744.614 289.038 744.75 288.114 744.75C286.803 744.75 285.61 744.447 284.534 743.841C283.466 743.227 282.614 742.292 281.977 741.034C281.348 739.769 281.034 738.17 281.034 736.239C281.034 734.261 281.356 732.61 282 731.284C282.644 729.958 283.5 728.966 284.568 728.307C285.644 727.648 286.822 727.318 288.102 727.318C289.08 727.318 289.898 727.485 290.557 727.818C291.216 728.144 291.746 728.553 292.148 729.045C292.557 729.53 292.871 730.008 293.091 730.477H293.273V727.545H298.08V745.17C298.08 746.655 297.716 747.898 296.989 748.898C296.261 749.898 295.254 750.648 293.966 751.148C292.686 751.655 291.212 751.909 289.545 751.909ZM289.648 741.114C290.428 741.114 291.087 740.92 291.625 740.534C292.17 740.14 292.587 739.58 292.875 738.852C293.17 738.117 293.318 737.239 293.318 736.216C293.318 735.193 293.174 734.307 292.886 733.557C292.598 732.799 292.182 732.212 291.636 731.795C291.091 731.379 290.428 731.17 289.648 731.17C288.852 731.17 288.182 731.386 287.636 731.818C287.091 732.242 286.678 732.833 286.398 733.591C286.117 734.348 285.977 735.223 285.977 736.216C285.977 737.223 286.117 738.095 286.398 738.83C286.686 739.557 287.098 740.121 287.636 740.523C288.182 740.917 288.852 741.114 289.648 741.114Z" fill="#4BA70D"/>
</svg>
