<svg width="740" height="357" viewBox="0 0 740 357" fill="none" xmlns="http://www.w3.org/2000/svg">
<path d="M0 0H740V357H0V0Z" fill="white"/>
<path d="M0 0H740V58H0V0Z" fill="#970D99"/>
<path d="M44 154C44 151.239 46.2386 149 49 149H279C281.761 149 284 151.239 284 154V318C284 320.761 281.761 323 279 323H49C46.2386 323 44 320.761 44 318V154Z" fill="#E2D2F3"/>
<path d="M44 94C44 91.2386 46.2386 89 49 89H279C281.761 89 284 91.2386 284 94V126C284 128.761 281.761 131 279 131H49C46.2386 131 44 128.761 44 126V94Z" fill="#E910A7"/>
<path d="M318 131C318 125.477 322.477 121 328 121H411C416.523 121 421 125.477 421 131V183C421 188.523 416.523 193 411 193H328C322.477 193 318 188.523 318 183V131Z" fill="#E2D2F3"/>
<path d="M318 99C318 93.4771 322.477 89 328 89H411C416.523 89 421 93.4771 421 99V103C421 108.523 416.523 113 411 113H328C322.477 113 318 108.523 318 103V99Z" fill="#E910A7"/>
<path d="M318 126C318 123.239 320.239 121 323 121H416C418.761 121 421 123.239 421 126V188C421 190.761 418.761 193 416 193H323C320.239 193 318 190.761 318 188V126Z" fill="#E2D2F3"/>
<path d="M318 94C318 91.2386 320.239 89 323 89H416C418.761 89 421 91.2386 421 94V108C421 110.761 418.761 113 416 113H323C320.239 113 318 110.761 318 108V94Z" fill="#FE47C6"/>
<path d="M455 131C455 125.477 459.477 121 465 121H548C553.523 121 558 125.477 558 131V183C558 188.523 553.523 193 548 193H465C459.477 193 455 188.523 455 183V131Z" fill="#E2D2F3"/>
<path d="M455 99C455 93.4771 459.477 89 465 89H548C553.523 89 558 93.4771 558 99V103C558 108.523 553.523 113 548 113H465C459.477 113 455 108.523 455 103V99Z" fill="#E910A7"/>
<path d="M455 126C455 123.239 457.239 121 460 121H553C555.761 121 558 123.239 558 126V188C558 190.761 555.761 193 553 193H460C457.239 193 455 190.761 455 188V126Z" fill="#E2D2F3"/>
<path d="M455 94C455 91.2386 457.239 89 460 89H553C555.761 89 558 91.2386 558 94V108C558 110.761 555.761 113 553 113H460C457.239 113 455 110.761 455 108V94Z" fill="#B92A5F"/>
<path d="M318 261C318 255.477 322.477 251 328 251H411C416.523 251 421 255.477 421 261V313C421 318.523 416.523 323 411 323H328C322.477 323 318 318.523 318 313V261Z" fill="#E2D2F3"/>
<path d="M318 229C318 223.477 322.477 219 328 219H411C416.523 219 421 223.477 421 229V233C421 238.523 416.523 243 411 243H328C322.477 243 318 238.523 318 233V229Z" fill="#E910A7"/>
<path d="M318 256C318 253.239 320.239 251 323 251H416C418.761 251 421 253.239 421 256V318C421 320.761 418.761 323 416 323H323C320.239 323 318 320.761 318 318V256Z" fill="#E2D2F3"/>
<path d="M318 224C318 221.239 320.239 219 323 219H416C418.761 219 421 221.239 421 224V238C421 240.761 418.761 243 416 243H323C320.239 243 318 240.761 318 238V224Z" fill="#B92A5F"/>
<path d="M455 261C455 255.477 459.477 251 465 251H548C553.523 251 558 255.477 558 261V313C558 318.523 553.523 323 548 323H465C459.477 323 455 318.523 455 313V261Z" fill="#E2D2F3"/>
<path d="M455 229C455 223.477 459.477 219 465 219H548C553.523 219 558 223.477 558 229V233C558 238.523 553.523 243 548 243H465C459.477 243 455 238.523 455 233V229Z" fill="#E910A7"/>
<path d="M455 256C455 253.239 457.239 251 460 251H553C555.761 251 558 253.239 558 256V318C558 320.761 555.761 323 553 323H460C457.239 323 455 320.761 455 318V256Z" fill="#E2D2F3"/>
<path d="M455 224C455 221.239 457.239 219 460 219H553C555.761 219 558 221.239 558 224V238C558 240.761 555.761 243 553 243H460C457.239 243 455 240.761 455 238V224Z" fill="#FE47C6"/>
<path d="M592 131C592 125.477 596.477 121 602 121H685C690.523 121 695 125.477 695 131V183C695 188.523 690.523 193 685 193H602C596.477 193 592 188.523 592 183V131Z" fill="#E2D2F3"/>
<path d="M592 99C592 93.4771 596.477 89 602 89H685C690.523 89 695 93.4771 695 99V103C695 108.523 690.523 113 685 113H602C596.477 113 592 108.523 592 103V99Z" fill="#E910A7"/>
<path d="M592 126C592 123.239 594.239 121 597 121H690C692.761 121 695 123.239 695 126V188C695 190.761 692.761 193 690 193H597C594.239 193 592 190.761 592 188V126Z" fill="#E2D2F3"/>
<path d="M592 94C592 91.2386 594.239 89 597 89H690C692.761 89 695 91.2386 695 94V108C695 110.761 692.761 113 690 113H597C594.239 113 592 110.761 592 108V94Z" fill="#FE47C6"/>
<path d="M592 261C592 255.477 596.477 251 602 251H685C690.523 251 695 255.477 695 261V313C695 318.523 690.523 323 685 323H602C596.477 323 592 318.523 592 313V261Z" fill="#E2D2F3"/>
<path d="M592 229C592 223.477 596.477 219 602 219H685C690.523 219 695 223.477 695 229V233C695 238.523 690.523 243 685 243H602C596.477 243 592 238.523 592 233V229Z" fill="#E910A7"/>
<path d="M592 256C592 253.239 594.239 251 597 251H690C692.761 251 695 253.239 695 256V318C695 320.761 692.761 323 690 323H597C594.239 323 592 320.761 592 318V256Z" fill="#E2D2F3"/>
<path d="M592 224C592 221.239 594.239 219 597 219H690C692.761 219 695 221.239 695 224V238C695 240.761 692.761 243 690 243H597C594.239 243 592 240.761 592 238V224Z" fill="#B92A5F"/>
</svg>
